LibertinusSerif-Regular.ufo
<glyph name="ampersand" format="2">
	<unicode hex="0026"/>
	<advance width="705"/>
	<outline>
		<contour>
			<point x="43" y="156" type="curve" smooth="yes"/>
			<point x="43" y="34"/>
			<point x="128" y="-10"/>
			<point x="235" y="-10" type="curve" smooth="yes"/>
			<point x="320" y="-10"/>
			<point x="375" y="31"/>
			<point x="421" y="94" type="curve"/>
			<point x="450" y="57" type="line" smooth="yes"/>
			<point x="499" y="-6"/>
			<point x="534" y="-10"/>
			<point x="565" y="-10" type="curve" smooth="yes"/>
			<point x="600" y="-10"/>
			<point x="645" y="18"/>
			<point x="668" y="88" type="curve"/>
			<point x="663" y="93"/>
			<point x="658" y="98"/>
			<point x="647" y="98" type="curve"/>
			<point x="627" y="59"/>
			<point x="604" y="44"/>
			<point x="571" y="44" type="curve" smooth="yes"/>
			<point x="555" y="44"/>
			<point x="525" y="64"/>
			<point x="494" y="107" type="curve" smooth="yes"/>
			<point x="458" y="157" type="line"/>
			<point x="498" y="214"/>
			<point x="520" y="254"/>
			<point x="547" y="302" type="curve" smooth="yes"/>
			<point x="593" y="384"/>
			<point x="600" y="389"/>
			<point x="661" y="393" type="curve"/>
			<point x="667" y="399"/>
			<point x="667" y="420"/>
			<point x="661" y="426" type="curve"/>
			<point x="641" y="425"/>
			<point x="611" y="424"/>
			<point x="577" y="424" type="curve" smooth="yes"/>
			<point x="543" y="424"/>
			<point x="502" y="425"/>
			<point x="482" y="426" type="curve"/>
			<point x="476" y="420"/>
			<point x="476" y="399"/>
			<point x="482" y="393" type="curve"/>
			<point x="536" y="390"/>
			<point x="551" y="385"/>
			<point x="513" y="315" type="curve" smooth="yes"/>
			<point x="496" y="283"/>
			<point x="472" y="240"/>
			<point x="436" y="187" type="curve"/>
			<point x="397" y="240"/>
			<point x="337" y="325"/>
			<point x="310" y="371" type="curve"/>
			<point x="393" y="419"/>
			<point x="459" y="484"/>
			<point x="459" y="539" type="curve" smooth="yes"/>
			<point x="459" y="602"/>
			<point x="401" y="647"/>
			<point x="331" y="647" type="curve" smooth="yes"/>
			<point x="231" y="647"/>
			<point x="177" y="576"/>
			<point x="177" y="517" type="curve" smooth="yes"/>
			<point x="177" y="479"/>
			<point x="191" y="440"/>
			<point x="228" y="376" type="curve"/>
			<point x="96" y="302"/>
			<point x="43" y="235"/>
		</contour>
		<contour>
			<point x="125" y="156" type="curve" smooth="yes"/>
			<point x="125" y="227"/>
			<point x="147" y="281"/>
			<point x="250" y="338" type="curve"/>
			<point x="261" y="317"/>
			<point x="341" y="201"/>
			<point x="398" y="126" type="curve"/>
			<point x="349" y="59"/>
			<point x="313" y="23"/>
			<point x="242" y="23" type="curve" smooth="yes"/>
			<point x="179" y="23"/>
			<point x="125" y="58"/>
		</contour>
		<contour>
			<point x="289" y="409" type="curve"/>
			<point x="263" y="458"/>
			<point x="251" y="496"/>
			<point x="251" y="519" type="curve" smooth="yes"/>
			<point x="251" y="585"/>
			<point x="300" y="614"/>
			<point x="326" y="614" type="curve" smooth="yes"/>
			<point x="367" y="614"/>
			<point x="390" y="584"/>
			<point x="390" y="539" type="curve" smooth="yes"/>
			<point x="390" y="503"/>
			<point x="353" y="451"/>
		</contour>
	</outline>
</glyph>
<glyph name="parenright" format="2">
	<unicode hex="0029"/>
	<advance width="298"/>
	<outline>
		<contour>
			<point x="254" y="252" type="curve" smooth="yes"/>
			<point x="254" y="297"/>
			<point x="250" y="528"/>
			<point x="42" y="708" type="curve"/>
			<point x="32" y="706"/>
			<point x="24" y="699"/>
			<point x="21" y="691" type="curve"/>
			<point x="54" y="653"/>
			<point x="171" y="515"/>
			<point x="171" y="252" type="curve" smooth="yes"/>
			<point x="171" y="-11"/>
			<point x="53" y="-149"/>
			<point x="21" y="-185" type="curve"/>
			<point x="24" y="-195"/>
			<point x="31" y="-202"/>
			<point x="42" y="-203" type="curve"/>
			<point x="161" y="-101"/>
			<point x="254" y="66"/>
		</contour>
	</outline>
</glyph>
<glyph name="plus" format="2">
	<unicode hex="002B"/>
	<advance width="550"/>
	<outline>
		<contour>
			<point x="60" y="242" type="curve" smooth="yes"/>
			<point x="60" y="234"/>
			<point x="66" y="226"/>
			<point x="75" y="226" type="curve" smooth="yes"/>
			<point x="250" y="226" type="line"/>
			<point x="250" y="56" type="line" smooth="yes"/>
			<point x="250" y="47"/>
			<point x="258" y="41"/>
			<point x="266" y="41" type="curve" smooth="yes"/>
			<point x="281" y="41"/>
			<point x="300" y="54"/>
			<point x="300" y="66" type="curve" smooth="yes"/>
			<point x="300" y="226" type="line"/>
			<point x="463" y="226" type="line" smooth="yes"/>
			<point x="476" y="226"/>
			<point x="490" y="249"/>
			<point x="490" y="259" type="curve" smooth="yes"/>
			<point x="490" y="267"/>
			<point x="486" y="276"/>
			<point x="476" y="276" type="curve" smooth="yes"/>
			<point x="300" y="276" type="line"/>
			<point x="300" y="448" type="line" smooth="yes"/>
			<point x="300" y="458"/>
			<point x="291" y="462"/>
			<point x="283" y="462" type="curve" smooth="yes"/>
			<point x="273" y="462"/>
			<point x="250" y="448"/>
			<point x="250" y="435" type="curve" smooth="yes"/>
			<point x="250" y="276" type="line"/>
			<point x="85" y="276" type="line" smooth="yes"/>
			<point x="73" y="276"/>
			<point x="60" y="257"/>
		</contour>
	</outline>
</glyph>
<glyph name="period" format="2">
	<unicode hex="002E"/>
	<advance width="220"/>
	<outline>
		<contour>
			<point x="57" y="43" type="curve" smooth="yes"/>
			<point x="57" y="14"/>
			<point x="81" y="-10"/>
			<point x="110" y="-10" type="curve" smooth="yes"/>
			<point x="139" y="-10"/>
			<point x="163" y="14"/>
			<point x="163" y="43" type="curve" smooth="yes"/>
			<point x="163" y="72"/>
			<point x="139" y="96"/>
			<point x="110" y="96" type="curve" smooth="yes"/>
			<point x="81" y="96"/>
			<point x="57" y="72"/>
		</contour>
	</outline>
</glyph>
<glyph name="slash" format="2">
	<unicode hex="002F"/>
	<advance width="323"/>
	<outline>
		<contour>
			<point x="293" y="646" type="line"/>
			<point x="252" y="646" type="line"/>
			<point x="15" y="-59" type="line"/>
			<point x="56" y="-59" type="line"/>
		</contour>
	</outline>
</glyph>
<glyph name="three" format="2">
	<unicode hex="0033"/>
	<advance width="465"/>
	<outline>
		<contour>
			<point x="215" y="575" type="curve" smooth="yes"/>
			<point x="258" y="575"/>
			<point x="298" y="549"/>
			<point x="298" y="485" type="curve" smooth="yes"/>
			<point x="298" y="435"/>
			<point x="240" y="358"/>
			<point x="141" y="344" type="curve"/>
			<point x="146" y="312" type="line"/>
			<point x="163" y="314"/>
			<point x="181" y="314"/>
			<point x="194" y="314" type="curve" smooth="yes"/>
			<point x="251" y="314"/>
			<point name=".hr01" x="325" y="298"/>
			<point x="325" y="185" type="curve" smooth="yes"/>
			<point x="325" y="52"/>
			<point x="236" y="25"/>
			<point x="201" y="25" type="curve" smooth="yes"/>
			<point x="150" y="25"/>
			<point x="141" y="48"/>
			<point x="129" y="66" type="curve"/>
			<point x="119" y="80"/>
			<point x="106" y="92"/>
			<point x="86" y="92" type="curve" smooth="yes"/>
			<point x="65" y="92"/>
			<point x="44" y="73"/>
			<point x="44" y="57" type="curve" smooth="yes"/>
			<point x="44" y="17"/>
			<point x="128" y="-10"/>
			<point x="188" y="-10" type="curve" smooth="yes"/>
			<point x="307" y="-10"/>
			<point x="413" y="67"/>
			<point x="413" y="199" type="curve" smooth="yes"/>
			<point x="413" y="308"/>
			<point x="331" y="347"/>
			<point x="272" y="357" type="curve"/>
			<point x="272" y="357"/>
			<point x="271" y="359"/>
			<point x="271" y="359" type="curve"/>
			<point x="353" y="398"/>
			<point name=".hr02" x="376" y="439"/>
			<point x="376" y="492" type="curve" smooth="yes"/>
			<point x="376" y="522"/>
			<point x="369" y="546"/>
			<point x="345" y="571" type="curve" smooth="yes"/>
			<point x="323" y="593"/>
			<point x="288" y="610"/>
			<point x="236" y="610" type="curve" smooth="yes"/>
			<point x="89" y="610"/>
			<point x="47" y="514"/>
			<point x="47" y="481" type="curve" smooth="yes"/>
			<point x="47" y="467"/>
			<point x="57" y="447"/>
			<point x="81" y="447" type="curve" smooth="yes"/>
			<point x="116" y="447"/>
			<point x="120" y="480"/>
			<point x="120" y="499" type="curve" smooth="yes"/>
			<point x="120" y="563"/>
			<point x="189" y="575"/>
		</contour>
	</outline>
</glyph>
<glyph name="four" format="2">
	<unicode hex="0034"/>
	<advance width="465"/>
	<outline>
		<contour>
			<point x="430" y="219" type="curve" smooth="yes"/>
			<point x="347" y="219" type="line"/>
			<point x="347" y="511" type="line" smooth="yes"/>
			<point x="347" y="561"/>
			<point x="347" y="600"/>
			<point x="349" y="608" type="curve"/>
			<point x="347" y="610" type="line"/>
			<point x="315" y="610" type="line" smooth="yes"/>
			<point x="308" y="610"/>
			<point x="303" y="604"/>
			<point x="299" y="599" type="curve"/>
			<point x="299" y="599" type="line"/>
			<point x="238" y="525"/>
			<point x="128" y="368"/>
			<point x="37" y="228" type="curve"/>
			<point x="34" y="224"/>
			<point x="31" y="219"/>
			<point x="28" y="214" type="curve"/>
			<point x="30" y="203"/>
			<point x="34" y="185"/>
			<point x="49" y="176" type="curve"/>
			<point x="54" y="174"/>
			<point x="60" y="172"/>
			<point x="67" y="172" type="curve" smooth="yes"/>
			<point x="72" y="172"/>
			<point x="77" y="172"/>
			<point x="83" y="172" type="curve" smooth="yes"/>
			<point x="271" y="172" type="line"/>
			<point x="271" y="111" type="line" smooth="yes"/>
			<point x="271" y="100"/>
			<point x="271" y="90"/>
			<point x="271" y="80" type="curve" smooth="yes"/>
			<point x="271" y="34"/>
			<point x="233" y="34"/>
			<point x="190" y="31" type="curve"/>
			<point x="184" y="25"/>
			<point x="184" y="4"/>
			<point x="190" y="-2" type="curve"/>
			<point x="218" y="-1"/>
			<point x="252" y="0"/>
			<point x="291" y="0" type="curve" smooth="yes"/>
			<point x="308" y="0" type="line" smooth="yes"/>
			<point x="347" y="0"/>
			<point x="385" y="-1"/>
			<point x="417" y="-2" type="curve"/>
			<point x="423" y="4"/>
			<point x="423" y="25"/>
			<point x="417" y="31" type="curve"/>
			<point x="368" y="35"/>
			<point x="347" y="33"/>
			<point x="347" y="80" type="curve" smooth="yes"/>
			<point x="347" y="90"/>
			<point x="347" y="100"/>
			<point x="347" y="111" type="curve" smooth="yes"/>
			<point x="347" y="172" type="line"/>
			<point x="416" y="172" type="line" smooth="yes"/>
			<point x="430" y="172"/>
			<point x="445" y="191"/>
			<point x="445" y="203" type="curve" smooth="yes"/>
			<point x="445" y="213"/>
			<point x="441" y="219"/>
		</contour>
		<contour>
			<point x="271" y="507" type="curve"/>
			<point x="271" y="219" type="line"/>
			<point x="80" y="219" type="line"/>
			<point x="131" y="301"/>
			<point x="202" y="413"/>
		</contour>
	</outline>
</glyph>
<glyph name="six" format="2">
	<unicode hex="0036"/>
	<advance width="465"/>
	<outline>
		<contour>
			<point x="368" y="585" type="curve"/>
			<point x="368" y="597"/>
			<point x="364" y="606"/>
			<point x="356" y="611" type="curve"/>
			<point x="255" y="581"/>
			<point x="193" y="539"/>
			<point x="137" y="474" type="curve" smooth="yes"/>
			<point x="80" y="408"/>
			<point x="49" y="326"/>
			<point x="45" y="252" type="curve"/>
			<point x="44" y="245"/>
			<point x="44" y="239"/>
			<point x="44" y="232" type="curve" smooth="yes"/>
			<point x="44" y="29"/>
			<point x="159" y="-11"/>
			<point x="236" y="-11" type="curve" smooth="yes"/>
			<point x="367" y="-11"/>
			<point x="421" y="116"/>
			<point x="421" y="202" type="curve" smooth="yes"/>
			<point x="421" y="281"/>
			<point x="382" y="352"/>
			<point x="271" y="363" type="curve" smooth="yes"/>
			<point x="261" y="364"/>
			<point x="250" y="365"/>
			<point x="239" y="365" type="curve" smooth="yes"/>
			<point x="213" y="365"/>
			<point x="174" y="357"/>
			<point x="144" y="343" type="curve"/>
			<point x="160" y="398"/>
			<point x="190" y="456"/>
			<point x="239" y="504" type="curve" smooth="yes"/>
			<point x="273" y="537"/>
			<point x="315" y="565"/>
		</contour>
		<contour>
			<point x="135" y="307" type="curve"/>
			<point x="168" y="329"/>
			<point x="201" y="330"/>
			<point x="218" y="330" type="curve" smooth="yes"/>
			<point x="308" y="330"/>
			<point x="334" y="249"/>
			<point x="338" y="197" type="curve"/>
			<point x="338" y="193"/>
			<point x="338" y="188"/>
			<point x="338" y="184" type="curve" smooth="yes"/>
			<point x="338" y="74"/>
			<point x="296" y="24"/>
			<point x="247" y="24" type="curve" smooth="yes"/>
			<point x="184" y="24"/>
			<point x="127" y="58"/>
			<point x="127" y="229" type="curve" smooth="yes"/>
			<point x="127" y="234"/>
			<point x="127" y="238"/>
			<point x="127" y="243" type="curve"/>
			<point x="128" y="263"/>
			<point x="130" y="284"/>
		</contour>
	</outline>
</glyph>
<glyph name="greater" format="2">
	<unicode hex="003E"/>
	<advance width="550"/>
	<outline>
		<contour>
			<point x="412" y="236" type="line"/>
			<point x="95" y="121" type="line"/>
			<point x="82" y="107"/>
			<point x="81" y="77"/>
			<point x="95" y="71" type="curve"/>
			<point x="485" y="212" type="line"/>
			<point x="494" y="229"/>
			<point x="494" y="245"/>
			<point x="485" y="260" type="curve"/>
			<point x="95" y="402" type="line"/>
			<point x="81" y="396"/>
			<point x="82" y="366"/>
			<point x="95" y="352" type="curve"/>
		</contour>
	</outline>
</glyph>
<glyph name="question" format="2">
	<unicode hex="003F"/>
	<advance width="435"/>
	<outline>
		<contour>
			<point x="114" y="572" type="curve" smooth="yes"/>
			<point x="114" y="602"/>
			<point x="154" y="626"/>
			<point x="211" y="626" type="curve" smooth="yes"/>
			<point x="264" y="626"/>
			<point x="300" y="577"/>
			<point x="305" y="518" type="curve"/>
			<point x="306" y="513"/>
			<point x="306" y="509"/>
			<point x="306" y="504" type="curve" smooth="yes"/>
			<point x="306" y="457"/>
			<point x="291" y="428"/>
			<point x="251" y="391" type="curve"/>
			<point x="246" y="387"/>
			<point x="242" y="383"/>
			<point x="238" y="378" type="curve"/>
			<point x="185" y="324"/>
			<point x="181" y="270"/>
			<point x="181" y="230" type="curve" smooth="yes"/>
			<point x="181" y="207" type="line" smooth="yes"/>
			<point x="181" y="199"/>
			<point x="181" y="192"/>
			<point x="181" y="184" type="curve" smooth="yes"/>
			<point x="181" y="177"/>
			<point x="189" y="174"/>
			<point x="197" y="174" type="curve" smooth="yes"/>
			<point x="205" y="174"/>
			<point x="214" y="177"/>
			<point x="214" y="184" type="curve" smooth="yes"/>
			<point x="214" y="191"/>
			<point x="214" y="199"/>
			<point x="214" y="206" type="curve" smooth="yes"/>
			<point x="214" y="228" type="line" smooth="yes"/>
			<point x="214" y="252"/>
			<point x="215" y="276"/>
			<point x="228" y="301" type="curve" smooth="yes"/>
			<point x="237" y="318"/>
			<point x="257" y="334"/>
			<point x="280" y="351" type="curve" smooth="yes"/>
			<point x="327" y="385"/>
			<point x="389" y="429"/>
			<point x="389" y="508" type="curve" smooth="yes"/>
			<point x="389" y="599"/>
			<point x="323" y="659"/>
			<point x="221" y="659" type="curve" smooth="yes"/>
			<point x="168" y="659"/>
			<point name=".hr01" x="126" y="645"/>
			<point x="97" y="620" type="curve"/>
			<point x="67" y="596"/>
			<point x="46" y="568"/>
			<point x="46" y="530" type="curve" smooth="yes"/>
			<point x="46" y="495"/>
			<point x="71" y="487"/>
			<point x="87" y="487" type="curve"/>
			<point x="87" y="487"/>
			<point x="87" y="487"/>
			<point x="87" y="487" type="curve"/>
			<point x="106" y="487"/>
			<point x="126" y="499"/>
			<point x="126" y="522" type="curve" smooth="yes"/>
			<point x="126" y="535"/>
			<point x="124" y="541"/>
			<point x="120" y="546" type="curve" smooth="yes"/>
			<point x="116" y="551"/>
			<point name=".hr02" x="114" y="557"/>
		</contour>
		<contour>
			<point x="144" y="43" type="curve" smooth="yes"/>
			<point x="144" y="14"/>
			<point x="168" y="-10"/>
			<point x="197" y="-10" type="curve" smooth="yes"/>
			<point x="226" y="-10"/>
			<point x="250" y="14"/>
			<point x="250" y="43" type="curve" smooth="yes"/>
			<point x="250" y="72"/>
			<point x="226" y="96"/>
			<point x="197" y="96" type="curve" smooth="yes"/>
			<point x="168" y="96"/>
			<point x="144" y="72"/>
		</contour>
	</outline>
</glyph>
<glyph name="A" format="2">
	<unicode hex="0041"/>
	<advance width="695"/>
	<outline>
		<contour>
			<point x="155" y="79" type="curve" smooth="yes"/>
			<point x="210" y="224" type="line" smooth="yes"/>
			<point x="215" y="237"/>
			<point x="221" y="241"/>
			<point x="245" y="241" type="curve" smooth="yes"/>
			<point x="456" y="241" type="line"/>
			<point x="514" y="72" type="line" smooth="yes"/>
			<point x="526" y="38"/>
			<point x="488" y="34"/>
			<point x="440" y="31" type="curve"/>
			<point x="434" y="25"/>
			<point x="434" y="4"/>
			<point x="440" y="-2" type="curve"/>
			<point x="477" y="-1"/>
			<point x="532" y="0"/>
			<point x="571" y="0" type="curve" smooth="yes"/>
			<point x="612" y="0"/>
			<point x="650" y="-1"/>
			<point x="685" y="-2" type="curve"/>
			<point x="691" y="4"/>
			<point x="691" y="25"/>
			<point x="685" y="31" type="curve"/>
			<point x="646" y="35"/>
			<point x="612" y="38"/>
			<point x="595" y="86" type="curve" smooth="yes"/>
			<point x="389" y="658" type="line"/>
			<point x="374" y="649"/>
			<point x="347" y="638"/>
			<point x="334" y="638" type="curve"/>
			<point x="107" y="102" type="line" smooth="yes"/>
			<point x="81" y="40"/>
			<point x="51" y="34"/>
			<point x="7" y="31" type="curve"/>
			<point x="1" y="25"/>
			<point x="1" y="4"/>
			<point x="7" y="-2" type="curve"/>
			<point x="33" y="-1"/>
			<point x="66" y="0"/>
			<point x="96" y="0" type="curve" smooth="yes"/>
			<point x="137" y="0"/>
			<point x="187" y="-1"/>
			<point x="224" y="-2" type="curve"/>
			<point x="230" y="4"/>
			<point x="230" y="25"/>
			<point x="224" y="31" type="curve"/>
			<point x="186" y="34"/>
			<point x="139" y="38"/>
		</contour>
		<contour>
			<point x="263" y="283" type="line" smooth="yes"/>
			<point x="241" y="283"/>
			<point x="234" y="286"/>
			<point x="238" y="296" type="curve" smooth="yes"/>
			<point x="340" y="555" type="line"/>
			<point x="346" y="555" type="line"/>
			<point x="440" y="283" type="line"/>
		</contour>
	</outline>
	<anchor name="t.uni0302" x="354" y="740"/>
	<anchor name="m.uni0316_2" x="308" y="-110"/>
	<guideline x="0" y="740" angle="0"/>
</glyph>
<glyph name="E" format="2">
	<unicode hex="0045"/>
	<advance width="557"/>
	<outline>
		<contour>
			<point x="281" y="361" type="curve" smooth="yes"/>
			<point x="190" y="361" type="line"/>
			<point x="190" y="541" type="line" smooth="yes"/>
			<point x="190" y="585"/>
			<point x="202" y="605"/>
			<point x="256" y="605" type="curve" smooth="yes"/>
			<point x="331" y="605" type="line" smooth="yes"/>
			<point x="406" y="605"/>
			<point x="422" y="565"/>
			<point x="444" y="496" type="curve"/>
			<point x="456" y="494"/>
			<point x="467" y="496"/>
			<point x="477" y="501" type="curve"/>
			<point x="472" y="542"/>
			<point x="457" y="638"/>
			<point x="455" y="646" type="curve"/>
			<point x="455" y="648"/>
			<point x="454" y="649"/>
			<point x="451" y="649" type="curve"/>
			<point x="434" y="646"/>
			<point x="426" y="645"/>
			<point x="402" y="645" type="curve" smooth="yes"/>
			<point x="147" y="645" type="line" smooth="yes"/>
			<point x="117" y="645"/>
			<point x="58" y="646"/>
			<point x="18" y="647" type="curve"/>
			<point x="12" y="641"/>
			<point x="12" y="620"/>
			<point x="18" y="614" type="curve"/>
			<point x="88" y="611"/>
			<point x="105" y="606"/>
			<point x="105" y="523" type="curve" smooth="yes"/>
			<point x="105" y="122" type="line" smooth="yes"/>
			<point x="105" y="39"/>
			<point x="88" y="34"/>
			<point x="18" y="31" type="curve"/>
			<point x="12" y="25"/>
			<point x="12" y="4"/>
			<point x="18" y="-2" type="curve"/>
			<point x="55" y="-1"/>
			<point x="115" y="0"/>
			<point x="148" y="0" type="curve" smooth="yes"/>
			<point x="363" y="0" type="line" smooth="yes"/>
			<point x="411" y="0"/>
			<point x="491" y="-2"/>
			<point x="491" y="-2" type="curve"/>
			<point x="505" y="48"/>
			<point x="520" y="114"/>
			<point x="528" y="165" type="curve"/>
			<point x="518" y="171"/>
			<point x="506" y="173"/>
			<point x="493" y="170" type="curve"/>
			<point x="473" y="98"/>
			<point x="438" y="39"/>
			<point x="362" y="39" type="curve" smooth="yes"/>
			<point x="246" y="39" type="line" smooth="yes"/>
			<point x="204" y="39"/>
			<point x="190" y="55"/>
			<point x="190" y="102" type="curve" smooth="yes"/>
			<point x="190" y="323" type="line"/>
			<point x="281" y="323" type="line" smooth="yes"/>
			<point x="366" y="323"/>
			<point x="369" y="300"/>
			<point x="372" y="255" type="curve"/>
			<point x="378" y="249"/>
			<point x="399" y="249"/>
			<point x="405" y="255" type="curve"/>
			<point x="404" y="281"/>
			<point x="403" y="309"/>
			<point x="403" y="343" type="curve" smooth="yes"/>
			<point x="403" y="371"/>
			<point x="404" y="405"/>
			<point x="405" y="429" type="curve"/>
			<point x="399" y="435"/>
			<point x="378" y="435"/>
			<point x="372" y="429" type="curve"/>
			<point x="369" y="374"/>
			<point x="366" y="361"/>
		</contour>
	</outline>
	<anchor name="t.uni0302" x="281" y="740"/>
	<anchor name="m.uni0316_2" x="287" y="-110"/>
	<anchor name="m.uni031A_3" x="527" y="732"/>
</glyph>
<glyph name="G" format="2">
	<unicode hex="0047"/>
	<advance width="685"/>
	<outline>
		<contour>
			<point x="377" y="658" type="curve" smooth="yes"/>
			<point x="210" y="658"/>
			<point x="37" y="527"/>
			<point x="37" y="307" type="curve" smooth="yes"/>
			<point x="37" y="127"/>
			<point x="161" y="-10"/>
			<point x="352" y="-10" type="curve" smooth="yes"/>
			<point x="470" y="-10"/>
			<point x="563" y="15"/>
			<point x="631" y="73" type="curve"/>
			<point x="620" y="82"/>
			<point x="615" y="90"/>
			<point x="615" y="101" type="curve" smooth="yes"/>
			<point x="615" y="217" type="line" smooth="yes"/>
			<point x="615" y="252"/>
			<point x="632" y="262"/>
			<point x="661" y="265" type="curve"/>
			<point x="667" y="271"/>
			<point x="667" y="295"/>
			<point x="661" y="301" type="curve"/>
			<point x="637" y="300"/>
			<point x="612" y="299"/>
			<point x="572" y="299" type="curve" smooth="yes"/>
			<point x="539" y="299"/>
			<point x="492" y="300"/>
			<point x="448" y="301" type="curve"/>
			<point x="442" y="295"/>
			<point x="442" y="271"/>
			<point x="448" y="265" type="curve"/>
			<point x="503" y="261"/>
			<point x="530" y="257"/>
			<point x="530" y="217" type="curve" smooth="yes"/>
			<point x="530" y="64" type="line"/>
			<point x="496" y="32"/>
			<point x="429" y="26"/>
			<point x="375" y="26" type="curve" smooth="yes"/>
			<point x="217" y="26"/>
			<point x="133" y="195"/>
			<point x="133" y="327" type="curve" smooth="yes"/>
			<point x="133" y="502"/>
			<point x="247" y="622"/>
			<point x="363" y="622" type="curve" smooth="yes"/>
			<point x="508" y="622"/>
			<point x="549" y="539"/>
			<point x="575" y="453" type="curve"/>
			<point x="586" y="452"/>
			<point x="597" y="454"/>
			<point x="608" y="459" type="curve"/>
			<point x="606" y="501"/>
			<point x="601" y="541"/>
			<point x="585" y="613" type="curve"/>
			<point x="525" y="623"/>
			<point x="488" y="658"/>
		</contour>
	</outline>
	<anchor name="t.uni0302" x="365" y="740"/>
	<anchor name="t.uni0315_1" x="600" y="606"/>
	<anchor name="m.uni0316_2" x="367" y="-110"/>
	<anchor name="m.uni031A_3" x="631" y="732"/>
</glyph>
<glyph name="M" format="2">
	<unicode hex="004D"/>
	<advance width="839"/>
	<outline>
		<contour>
			<point x="663" y="116" type="line" smooth="yes"/>
			<point x="668" y="35"/>
			<point x="664" y="34"/>
			<point x="599" y="31" type="curve"/>
			<point x="593" y="25"/>
			<point x="593" y="4"/>
			<point x="599" y="-2" type="curve"/>
			<point x="636" y="-1"/>
			<point x="676" y="0"/>
			<point x="706" y="0" type="curve" smooth="yes"/>
			<point x="736" y="0"/>
			<point x="782" y="-1"/>
			<point x="815" y="-2" type="curve"/>
			<point x="821" y="4"/>
			<point x="821" y="25"/>
			<point x="815" y="31" type="curve"/>
			<point x="747" y="34"/>
			<point x="744" y="38"/>
			<point x="738" y="121" type="curve" smooth="yes"/>
			<point x="708" y="542" type="line" smooth="yes"/>
			<point x="704" y="596"/>
			<point x="709" y="610"/>
			<point x="777" y="614" type="curve"/>
			<point x="783" y="620"/>
			<point x="783" y="641"/>
			<point x="777" y="647" type="curve"/>
			<point x="646" y="645" type="line"/>
			<point x="434" y="138" type="line" smooth="yes"/>
			<point x="430" y="128"/>
			<point x="427" y="124"/>
			<point x="425" y="124" type="curve" smooth="yes"/>
			<point x="423" y="124"/>
			<point x="420" y="129"/>
			<point x="417" y="137" type="curve" smooth="yes"/>
			<point x="212" y="645" type="line"/>
			<point x="67" y="647" type="line"/>
			<point x="61" y="641"/>
			<point x="61" y="620"/>
			<point x="67" y="614" type="curve"/>
			<point x="136" y="610"/>
			<point x="142" y="608"/>
			<point x="135" y="533" type="curve" smooth="yes"/>
			<point x="95" y="121" type="line" smooth="yes"/>
			<point x="89" y="61"/>
			<point x="77" y="36"/>
			<point x="20" y="31" type="curve"/>
			<point x="14" y="25"/>
			<point x="14" y="4"/>
			<point x="20" y="-2" type="curve"/>
			<point x="50" y="-1"/>
			<point x="82" y="0"/>
			<point x="106" y="0" type="curve" smooth="yes"/>
			<point x="130" y="0"/>
			<point x="170" y="-1"/>
			<point x="200" y="-2" type="curve"/>
			<point x="206" y="4"/>
			<point x="206" y="25"/>
			<point x="200" y="31" type="curve"/>
			<point x="134" y="36"/>
			<point x="129" y="67"/>
			<point x="134" y="123" type="curve" smooth="yes"/>
			<point x="172" y="524" type="line"/>
			<point x="174" y="524" type="line"/>
			<point x="381" y="5" type="line" smooth="yes"/>
			<point x="384" y="-2"/>
			<point x="390" y="-10"/>
			<point x="396" y="-10" type="curve" smooth="yes"/>
			<point x="402" y="-10"/>
			<point x="406" y="-3"/>
			<point x="410" y="5" type="curve"/>
			<point name=".hr01" x="635" y="534" type="line"/>
			<point x="637" y="534" type="line"/>
		</contour>
	</outline>
	<anchor name="m.uni0302" x="431" y="850"/>
	<anchor name="m.uni0316_2" x="393" y="-110"/>
	<anchor name="t.uni0302" x="396" y="740"/>
</glyph>
<glyph name="N" format="2">
	<unicode hex="004E"/>
	<advance width="699"/>
	<outline>
		<contour>
			<point x="15" y="-2" type="curve"/>
			<point x="58" y="-1"/>
			<point x="103" y="0"/>
			<point x="127" y="0" type="curve" smooth="yes"/>
			<point x="150" y="0"/>
			<point x="196" y="-1"/>
			<point x="238" y="-2" type="curve"/>
			<point x="244" y="4"/>
			<point x="244" y="25"/>
			<point x="238" y="31" type="curve"/>
			<point x="168" y="38"/>
			<point x="151" y="42"/>
			<point x="151" y="133" type="curve" smooth="yes"/>
			<point x="151" y="439" type="line" smooth="yes"/>
			<point x="151" y="473"/>
			<point x="151" y="488"/>
			<point x="159" y="488" type="curve" smooth="yes"/>
			<point x="165" y="488"/>
			<point x="176" y="477"/>
			<point x="193" y="455" type="curve" smooth="yes"/>
			<point x="542" y="14" type="line" smooth="yes"/>
			<point x="554" y="-1"/>
			<point x="560" y="-4"/>
			<point x="569" y="-10" type="curve"/>
			<point x="583" y="-10"/>
			<point x="603" y="-8"/>
			<point x="618" y="0" type="curve"/>
			<point x="611" y="24"/>
			<point x="605" y="57"/>
			<point x="605" y="103" type="curve" smooth="yes"/>
			<point x="605" y="228"/>
			<point x="605" y="458"/>
			<point x="605" y="512" type="curve" smooth="yes"/>
			<point x="605" y="601"/>
			<point x="622" y="607"/>
			<point x="692" y="614" type="curve"/>
			<point x="698" y="620"/>
			<point x="698" y="641"/>
			<point x="692" y="647" type="curve"/>
			<point x="651" y="646"/>
			<point x="604" y="645"/>
			<point x="580" y="645" type="curve" smooth="yes"/>
			<point x="559" y="645"/>
			<point x="513" y="646"/>
			<point x="469" y="647" type="curve"/>
			<point x="463" y="641"/>
			<point x="463" y="620"/>
			<point x="469" y="614" type="curve"/>
			<point x="539" y="607"/>
			<point x="556" y="603"/>
			<point x="556" y="512" type="curve" smooth="yes"/>
			<point x="556" y="438"/>
			<point x="556" y="280"/>
			<point x="556" y="185" type="curve" smooth="yes"/>
			<point x="556" y="166"/>
			<point x="556" y="155"/>
			<point x="549" y="155" type="curve" smooth="yes"/>
			<point x="545" y="155"/>
			<point x="530" y="173"/>
			<point x="501" y="210" type="curve" smooth="yes"/>
			<point x="158" y="645" type="line"/>
			<point x="23" y="647" type="line"/>
			<point x="17" y="641"/>
			<point x="17" y="620"/>
			<point x="23" y="614" type="curve"/>
			<point x="66" y="611"/>
			<point x="96" y="576"/>
			<point x="102" y="550" type="curve"/>
			<point x="102" y="133" type="line" smooth="yes"/>
			<point x="102" y="44"/>
			<point x="85" y="38"/>
			<point x="15" y="31" type="curve"/>
			<point x="9" y="25"/>
			<point x="9" y="4"/>
		</contour>
	</outline>
	<anchor name="m.uni0302" x="346" y="850"/>
	<anchor name="m.uni0316_2" x="348" y="-110"/>
	<anchor name="t.uni0302" x="330" y="740"/>
</glyph>
<glyph name="O" format="2">
	<unicode hex="004F"/>
	<advance width="702"/>
	<outline>
		<contour>
			<point x="666" y="329" type="curve" smooth="yes"/>
			<point x="666" y="536"/>
			<point x="523" y="658"/>
			<point x="344" y="658" type="curve" smooth="yes"/>
			<point x="150" y="658"/>
			<point x="37" y="504"/>
			<point x="37" y="310" type="curve" smooth="yes"/>
			<point x="37" y="113"/>
			<point x="180" y="-10"/>
			<point x="350" y="-10" type="curve" smooth="yes"/>
			<point x="549" y="-10"/>
			<point x="666" y="141"/>
		</contour>
		<contour>
			<point x="331" y="622" type="curve" smooth="yes"/>
			<point x="463" y="622"/>
			<point x="570" y="512"/>
			<point x="570" y="310" type="curve" smooth="yes"/>
			<point x="570" y="131"/>
			<point x="484" y="26"/>
			<point x="370" y="26" type="curve" smooth="yes"/>
			<point x="248" y="26"/>
			<point x="133" y="135"/>
			<point x="133" y="327" type="curve" smooth="yes"/>
			<point x="133" y="537"/>
			<point x="232" y="622"/>
		</contour>
	</outline>
	<anchor name="t.uni0302" x="335" y="740"/>
	<anchor name="t.uni0315_1" x="620" y="606"/>
	<anchor name="m.uni0316_2" x="350" y="-110"/>
</glyph>
<glyph name="Q" format="2">
	<unicode hex="0051"/>
	<advance width="702"/>
	<outline>
		<contour>
			<point x="37" y="310" type="curve" smooth="yes"/>
			<point x="37" y="129"/>
			<point x="158" y="11"/>
			<point x="309" y="-8" type="curve"/>
			<point x="253" y="-36"/>
			<point x="173" y="-98"/>
			<point x="139" y="-153" type="curve"/>
			<point x="178" y="-173" type="line"/>
			<point x="190" y="-156"/>
			<point x="203" y="-141"/>
			<point x="216" y="-127" type="curve"/>
			<point x="230" y="-117"/>
			<point x="243" y="-114"/>
			<point x="251" y="-114" type="curve" smooth="yes"/>
			<point x="294" y="-114"/>
			<point x="330" y="-133"/>
			<point x="369" y="-155" type="curve" smooth="yes"/>
			<point x="416" y="-182"/>
			<point x="466" y="-209"/>
			<point x="537" y="-209" type="curve" smooth="yes"/>
			<point x="600" y="-209"/>
			<point x="642" y="-183"/>
			<point x="681" y="-127" type="curve"/>
			<point x="664" y="-115" type="line"/>
			<point x="642" y="-142"/>
			<point x="606" y="-152"/>
			<point x="577" y="-152" type="curve" smooth="yes"/>
			<point x="535" y="-152"/>
			<point x="495" y="-134"/>
			<point x="453" y="-114" type="curve" smooth="yes"/>
			<point x="406" y="-92"/>
			<point x="356" y="-70"/>
			<point x="298" y="-70" type="curve" smooth="yes"/>
			<point x="292" y="-70"/>
			<point x="285" y="-70"/>
			<point x="278" y="-71" type="curve"/>
			<point x="328" y="-35"/>
			<point x="377" y="-14"/>
			<point x="409" y="-5" type="curve"/>
			<point x="578" y="23"/>
			<point x="666" y="166"/>
			<point x="666" y="329" type="curve" smooth="yes"/>
			<point x="666" y="536"/>
			<point x="523" y="658"/>
			<point x="344" y="658" type="curve" smooth="yes"/>
			<point x="150" y="658"/>
			<point x="37" y="504"/>
		</contour>
		<contour>
			<point x="133" y="327" type="curve" smooth="yes"/>
			<point x="133" y="537"/>
			<point x="232" y="622"/>
			<point x="331" y="622" type="curve" smooth="yes"/>
			<point x="463" y="622"/>
			<point x="570" y="512"/>
			<point x="570" y="310" type="curve" smooth="yes"/>
			<point x="570" y="131"/>
			<point x="484" y="26"/>
			<point x="370" y="26" type="curve" smooth="yes"/>
			<point x="248" y="26"/>
			<point x="133" y="135"/>
		</contour>
	</outline>
	<anchor name="m.uni0302" x="348" y="850"/>
	<anchor name="t.uni0315_1" x="620" y="606"/>
	<anchor name="m.uni031A_3" x="619" y="732"/>
	<anchor name="t.uni0302" x="339" y="740"/>
</glyph>
<glyph name="T" format="2">
	<unicode hex="0054"/>
	<advance width="597"/>
	<outline>
		<contour>
			<point x="350" y="122" type="curve" smooth="yes"/>
			<point x="350" y="504" type="line" smooth="yes"/>
			<point x="350" y="568"/>
			<point x="360" y="606"/>
			<point x="396" y="606" type="curve" smooth="yes"/>
			<point x="418" y="606" type="line" smooth="yes"/>
			<point x="493" y="606"/>
			<point x="540" y="580"/>
			<point x="557" y="503" type="curve"/>
			<point x="568" y="503"/>
			<point x="582" y="504"/>
			<point x="591" y="508" type="curve"/>
			<point x="584" y="554"/>
			<point x="579" y="605"/>
			<point x="578" y="650" type="curve"/>
			<point x="578" y="651"/>
			<point x="576" y="653"/>
			<point x="575" y="653" type="curve"/>
			<point x="541" y="650"/>
			<point x="430" y="645"/>
			<point x="351" y="645" type="curve" smooth="yes"/>
			<point x="265" y="645" type="line" smooth="yes"/>
			<point x="188" y="645"/>
			<point x="70" y="650"/>
			<point x="32" y="653" type="curve"/>
			<point x="30" y="653"/>
			<point x="28" y="651"/>
			<point x="28" y="650" type="curve"/>
			<point x="24" y="605"/>
			<point x="14" y="553"/>
			<point x="3" y="505" type="curve"/>
			<point x="13" y="501"/>
			<point x="25" y="500"/>
			<point x="37" y="500" type="curve"/>
			<point x="57" y="580"/>
			<point x="103" y="606"/>
			<point x="169" y="606" type="curve" smooth="yes"/>
			<point x="218" y="606" type="line" smooth="yes"/>
			<point x="255" y="606"/>
			<point x="265" y="568"/>
			<point x="265" y="507" type="curve" smooth="yes"/>
			<point x="265" y="122" type="line" smooth="yes"/>
			<point x="265" y="39"/>
			<point x="248" y="34"/>
			<point x="168" y="31" type="curve"/>
			<point x="162" y="25"/>
			<point x="162" y="4"/>
			<point x="168" y="-2" type="curve"/>
			<point x="217" y="-1"/>
			<point x="268" y="0"/>
			<point x="308" y="0" type="curve" smooth="yes"/>
			<point x="346" y="0"/>
			<point x="397" y="-1"/>
			<point x="447" y="-2" type="curve"/>
			<point x="453" y="4"/>
			<point x="453" y="25"/>
			<point x="447" y="31" type="curve"/>
			<point x="367" y="34"/>
			<point x="350" y="39"/>
		</contour>
	</outline>
	<anchor name="m.uni0302" x="307" y="850"/>
	<anchor name="m.uni0316_2" x="300" y="-110"/>
	<anchor name="m.uni031A_3" x="619" y="732"/>
	<anchor name="t.uni0302" x="308" y="740"/>
</glyph>
<glyph name="U" format="2">
	<unicode hex="0055"/>
	<advance width="661"/>
	<outline>
		<contour>
			<point x="172" y="523" type="line" smooth="yes"/>
			<point x="172" y="606"/>
			<point x="187" y="611"/>
			<point x="264" y="614" type="curve"/>
			<point x="270" y="620"/>
			<point x="270" y="641"/>
			<point x="264" y="647" type="curve"/>
			<point x="217" y="646"/>
			<point x="168" y="645"/>
			<point x="129" y="645" type="curve" smooth="yes"/>
			<point x="90" y="645"/>
			<point x="49" y="646"/>
			<point x="10" y="647" type="curve"/>
			<point x="4" y="641"/>
			<point x="4" y="620"/>
			<point x="10" y="614" type="curve"/>
			<point x="70" y="611"/>
			<point x="87" y="606"/>
			<point x="87" y="523" type="curve" smooth="yes"/>
			<point x="87" y="233" type="line" smooth="yes"/>
			<point x="87" y="29"/>
			<point x="219" y="-10"/>
			<point x="321" y="-10" type="curve" smooth="yes"/>
			<point x="526" y="-10"/>
			<point x="575" y="117"/>
			<point x="575" y="295" type="curve" smooth="yes"/>
			<point x="575" y="523" type="line" smooth="yes"/>
			<point x="575" y="603"/>
			<point x="592" y="607"/>
			<point x="652" y="614" type="curve"/>
			<point x="658" y="620"/>
			<point x="658" y="641"/>
			<point x="652" y="647" type="curve"/>
			<point x="614" y="646"/>
			<point x="573" y="645"/>
			<point x="550" y="645" type="curve" smooth="yes"/>
			<point x="529" y="645"/>
			<point x="480" y="646"/>
			<point x="434" y="647" type="curve"/>
			<point x="428" y="641"/>
			<point x="428" y="620"/>
			<point x="434" y="614" type="curve"/>
			<point x="509" y="607"/>
			<point x="526" y="604"/>
			<point x="526" y="523" type="curve" smooth="yes"/>
			<point x="526" y="277" type="line" smooth="yes"/>
			<point x="526" y="165"/>
			<point x="511" y="31"/>
			<point x="342" y="31" type="curve" smooth="yes"/>
			<point x="200" y="31"/>
			<point x="172" y="148"/>
			<point x="172" y="266" type="curve" smooth="yes"/>
		</contour>
	</outline>
	<anchor name="t.uni0302" x="346" y="740"/>
	<anchor name="m.uni0316_2" x="328" y="-110"/>
</glyph>
<glyph name="Y" format="2">
	<unicode hex="0059"/>
	<advance width="575"/>
	<outline>
		<contour>
			<point x="337" y="122" type="curve" smooth="yes"/>
			<point x="337" y="258" type="line" smooth="yes"/>
			<point x="337" y="288"/>
			<point x="338" y="304"/>
			<point x="355" y="334" type="curve" smooth="yes"/>
			<point x="474" y="550" type="line" smooth="yes"/>
			<point x="502" y="601"/>
			<point x="524" y="610"/>
			<point x="569" y="614" type="curve"/>
			<point x="575" y="620"/>
			<point x="575" y="641"/>
			<point x="569" y="647" type="curve"/>
			<point x="541" y="646"/>
			<point x="509" y="645"/>
			<point x="486" y="645" type="curve" smooth="yes"/>
			<point x="463" y="645"/>
			<point x="427" y="646"/>
			<point x="395" y="647" type="curve"/>
			<point x="389" y="641"/>
			<point x="389" y="620"/>
			<point x="395" y="614" type="curve"/>
			<point x="439" y="611"/>
			<point x="455" y="601"/>
			<point x="434" y="561" type="curve" smooth="yes"/>
			<point x="323" y="352" type="line" smooth="yes"/>
			<point x="315" y="337"/>
			<point x="310" y="338"/>
			<point x="301" y="354" type="curve" smooth="yes"/>
			<point x="185" y="559" type="line" smooth="yes"/>
			<point x="161" y="601"/>
			<point x="165" y="611"/>
			<point x="221" y="614" type="curve"/>
			<point x="227" y="620"/>
			<point x="227" y="641"/>
			<point x="221" y="647" type="curve"/>
			<point x="185" y="646"/>
			<point x="147" y="645"/>
			<point x="107" y="645" type="curve" smooth="yes"/>
			<point x="68" y="645"/>
			<point x="35" y="646"/>
			<point x="5" y="647" type="curve"/>
			<point x="-1" y="641"/>
			<point x="0" y="620"/>
			<point x="6" y="614" type="curve"/>
			<point x="48" y="611"/>
			<point x="65" y="605"/>
			<point x="100" y="547" type="curve" smooth="yes"/>
			<point x="231" y="326" type="line" smooth="yes"/>
			<point x="249" y="297"/>
			<point x="252" y="286"/>
			<point x="252" y="249" type="curve" smooth="yes"/>
			<point x="252" y="122" type="line" smooth="yes"/>
			<point x="252" y="39"/>
			<point x="235" y="34"/>
			<point x="155" y="31" type="curve"/>
			<point x="149" y="25"/>
			<point x="149" y="4"/>
			<point x="155" y="-2" type="curve"/>
			<point x="204" y="-1"/>
			<point x="256" y="0"/>
			<point x="295" y="0" type="curve" smooth="yes"/>
			<point x="334" y="0"/>
			<point x="384" y="-1"/>
			<point x="434" y="-2" type="curve"/>
			<point x="440" y="4"/>
			<point x="440" y="25"/>
			<point x="434" y="31" type="curve"/>
			<point x="354" y="34"/>
			<point x="337" y="39"/>
		</contour>
	</outline>
	<anchor name="m.uni0302" x="295" y="850"/>
	<anchor name="m.uni0316_2" x="295" y="-110"/>
	<anchor name="t.uni0302" x="303" y="740"/>
</glyph>
<glyph name="grave" format="2">
	<unicode hex="0060"/>
	<advance width="392"/>
	<outline>
		<contour>
			<point x="178" y="661" type="line"/>
			<point x="174" y="662"/>
			<point x="168" y="663"/>
			<point x="163" y="663" type="curve" smooth="yes"/>
			<point x="129" y="663"/>
			<point x="106" y="646"/>
			<point x="98" y="640" type="curve"/>
			<point x="96" y="629" type="line"/>
			<point x="210" y="520" type="line" smooth="yes"/>
			<point x="226" y="505"/>
			<point x="233" y="500"/>
			<point x="239" y="500" type="curve" smooth="yes"/>
			<point x="247" y="500"/>
			<point x="254" y="506"/>
			<point x="254" y="511" type="curve" smooth="yes"/>
			<point x="254" y="518"/>
			<point x="253" y="525"/>
			<point x="248" y="535" type="curve"/>
		</contour>
	</outline>
	<anchor name="_t.uni0302" x="175" y="500"/>
</glyph>
<glyph name="a" format="2">
	<unicode hex="0061"/>
	<advance width="457"/>
	<outline>
		<contour>
			<point x="293" y="48" type="line"/>
			<point x="299" y="17"/>
			<point x="310" y="-10"/>
			<point x="360" y="-10" type="curve" smooth="yes"/>
			<point x="398" y="-10"/>
			<point x="434" y="7"/>
			<point x="455" y="27" type="curve"/>
			<point x="453" y="39"/>
			<point x="449" y="48"/>
			<point x="438" y="54" type="curve"/>
			<point x="431" y="48"/>
			<point name=".hr01" x="414" y="38"/>
			<point x="401" y="38" type="curve" smooth="yes"/>
			<point x="372" y="38"/>
			<point x="371" y="77"/>
			<point x="371" y="123" type="curve" smooth="yes"/>
			<point x="371" y="270" type="line" smooth="yes"/>
			<point x="371" y="382"/>
			<point x="320" y="439"/>
			<point x="220" y="439" type="curve" smooth="yes"/>
			<point x="138" y="439"/>
			<point x="55" y="385"/>
			<point x="55" y="328" type="curve" smooth="yes"/>
			<point x="55" y="304"/>
			<point x="67" y="292"/>
			<point x="90" y="292" type="curve" smooth="yes"/>
			<point name=".hr02" x="119" y="292"/>
			<point x="137" y="313"/>
			<point x="137" y="326" type="curve" smooth="yes"/>
			<point x="137" y="333"/>
			<point x="136" y="340"/>
			<point x="134" y="344" type="curve"/>
			<point x="133" y="347"/>
			<point name=".hr03" x="132" y="353"/>
			<point x="132" y="364" type="curve" smooth="yes"/>
			<point x="132" y="395"/>
			<point x="174" y="406"/>
			<point x="212" y="406" type="curve" smooth="yes"/>
			<point x="268" y="406"/>
			<point x="293" y="363"/>
			<point x="293" y="265" type="curve"/>
			<point x="201" y="243" type="line" smooth="yes"/>
			<point x="105" y="219"/>
			<point name=".hr04" x="36" y="166"/>
			<point x="36" y="98" type="curve" smooth="yes"/>
			<point x="36" y="16"/>
			<point x="92" y="-10"/>
			<point x="162" y="-10" type="curve" smooth="yes"/>
			<point x="197" y="-10"/>
			<point x="227" y="-2"/>
			<point x="271" y="32" type="curve" smooth="yes"/>
			<point x="291" y="48" type="line"/>
		</contour>
		<contour>
			<point x="293" y="233" type="line"/>
			<point x="293" y="79" type="line"/>
			<point x="255" y="47"/>
			<point x="222" y="31"/>
			<point x="191" y="31" type="curve" smooth="yes"/>
			<point x="141" y="31"/>
			<point x="119" y="71"/>
			<point x="119" y="102" type="curve" smooth="yes"/>
			<point x="119" y="147"/>
			<point x="140" y="193"/>
			<point x="214" y="212" type="curve" smooth="yes"/>
		</contour>
	</outline>
	<anchor name="t.uni0302" x="209" y="500"/>
	<anchor name="m.uni0316_2" x="196" y="-110"/>
	<anchor name="b.uni0321_4" x="410" y="16"/>
</glyph>
<glyph name="b" format="2">
	<unicode hex="0062"/>
	<advance width="493"/>
	<outline>
		<contour>
			<point x="74" y="0" type="curve"/>
			<point x="79" y="-8"/>
			<point x="84" y="-12"/>
			<point x="96" y="-12" type="curve"/>
			<point x="111" y="0"/>
			<point x="123" y="13"/>
			<point x="134" y="27" type="curve"/>
			<point x="164" y="-3"/>
			<point name=".hr01" x="193" y="-10"/>
			<point x="235" y="-10" type="curve" smooth="yes"/>
			<point x="337" y="-10"/>
			<point x="456" y="83"/>
			<point x="456" y="242" type="curve" smooth="yes"/>
			<point x="456" y="364"/>
			<point x="366" y="439"/>
			<point x="279" y="439" type="curve" smooth="yes"/>
			<point x="220" y="439"/>
			<point x="190" y="413"/>
			<point x="144" y="375" type="curve"/>
			<point x="144" y="336" type="line"/>
			<point x="184" y="372"/>
			<point x="207" y="395"/>
			<point x="259" y="395" type="curve" smooth="yes"/>
			<point x="320" y="395"/>
			<point x="370" y="321"/>
			<point x="370" y="224" type="curve" smooth="yes"/>
			<point x="370" y="110"/>
			<point x="324" y="24"/>
			<point x="229" y="24" type="curve" smooth="yes"/>
			<point x="198" y="24"/>
			<point x="177" y="46"/>
			<point x="157" y="71" type="curve"/>
			<point x="157" y="583" type="line" smooth="yes"/>
			<point x="157" y="648"/>
			<point x="161" y="684"/>
			<point x="161" y="688" type="curve" smooth="yes"/>
			<point x="161" y="695"/>
			<point x="157" y="698"/>
			<point x="148" y="698" type="curve"/>
			<point x="123" y="688"/>
			<point x="48" y="674"/>
			<point x="8" y="671" type="curve"/>
			<point x="6" y="663"/>
			<point x="8" y="647"/>
			<point x="14" y="641" type="curve"/>
			<point x="64" y="639"/>
			<point x="78" y="631"/>
			<point x="78" y="605" type="curve" smooth="yes"/>
			<point x="78" y="71" type="line" smooth="yes"/>
			<point x="78" y="32"/>
			<point x="77" y="14"/>
		</contour>
	</outline>
	<anchor name="m.uni0316_2" x="234" y="-110"/>
	<anchor name="m.uni031A_3" x="420" y="580"/>
</glyph>
<glyph name="c" format="2">
	<unicode hex="0063"/>
	<advance width="428"/>
	<outline>
		<contour>
			<point x="398" y="91" type="curve"/>
			<point x="394" y="100"/>
			<point x="386" y="104"/>
			<point x="377" y="105" type="curve"/>
			<point x="343" y="61"/>
			<point x="300" y="39"/>
			<point x="257" y="39" type="curve" smooth="yes"/>
			<point x="184" y="39"/>
			<point x="123" y="113"/>
			<point x="123" y="230" type="curve" smooth="yes"/>
			<point x="123" y="340"/>
			<point x="171" y="406"/>
			<point x="237" y="406" type="curve" smooth="yes"/>
			<point x="296" y="406"/>
			<point x="304" y="371"/>
			<point x="308" y="336" type="curve" smooth="yes"/>
			<point x="311" y="309"/>
			<point x="325" y="300"/>
			<point x="346" y="300" type="curve" smooth="yes"/>
			<point x="367" y="300"/>
			<point x="395" y="313"/>
			<point x="395" y="344" type="curve" smooth="yes"/>
			<point x="395" y="399"/>
			<point x="338" y="439"/>
			<point x="242" y="439" type="curve" smooth="yes"/>
			<point x="143" y="439"/>
			<point x="37" y="350"/>
			<point x="37" y="208" type="curve" smooth="yes"/>
			<point x="37" y="79"/>
			<point x="109" y="-10"/>
			<point x="235" y="-10" type="curve" smooth="yes"/>
			<point x="295" y="-10"/>
			<point x="348" y="9"/>
		</contour>
	</outline>
	<anchor name="t.uni0302" x="242" y="500"/>
	<anchor name="m.uni0316_2" x="236" y="-110"/>
	<anchor name="b.uni0321_4" x="361" y="42"/>
</glyph>
<glyph name="f" format="2">
	<unicode hex="0066"/>
	<advance width="310"/>
	<outline>
		<contour>
			<point x="175" y="122" type="curve" smooth="yes"/>
			<point x="175" y="390" type="line"/>
			<point x="268" y="390" type="line" smooth="yes"/>
			<point x="277" y="390"/>
			<point x="291" y="394"/>
			<point x="291" y="403" type="curve" smooth="yes"/>
			<point x="291" y="423" type="line" smooth="yes"/>
			<point x="291" y="427"/>
			<point x="288" y="429"/>
			<point x="283" y="429" type="curve" smooth="yes"/>
			<point x="175" y="429" type="line"/>
			<point x="175" y="486" type="line" smooth="yes"/>
			<point x="175" y="640"/>
			<point x="221" y="664"/>
			<point x="254" y="664" type="curve" smooth="yes"/>
			<point x="284" y="664"/>
			<point x="300" y="652"/>
			<point x="314" y="617" type="curve"/>
			<point x="322" y="599"/>
			<point x="333" y="585"/>
			<point x="354" y="585" type="curve" smooth="yes"/>
			<point x="371" y="585"/>
			<point x="395" y="606"/>
			<point x="395" y="626" type="curve" smooth="yes"/>
			<point x="395" y="684"/>
			<point x="316" y="698"/>
			<point x="273" y="698" type="curve" smooth="yes"/>
			<point x="189" y="698"/>
			<point x="96" y="625"/>
			<point x="96" y="469" type="curve" smooth="yes"/>
			<point x="96" y="429" type="line"/>
			<point x="45" y="429" type="line" smooth="yes"/>
			<point x="27" y="429"/>
			<point x="22" y="417"/>
			<point x="22" y="409" type="curve" smooth="yes"/>
			<point x="22" y="396" type="line" smooth="yes"/>
			<point x="22" y="391"/>
			<point x="23" y="390"/>
			<point x="27" y="390" type="curve" smooth="yes"/>
			<point x="96" y="390" type="line"/>
			<point x="96" y="122" type="line" smooth="yes"/>
			<point x="96" y="39"/>
			<point x="80" y="35"/>
			<point x="26" y="31" type="curve"/>
			<point x="20" y="25"/>
			<point x="20" y="4"/>
			<point x="26" y="-2" type="curve"/>
			<point x="61" y="-1"/>
			<point x="96" y="0"/>
			<point x="136" y="0" type="curve" smooth="yes"/>
			<point x="176" y="0"/>
			<point x="224" y="-1"/>
			<point x="259" y="-2" type="curve"/>
			<point x="265" y="4"/>
			<point x="265" y="25"/>
			<point x="259" y="31" type="curve"/>
			<point x="181" y="35"/>
			<point x="175" y="39"/>
		</contour>
	</outline>
	<anchor name="m.uni0316_2" x="132" y="-110"/>
	<anchor name="m.uni031A_3" x="410" y="750"/>
</glyph>
<glyph name="g" format="2">
	<unicode hex="0067"/>
	<advance width="500"/>
	<outline>
		<contour>
			<point x="60" y="287" type="curve" smooth="yes"/>
			<point x="60" y="191"/>
			<point x="141" y="136"/>
			<point x="230" y="136" type="curve" smooth="yes"/>
			<point x="318" y="136"/>
			<point x="399" y="191"/>
			<point x="399" y="289" type="curve" smooth="yes"/>
			<point x="399" y="336"/>
			<point x="385" y="363"/>
			<point x="356" y="393" type="curve"/>
			<point x="363" y="403"/>
			<point x="383" y="417"/>
			<point x="396" y="417" type="curve" smooth="yes"/>
			<point x="403" y="417"/>
			<point x="410" y="414"/>
			<point x="416" y="405" type="curve"/>
			<point x="420" y="397"/>
			<point x="433" y="387"/>
			<point x="444" y="387" type="curve" smooth="yes"/>
			<point x="463" y="387"/>
			<point x="481" y="405"/>
			<point x="481" y="425" type="curve" smooth="yes"/>
			<point x="481" y="446"/>
			<point x="462" y="462"/>
			<point x="435" y="462" type="curve" smooth="yes"/>
			<point x="409" y="462"/>
			<point x="361" y="445"/>
			<point x="335" y="411" type="curve"/>
			<point x="323" y="419"/>
			<point name=".hr01" x="290" y="439"/>
			<point x="231" y="439" type="curve" smooth="yes"/>
			<point x="142" y="439"/>
			<point x="60" y="379"/>
		</contour>
		<contour>
			<point x="32" y="-124" type="curve" smooth="yes"/>
			<point name=".hr02" x="32" y="-211"/>
			<point x="114" y="-238"/>
			<point x="191" y="-238" type="curve" smooth="yes"/>
			<point x="326" y="-238"/>
			<point x="472" y="-173"/>
			<point x="472" y="-65" type="curve" smooth="yes"/>
			<point x="472" y="32"/>
			<point x="356" y="49"/>
			<point x="282" y="49" type="curve" smooth="yes"/>
			<point x="249" y="49"/>
			<point x="213" y="42"/>
			<point x="185" y="42" type="curve" smooth="yes"/>
			<point x="132" y="42"/>
			<point x="101" y="56"/>
			<point x="101" y="99" type="curve" smooth="yes"/>
			<point x="101" y="114"/>
			<point x="123" y="144"/>
			<point x="149" y="169" type="curve"/>
			<point x="124" y="183" type="line"/>
			<point x="80" y="148"/>
			<point x="48" y="103"/>
			<point x="48" y="74" type="curve" smooth="yes"/>
			<point x="48" y="13"/>
			<point x="116" y="-15"/>
			<point x="172" y="-15" type="curve" smooth="yes"/>
			<point x="203" y="-15"/>
			<point x="231" y="-12"/>
			<point x="245" y="-12" type="curve" smooth="yes"/>
			<point x="295" y="-12"/>
			<point x="417" y="-16"/>
			<point x="417" y="-91" type="curve" smooth="yes"/>
			<point x="417" y="-163"/>
			<point x="311" y="-201"/>
			<point x="221" y="-201" type="curve" smooth="yes"/>
			<point x="185" y="-201"/>
			<point x="101" y="-172"/>
			<point x="101" y="-104" type="curve" smooth="yes"/>
			<point x="101" y="-65"/>
			<point x="104" y="-38"/>
			<point x="147" y="6" type="curve"/>
			<point x="131" y="6" type="line"/>
			<point x="66" y="-26"/>
			<point x="32" y="-77"/>
		</contour>
		<contour>
			<point x="142" y="302" type="curve" smooth="yes"/>
			<point x="142" y="372"/>
			<point name=".hr03" x="167" y="408"/>
			<point x="222" y="408" type="curve" smooth="yes"/>
			<point x="285" y="408"/>
			<point x="319" y="362"/>
			<point x="319" y="279" type="curve" smooth="yes"/>
			<point x="319" y="186"/>
			<point x="272" y="167"/>
			<point x="235" y="167" type="curve" smooth="yes"/>
			<point x="151" y="167"/>
			<point x="142" y="238"/>
		</contour>
	</outline>
	<anchor name="m.uni0302" x="231" y="645"/>
	<anchor name="m.uni0316_2" x="229" y="-319"/>
	<anchor name="m.uni031A_3" x="492" y="580"/>
</glyph>
<glyph name="h" format="2">
	<unicode hex="0068"/>
	<advance width="538"/>
	<outline>
		<contour>
			<point x="18" y="-2" type="curve"/>
			<point x="51" y="-1"/>
			<point x="88" y="0"/>
			<point x="128" y="0" type="curve" smooth="yes"/>
			<point x="166" y="0"/>
			<point x="199" y="-1"/>
			<point x="227" y="-2" type="curve"/>
			<point x="233" y="4"/>
			<point x="233" y="25"/>
			<point x="227" y="31" type="curve"/>
			<point x="176" y="35"/>
			<point x="167" y="39"/>
			<point x="167" y="122" type="curve" smooth="yes"/>
			<point x="167" y="583" type="line" smooth="yes"/>
			<point x="167" y="648"/>
			<point x="171" y="684"/>
			<point x="171" y="688" type="curve" smooth="yes"/>
			<point x="171" y="695"/>
			<point x="167" y="698"/>
			<point x="158" y="698" type="curve"/>
			<point x="133" y="688"/>
			<point x="58" y="674"/>
			<point x="18" y="671" type="curve"/>
			<point x="16" y="663"/>
			<point x="18" y="647"/>
			<point x="24" y="641" type="curve"/>
			<point x="77" y="637"/>
			<point x="88" y="623"/>
			<point x="88" y="559" type="curve" smooth="yes"/>
			<point x="88" y="122" type="line" smooth="yes"/>
			<point x="88" y="39"/>
			<point x="76" y="35"/>
			<point x="18" y="31" type="curve"/>
			<point x="12" y="25"/>
			<point x="12" y="4"/>
		</contour>
		<contour>
			<point x="315" y="-2" type="curve"/>
			<point x="343" y="-1"/>
			<point x="377" y="0"/>
			<point x="417" y="0" type="curve" smooth="yes"/>
			<point x="457" y="0"/>
			<point x="490" y="-1"/>
			<point x="523" y="-2" type="curve"/>
			<point x="528" y="4"/>
			<point x="528" y="25"/>
			<point x="523" y="31" type="curve"/>
			<point x="467" y="36"/>
			<point x="456" y="40"/>
			<point x="456" y="122" type="curve" smooth="yes"/>
			<point x="456" y="271" type="line" smooth="yes"/>
			<point x="456" y="354"/>
			<point x="450" y="439"/>
			<point x="346" y="439" type="curve" smooth="yes"/>
			<point x="260" y="439"/>
			<point x="211" y="400"/>
			<point x="155" y="334" type="curve"/>
			<point x="157" y="298" type="line"/>
			<point x="195" y="343"/>
			<point x="249" y="387"/>
			<point x="312" y="387" type="curve" smooth="yes"/>
			<point x="370" y="387"/>
			<point x="377" y="317"/>
			<point x="377" y="274" type="curve" smooth="yes"/>
			<point x="377" y="122" type="line" smooth="yes"/>
			<point x="377" y="40"/>
			<point x="367" y="36"/>
			<point x="315" y="31" type="curve"/>
			<point x="310" y="25"/>
			<point x="310" y="4"/>
		</contour>
	</outline>
	<anchor name="m.uni0302" x="299" y="645"/>
	<anchor name="m.uni0316_2" x="272" y="-110"/>
	<anchor name="m.uni031A_3" x="429" y="580"/>
	<anchor name="b.uni0321_4" x="423" y="10"/>
</glyph>
<glyph name="l" format="2">
	<unicode hex="006C"/>
	<advance width="264"/>
	<outline>
		<contour>
			<point x="95" y="122" type="line" smooth="yes"/>
			<point x="95" y="39"/>
			<point x="84" y="34"/>
			<point x="23" y="31" type="curve"/>
			<point x="17" y="25"/>
			<point x="17" y="4"/>
			<point x="23" y="-2" type="curve"/>
			<point x="58" y="-1"/>
			<point x="95" y="0"/>
			<point x="135" y="0" type="curve" smooth="yes"/>
			<point x="175" y="0"/>
			<point x="213" y="-1"/>
			<point x="246" y="-2" type="curve"/>
			<point x="252" y="4"/>
			<point x="252" y="25"/>
			<point x="246" y="31" type="curve"/>
			<point x="185" y="34"/>
			<point x="174" y="39"/>
			<point x="174" y="122" type="curve" smooth="yes"/>
			<point x="174" y="583" type="line" smooth="yes"/>
			<point x="174" y="648"/>
			<point x="178" y="684"/>
			<point x="178" y="690" type="curve" smooth="yes"/>
			<point x="178" y="695"/>
			<point x="174" y="698"/>
			<point x="165" y="698" type="curve"/>
			<point x="140" y="688"/>
			<point x="65" y="674"/>
			<point x="25" y="671" type="curve"/>
			<point x="23" y="663"/>
			<point x="25" y="647"/>
			<point x="31" y="641" type="curve"/>
			<point x="89" y="637"/>
			<point x="95" y="634"/>
			<point x="95" y="559" type="curve" smooth="yes"/>
		</contour>
	</outline>
	<anchor name="m.uni0302" x="135" y="885"/>
	<anchor name="m.uni0316_2" x="135" y="-110"/>
	<anchor name="m.uni031A_3" x="249" y="733"/>
</glyph>
<glyph name="n" format="2">
	<unicode hex="006E"/>
	<advance width="542"/>
	<outline>
		<contour>
			<point x="26" y="-2" type="curve"/>
			<point x="56" y="-1"/>
			<point x="96" y="0"/>
			<point x="136" y="0" type="curve" smooth="yes"/>
			<point x="176" y="0"/>
			<point x="206" y="-1"/>
			<point x="236" y="-2" type="curve"/>
			<point x="242" y="4"/>
			<point x="242" y="25"/>
			<point x="236" y="31" type="curve"/>
			<point x="185" y="36"/>
			<point x="175" y="40"/>
			<point x="175" y="122" type="curve" smooth="yes"/>
			<point x="175" y="311" type="line"/>
			<point x="212" y="348"/>
			<point x="258" y="387"/>
			<point x="314" y="387" type="curve" smooth="yes"/>
			<point x="372" y="387"/>
			<point x="379" y="317"/>
			<point x="379" y="274" type="curve" smooth="yes"/>
			<point x="379" y="122" type="line" smooth="yes"/>
			<point x="379" y="40"/>
			<point x="369" y="36"/>
			<point x="317" y="31" type="curve"/>
			<point x="312" y="25"/>
			<point x="312" y="4"/>
			<point x="317" y="-2" type="curve"/>
			<point x="347" y="-1"/>
			<point x="379" y="0"/>
			<point x="419" y="0" type="curve" smooth="yes"/>
			<point x="459" y="0"/>
			<point x="495" y="-1"/>
			<point x="525" y="-2" type="curve"/>
			<point x="530" y="4"/>
			<point x="530" y="25"/>
			<point x="525" y="31" type="curve"/>
			<point x="469" y="36"/>
			<point x="458" y="40"/>
			<point x="458" y="122" type="curve" smooth="yes"/>
			<point x="458" y="271" type="line" smooth="yes"/>
			<point x="458" y="354"/>
			<point x="451" y="439"/>
			<point x="348" y="439" type="curve" smooth="yes"/>
			<point x="299" y="439"/>
			<point x="223" y="404"/>
			<point x="164" y="336" type="curve"/>
			<point x="173" y="336" type="line"/>
			<point x="172" y="363"/>
			<point x="169" y="424"/>
			<point x="164" y="434" type="curve"/>
			<point x="162" y="439"/>
			<point x="160" y="442"/>
			<point x="152" y="442" type="curve"/>
			<point x="124" y="431"/>
			<point x="98" y="422"/>
			<point x="29" y="413" type="curve"/>
			<point x="27" y="407"/>
			<point x="29" y="391"/>
			<point x="31" y="385" type="curve"/>
			<point x="85" y="380"/>
			<point x="96" y="375"/>
			<point x="96" y="317" type="curve" smooth="yes"/>
			<point x="96" y="122" type="line" smooth="yes"/>
			<point x="96" y="40"/>
			<point x="86" y="36"/>
			<point x="26" y="31" type="curve"/>
			<point x="20" y="25"/>
			<point x="20" y="4"/>
		</contour>
	</outline>
	<anchor name="t.uni0302" x="254" y="500"/>
	<anchor name="m.uni0316_2" x="265" y="-110"/>
</glyph>
<glyph name="t" format="2">
	<unicode hex="0074"/>
	<advance width="316"/>
	<outline>
		<contour>
			<point x="65" y="429" type="line" smooth="yes"/>
			<point x="51" y="429"/>
			<point x="35" y="422"/>
			<point x="25" y="414" type="curve"/>
			<point x="25" y="396" type="line" smooth="yes"/>
			<point x="25" y="391"/>
			<point x="26" y="390"/>
			<point x="30" y="390" type="curve" smooth="yes"/>
			<point x="89" y="390" type="line"/>
			<point x="89" y="89" type="line" smooth="yes"/>
			<point x="89" y="18"/>
			<point x="120" y="-10"/>
			<point x="166" y="-10" type="curve" smooth="yes"/>
			<point x="212" y="-10"/>
			<point x="262" y="12"/>
			<point x="301" y="56" type="curve"/>
			<point x="299" y="66"/>
			<point x="293" y="72"/>
			<point x="283" y="73" type="curve"/>
			<point x="257" y="53"/>
			<point x="227" y="45"/>
			<point x="201" y="45" type="curve" smooth="yes"/>
			<point x="174" y="45"/>
			<point x="168" y="75"/>
			<point x="168" y="137" type="curve" smooth="yes"/>
			<point x="168" y="390" type="line"/>
			<point x="272" y="390" type="line" smooth="yes"/>
			<point x="282" y="390"/>
			<point x="296" y="394"/>
			<point x="296" y="403" type="curve" smooth="yes"/>
			<point x="296" y="423" type="line" smooth="yes"/>
			<point x="296" y="427"/>
			<point x="293" y="429"/>
			<point x="288" y="429" type="curve" smooth="yes"/>
			<point x="168" y="429" type="line"/>
			<point x="169" y="468" type="line" smooth="yes"/>
			<point x="171" y="533"/>
			<point x="176" y="569"/>
			<point x="176" y="573" type="curve" smooth="yes"/>
			<point x="176" y="579"/>
			<point x="173" y="582"/>
			<point x="168" y="582" type="curve" smooth="yes"/>
			<point x="163" y="582"/>
			<point x="97" y="552"/>
			<point x="95" y="545" type="curve"/>
			<point x="92" y="532"/>
			<point x="89" y="487"/>
			<point x="89" y="429" type="curve"/>
		</contour>
	</outline>
	<anchor name="m.uni0316_2" x="163" y="-110"/>
	<anchor name="m.uni031A_3" x="279" y="580"/>
	<anchor name="b.uni0321_4" x="237" y="15"/>
	<anchor name="t.uni0302" x="131" y="650"/>
</glyph>
<glyph name="z" format="2">
	<unicode hex="007A"/>
	<advance width="424"/>
	<outline>
		<contour>
			<point x="71" y="439" type="curve"/>
			<point x="69" y="439"/>
			<point x="65" y="435"/>
			<point x="65" y="433" type="curve"/>
			<point x="64" y="388"/>
			<point x="59" y="353"/>
			<point x="50" y="304" type="curve"/>
			<point x="59" y="300"/>
			<point x="71" y="298"/>
			<point x="83" y="301" type="curve"/>
			<point x="103" y="374"/>
			<point x="134" y="391"/>
			<point x="164" y="392" type="curve" smooth="yes"/>
			<point x="291" y="396" type="line"/>
			<point x="293" y="394" type="line"/>
			<point x="46" y="32" type="line" smooth="yes"/>
			<point x="38" y="20"/>
			<point x="37" y="17"/>
			<point x="37" y="12" type="curve" smooth="yes"/>
			<point x="37" y="5"/>
			<point x="45" y="0"/>
			<point x="60" y="0" type="curve"/>
			<point x="372" y="-3" type="line"/>
			<point x="384" y="31"/>
			<point x="397" y="83"/>
			<point x="404" y="133" type="curve"/>
			<point x="398" y="137"/>
			<point x="386" y="139"/>
			<point x="374" y="139" type="curve"/>
			<point x="360" y="110" type="line" smooth="yes"/>
			<point x="335" y="57"/>
			<point x="314" y="35"/>
			<point x="262" y="34" type="curve" smooth="yes"/>
			<point x="129" y="33" type="line"/>
			<point x="129" y="35" type="line"/>
			<point x="379" y="404" type="line" smooth="yes"/>
			<point x="385" y="413"/>
			<point x="387" y="420"/>
			<point x="387" y="424" type="curve" smooth="yes"/>
			<point x="387" y="428"/>
			<point x="382" y="431"/>
			<point x="375" y="431" type="curve" smooth="yes"/>
			<point x="370" y="431"/>
			<point x="342" y="429"/>
			<point x="313" y="429" type="curve" smooth="yes"/>
			<point x="130" y="429" type="line" smooth="yes"/>
			<point x="98" y="429"/>
			<point x="86" y="434"/>
		</contour>
	</outline>
	<anchor name="t.uni0302" x="220" y="500"/>
	<anchor name="m.uni0316_2" x="207" y="-110"/>
	<anchor name="m.uni031A_3" x="399" y="580"/>
</glyph>
<glyph name="cent" format="2">
	<unicode hex="00A2"/>
	<advance width="465"/>
	<outline>
		<contour>
			<point x="232" y="611" type="line"/>
			<point x="232" y="511" type="line"/>
			<point x="148" y="495"/>
			<point x="69" y="415"/>
			<point x="69" y="295" type="curve" smooth="yes"/>
			<point x="69" y="288"/>
			<point x="69" y="282"/>
			<point x="70" y="275" type="curve"/>
			<point x="73" y="217"/>
			<point x="93" y="169"/>
			<point x="127" y="136" type="curve" smooth="yes"/>
			<point x="154" y="110"/>
			<point x="189" y="94"/>
			<point x="232" y="89" type="curve"/>
			<point x="232" y="-13" type="line"/>
			<point x="268" y="-13" type="line"/>
			<point x="268" y="88" type="line"/>
			<point x="321" y="90"/>
			<point x="368" y="110"/>
			<point x="412" y="184" type="curve"/>
			<point x="409" y="192"/>
			<point x="401" y="196"/>
			<point x="392" y="197" type="curve"/>
			<point x="368" y="166"/>
			<point x="339" y="146"/>
			<point x="309" y="138" type="curve"/>
			<point x="299" y="135"/>
			<point x="288" y="134"/>
			<point x="278" y="134" type="curve" smooth="yes"/>
			<point x="275" y="134"/>
			<point x="271" y="134"/>
			<point x="268" y="135" type="curve"/>
			<point x="268" y="483" type="line"/>
			<point x="308" y="480"/>
			<point x="320" y="458"/>
			<point x="325" y="432" type="curve" smooth="yes"/>
			<point x="326" y="427"/>
			<point x="326" y="422"/>
			<point x="327" y="417" type="curve"/>
			<point x="330" y="391"/>
			<point x="343" y="382"/>
			<point x="363" y="382" type="curve" smooth="yes"/>
			<point x="383" y="382"/>
			<point name=".hr01" x="410" y="395"/>
			<point x="410" y="424" type="curve"/>
			<point x="410" y="424"/>
			<point x="410" y="424"/>
			<point x="410" y="424" type="curve"/>
			<point x="410" y="476"/>
			<point x="357" y="513"/>
			<point name=".hr02" x="268" y="514" type="curve"/>
			<point x="268" y="611" type="line"/>
		</contour>
		<contour>
			<point x="232" y="145" type="line"/>
			<point x="185" y="169"/>
			<point x="151" y="231"/>
			<point x="151" y="316" type="curve" smooth="yes"/>
			<point x="151" y="404"/>
			<point x="184" y="463"/>
			<point x="232" y="479" type="curve"/>
		</contour>
	</outline>
</glyph>
<glyph name="yen" format="2">
	<unicode hex="00A5"/>
	<advance width="465"/>
	<outline>
		<contour>
			<point x="423" y="167" type="line" smooth="yes"/>
			<point x="423" y="171"/>
			<point x="419" y="173"/>
			<point x="415" y="173" type="curve" smooth="yes"/>
			<point x="276" y="173" type="line"/>
			<point x="276" y="245" type="line"/>
			<point x="398" y="245" type="line" smooth="yes"/>
			<point x="409" y="245"/>
			<point x="423" y="249"/>
			<point x="423" y="259" type="curve" smooth="yes"/>
			<point x="423" y="278" type="line" smooth="yes"/>
			<point x="423" y="280"/>
			<point x="422" y="282"/>
			<point x="421" y="283" type="curve"/>
			<point x="419" y="284"/>
			<point x="417" y="284"/>
			<point x="415" y="284" type="curve" smooth="yes"/>
			<point x="286" y="284" type="line"/>
			<point x="297" y="308"/>
			<point x="308" y="332"/>
			<point x="319" y="356" type="curve" smooth="yes"/>
			<point x="378" y="487" type="line"/>
			<point x="382" y="495"/>
			<point x="385" y="502"/>
			<point x="388" y="509" type="curve"/>
			<point x="412" y="561"/>
			<point x="417" y="565"/>
			<point x="464" y="569" type="curve"/>
			<point x="470" y="575"/>
			<point x="472" y="596"/>
			<point x="466" y="602" type="curve"/>
			<point x="434" y="601"/>
			<point x="416" y="600"/>
			<point x="399" y="600" type="curve" smooth="yes"/>
			<point x="396" y="600"/>
			<point x="392" y="600"/>
			<point x="387" y="600" type="curve" smooth="yes"/>
			<point x="370" y="600"/>
			<point x="346" y="601"/>
			<point x="320" y="602" type="curve"/>
			<point x="314" y="596"/>
			<point x="314" y="575"/>
			<point x="320" y="569" type="curve"/>
			<point x="351" y="567"/>
			<point x="361" y="564"/>
			<point x="357" y="545" type="curve"/>
			<point x="355" y="533"/>
			<point x="348" y="516"/>
			<point x="336" y="490" type="curve"/>
			<point x="336" y="489"/>
			<point x="335" y="488"/>
			<point x="335" y="487" type="curve"/>
			<point x="282" y="365" type="line"/>
			<point x="258" y="311" type="line"/>
			<point x="257" y="311"/>
			<point x="257" y="311"/>
			<point x="256" y="311" type="curve"/>
			<point x="252" y="320"/>
			<point x="247" y="329"/>
			<point x="243" y="339" type="curve"/>
			<point x="156" y="517" type="line"/>
			<point x="149" y="531" type="line" smooth="yes"/>
			<point x="132" y="566"/>
			<point x="143" y="569"/>
			<point x="179" y="569" type="curve"/>
			<point x="185" y="575"/>
			<point x="185" y="596"/>
			<point x="179" y="602" type="curve"/>
			<point x="163" y="602"/>
			<point x="142" y="601"/>
			<point x="125" y="601" type="curve"/>
			<point x="107" y="600"/>
			<point x="93" y="600"/>
			<point x="90" y="600" type="curve" smooth="yes"/>
			<point x="76" y="600"/>
			<point x="32" y="601"/>
			<point x="0" y="602" type="curve"/>
			<point x="-6" y="596"/>
			<point x="-6" y="575"/>
			<point x="0" y="569" type="curve"/>
			<point x="41" y="565"/>
			<point x="62" y="541"/>
			<point x="80" y="503" type="curve"/>
			<point x="82" y="498"/>
			<point x="84" y="494"/>
			<point x="87" y="489" type="curve"/>
			<point x="167" y="325" type="line" smooth="yes"/>
			<point x="174" y="311"/>
			<point x="180" y="298"/>
			<point x="187" y="284" type="curve"/>
			<point x="68" y="284" type="line" smooth="yes"/>
			<point x="50" y="284"/>
			<point x="44" y="271"/>
			<point x="44" y="263" type="curve" smooth="yes"/>
			<point x="44" y="251" type="line" smooth="yes"/>
			<point x="44" y="249"/>
			<point x="44" y="247"/>
			<point x="45" y="246" type="curve" smooth="yes"/>
			<point x="46" y="245"/>
			<point x="48" y="245"/>
			<point x="50" y="245" type="curve" smooth="yes"/>
			<point x="191" y="245" type="line"/>
			<point x="191" y="173" type="line"/>
			<point x="68" y="173" type="line" smooth="yes"/>
			<point x="50" y="173"/>
			<point x="44" y="162"/>
			<point x="44" y="154" type="curve" smooth="yes"/>
			<point x="44" y="141" type="line" smooth="yes"/>
			<point x="44" y="139"/>
			<point x="44" y="137"/>
			<point x="45" y="136" type="curve" smooth="yes"/>
			<point x="46" y="135"/>
			<point x="48" y="134"/>
			<point x="50" y="134" type="curve" smooth="yes"/>
			<point x="191" y="134" type="line"/>
			<point x="191" y="127" type="line" smooth="yes"/>
			<point x="191" y="39"/>
			<point x="174" y="34"/>
			<point x="89" y="31" type="curve"/>
			<point x="83" y="25"/>
			<point x="83" y="4"/>
			<point x="89" y="-2" type="curve"/>
			<point x="141" y="-1"/>
			<point x="178" y="0"/>
			<point x="235" y="0" type="curve" smooth="yes"/>
			<point x="253" y="0" type="line" smooth="yes"/>
			<point x="299" y="0"/>
			<point x="331" y="-1"/>
			<point x="378" y="-2" type="curve"/>
			<point x="384" y="4"/>
			<point x="384" y="25"/>
			<point x="378" y="31" type="curve"/>
			<point x="293" y="34"/>
			<point x="276" y="39"/>
			<point x="276" y="127" type="curve" smooth="yes"/>
			<point x="276" y="134" type="line"/>
			<point x="398" y="134" type="line" smooth="yes"/>
			<point x="409" y="134"/>
			<point x="423" y="138"/>
			<point x="423" y="148" type="curve" smooth="yes"/>
		</contour>
	</outline>
</glyph>
<glyph name="brokenbar" format="2">
	<unicode hex="00A6"/>
	<advance width="211"/>
	<outline>
		<contour>
			<point x="130" y="161" type="line"/>
			<point x="81" y="161" type="line"/>
			<point x="81" y="-201" type="line"/>
			<point x="130" y="-201" type="line"/>
		</contour>
		<contour>
			<point x="130" y="674" type="line"/>
			<point x="81" y="674" type="line"/>
			<point x="81" y="312" type="line"/>
			<point x="130" y="312" type="line"/>
		</contour>
	</outline>
</glyph>
<glyph name="dieresis" format="2">
	<unicode hex="00A8"/>
	<advance width="380"/>
	<outline>
		<contour>
			<point x="58" y="577" type="curve" smooth="yes"/>
			<point x="58" y="551"/>
			<point x="79" y="530"/>
			<point x="105" y="530" type="curve" smooth="yes"/>
			<point x="131" y="530"/>
			<point x="152" y="551"/>
			<point x="152" y="577" type="curve" smooth="yes"/>
			<point x="152" y="603"/>
			<point x="131" y="625"/>
			<point x="105" y="625" type="curve" smooth="yes"/>
			<point x="79" y="625"/>
			<point x="58" y="603"/>
		</contour>
		<contour>
			<point x="228" y="577" type="curve" smooth="yes"/>
			<point x="228" y="551"/>
			<point x="249" y="530"/>
			<point x="275" y="530" type="curve" smooth="yes"/>
			<point x="301" y="530"/>
			<point x="322" y="551"/>
			<point x="322" y="577" type="curve" smooth="yes"/>
			<point x="322" y="603"/>
			<point x="301" y="625"/>
			<point x="275" y="625" type="curve" smooth="yes"/>
			<point x="249" y="625"/>
			<point x="228" y="603"/>
		</contour>
	</outline>
	<anchor name="_t.uni0302" x="190" y="530"/>
	<guideline x="190" y="0" angle="90"/>
	<guideline x="0" y="530" angle="0"/>
</glyph>
<glyph name="copyright" format="2">
	<unicode hex="00A9"/>
	<advance width="695"/>
	<outline>
		<contour>
			<point x="321" y="23" type="curve" smooth="yes"/>
			<point x="477" y="23"/>
			<point x="608" y="150"/>
			<point x="608" y="306" type="curve" smooth="yes"/>
			<point x="608" y="462"/>
			<point x="477" y="588"/>
			<point x="321" y="588" type="curve" smooth="yes"/>
			<point x="165" y="588"/>
			<point x="34" y="462"/>
			<point x="34" y="306" type="curve" smooth="yes"/>
			<point x="34" y="151"/>
			<point x="164" y="23"/>
		</contour>
		<contour>
			<point x="321" y="556" type="curve" smooth="yes"/>
			<point x="460" y="556"/>
			<point x="568" y="445"/>
			<point x="568" y="306" type="curve" smooth="yes"/>
			<point x="568" y="167"/>
			<point x="459" y="55"/>
			<point x="321" y="55" type="curve" smooth="yes"/>
			<point x="181" y="55"/>
			<point x="74" y="168"/>
			<point x="74" y="306" type="curve" smooth="yes"/>
			<point x="74" y="445"/>
			<point x="181" y="556"/>
		</contour>
		<contour>
			<point x="439" y="216" type="curve"/>
			<point x="434" y="222"/>
			<point x="430" y="228"/>
			<point x="420" y="231" type="curve"/>
			<point x="410" y="217"/>
			<point x="387" y="188"/>
			<point x="346" y="182" type="curve"/>
			<point x="341" y="181"/>
			<point x="336" y="181"/>
			<point x="330" y="181" type="curve" smooth="yes"/>
			<point x="274" y="181"/>
			<point x="232" y="238"/>
			<point x="232" y="311" type="curve" smooth="yes"/>
			<point x="232" y="409"/>
			<point x="279" y="434"/>
			<point x="319" y="434" type="curve" smooth="yes"/>
			<point x="376" y="434"/>
			<point x="393" y="401"/>
			<point x="410" y="355" type="curve"/>
			<point x="418" y="355"/>
			<point x="425" y="356"/>
			<point x="430" y="359" type="curve"/>
			<point x="430" y="360"/>
			<point x="430" y="360"/>
			<point x="430" y="361" type="curve"/>
			<point x="431" y="384"/>
			<point x="432" y="406"/>
			<point x="430" y="442" type="curve"/>
			<point x="410" y="444"/>
			<point x="393" y="457"/>
			<point x="323" y="457" type="curve" smooth="yes"/>
			<point x="275" y="457"/>
			<point x="230" y="438"/>
			<point x="201" y="406" type="curve" smooth="yes"/>
			<point x="177" y="379"/>
			<point x="165" y="342"/>
			<point x="165" y="304" type="curve" smooth="yes"/>
			<point x="165" y="263"/>
			<point x="181" y="224"/>
			<point x="210" y="195" type="curve" smooth="yes"/>
			<point x="213" y="192"/>
			<point x="216" y="190"/>
			<point x="219" y="187" type="curve"/>
			<point x="246" y="165"/>
			<point x="282" y="152"/>
			<point x="321" y="152" type="curve" smooth="yes"/>
			<point x="376" y="152"/>
			<point x="419" y="185"/>
		</contour>
	</outline>
</glyph>
<glyph name="ordfeminine" format="2">
	<unicode hex="00AA"/>
	<advance width="307"/>
	<outline>
		<contour>
			<point x="192" y="529" type="curve"/>
			<point x="134" y="514" type="line" smooth="yes"/>
			<point x="71" y="498"/>
			<point x="31" y="470"/>
			<point x="31" y="428" type="curve"/>
			<point x="31" y="428"/>
			<point x="31" y="428"/>
			<point x="31" y="428" type="curve"/>
			<point x="31" y="405"/>
			<point x="41" y="386"/>
			<point x="57" y="374" type="curve" smooth="yes"/>
			<point x="71" y="364"/>
			<point x="89" y="358"/>
			<point x="108" y="358" type="curve" smooth="yes"/>
			<point x="141" y="358"/>
			<point x="159" y="367"/>
			<point x="193" y="397" type="curve"/>
			<point x="195" y="384"/>
			<point x="203" y="370"/>
			<point x="216" y="363" type="curve"/>
			<point x="222" y="360"/>
			<point x="228" y="358"/>
			<point x="235" y="358" type="curve" smooth="yes"/>
			<point x="254" y="358"/>
			<point x="273" y="370"/>
			<point x="282" y="380" type="curve"/>
			<point x="283" y="388"/>
			<point x="279" y="393"/>
			<point x="272" y="396" type="curve"/>
			<point x="269" y="393"/>
			<point name=".hr01" x="264" y="391"/>
			<point x="260" y="391" type="curve" smooth="yes"/>
			<point x="252" y="391"/>
			<point x="248" y="403"/>
			<point x="246" y="432" type="curve"/>
			<point x="246" y="437"/>
			<point x="246" y="442"/>
			<point x="246" y="448" type="curve" smooth="yes"/>
			<point x="246" y="515" type="line" smooth="yes"/>
			<point x="246" y="517"/>
			<point x="246" y="520"/>
			<point x="246" y="523" type="curve" smooth="yes"/>
			<point x="246" y="570"/>
			<point x="232" y="599"/>
			<point x="211" y="615" type="curve"/>
			<point x="193" y="630"/>
			<point x="170" y="636"/>
			<point x="147" y="637" type="curve"/>
			<point x="145" y="637"/>
			<point x="142" y="637"/>
			<point x="140" y="637" type="curve" smooth="yes"/>
			<point x="98" y="637"/>
			<point x="36" y="604"/>
			<point x="36" y="564" type="curve" smooth="yes"/>
			<point x="36" y="549"/>
			<point x="47" y="539"/>
			<point x="62" y="539" type="curve"/>
			<point x="62" y="539"/>
			<point x="62" y="539"/>
			<point x="62" y="539" type="curve"/>
			<point x="81" y="539"/>
			<point x="88" y="552"/>
			<point x="88" y="560" type="curve" smooth="yes"/>
			<point x="88" y="563"/>
			<point x="88" y="565"/>
			<point x="87" y="567" type="curve"/>
			<point x="87" y="569"/>
			<point x="87" y="571"/>
			<point x="86" y="572" type="curve"/>
			<point x="85" y="574"/>
			<point x="84" y="578"/>
			<point x="84" y="585" type="curve" smooth="yes"/>
			<point x="84" y="601"/>
			<point x="105" y="612"/>
			<point x="138" y="612" type="curve" smooth="yes"/>
			<point x="161" y="612"/>
			<point x="192" y="604"/>
		</contour>
		<contour>
			<point x="192" y="423" type="line"/>
			<point x="166" y="400"/>
			<point x="149" y="390"/>
			<point name=".hr02" x="128" y="390" type="curve" smooth="yes"/>
			<point x="94" y="390"/>
			<point x="83" y="410"/>
			<point x="83" y="431" type="curve" smooth="yes"/>
			<point x="83" y="462"/>
			<point x="107" y="480"/>
			<point x="192" y="502" type="curve"/>
		</contour>
	</outline>
</glyph>
<glyph name="logicalnot" format="2">
	<unicode hex="00AC"/>
	<advance width="599"/>
	<outline>
		<contour>
			<point x="499" y="99" type="line"/>
			<point x="518" y="90"/>
			<point x="536" y="93"/>
			<point x="553" y="99" type="curve"/>
			<point x="553" y="367" type="line"/>
			<point x="40" y="367" type="line"/>
			<point x="33" y="349"/>
			<point x="36" y="336"/>
			<point x="40" y="323" type="curve"/>
			<point x="499" y="323" type="line"/>
		</contour>
	</outline>
</glyph>
<glyph name="uni00AD" format="2">
	<unicode hex="00AD"/>
	<advance width="338"/>
	<outline>
		<contour>
			<point x="271" y="223" type="line" smooth="yes"/>
			<point x="284" y="223"/>
			<point x="298" y="251"/>
			<point x="298" y="263" type="curve" smooth="yes"/>
			<point x="298" y="273"/>
			<point x="294" y="283"/>
			<point x="284" y="283" type="curve" smooth="yes"/>
			<point x="65" y="283" type="line" smooth="yes"/>
			<point x="53" y="283"/>
			<point x="40" y="260"/>
			<point x="40" y="242" type="curve" smooth="yes"/>
			<point x="40" y="232"/>
			<point x="46" y="223"/>
			<point x="55" y="223" type="curve" smooth="yes"/>
		</contour>
	</outline>
</glyph>
<glyph name="uni00B2" format="2">
	<unicode hex="00B2"/>
	<advance width="307"/>
	<outline>
		<contour>
			<point x="47" y="611" type="curve" smooth="yes"/>
			<point x="47" y="598"/>
			<point x="61" y="587"/>
			<point x="73" y="587" type="curve" smooth="yes"/>
			<point x="83" y="587"/>
			<point x="97" y="590"/>
			<point x="100" y="608" type="curve"/>
			<point x="101" y="611"/>
			<point x="100" y="615"/>
			<point x="100" y="619" type="curve" smooth="yes"/>
			<point x="100" y="623"/>
			<point x="100" y="627"/>
			<point x="101" y="631" type="curve"/>
			<point x="101" y="633"/>
			<point x="101" y="635"/>
			<point x="102" y="637" type="curve"/>
			<point x="103" y="640"/>
			<point x="105" y="644"/>
			<point x="108" y="646" type="curve"/>
			<point x="115" y="653"/>
			<point x="128" y="658"/>
			<point x="150" y="658" type="curve" smooth="yes"/>
			<point x="157" y="658"/>
			<point x="167" y="657"/>
			<point x="175" y="653" type="curve"/>
			<point x="188" y="646"/>
			<point x="200" y="632"/>
			<point x="200" y="604" type="curve" smooth="yes"/>
			<point x="200" y="560"/>
			<point x="184" y="537"/>
			<point x="154" y="510" type="curve" smooth="yes"/>
			<point x="147" y="504"/>
			<point x="139" y="498"/>
			<point x="131" y="491" type="curve"/>
			<point x="120" y="483"/>
			<point x="110" y="474"/>
			<point x="101" y="466" type="curve"/>
			<point x="68" y="435"/>
			<point x="45" y="401"/>
			<point x="45" y="364" type="curve"/>
			<point x="251" y="364" type="line"/>
			<point x="260" y="391"/>
			<point x="266" y="422"/>
			<point x="270" y="458" type="curve"/>
			<point x="265" y="462"/>
			<point name=".hr01" x="257" y="463"/>
			<point x="246" y="463" type="curve"/>
			<point x="235" y="435"/>
			<point name=".hr02" x="221" y="396"/>
			<point x="190" y="396" type="curve" smooth="yes"/>
			<point x="107" y="396" type="line"/>
			<point x="113" y="419"/>
			<point x="122" y="439"/>
			<point x="141" y="459" type="curve" smooth="yes"/>
			<point x="150" y="468"/>
			<point x="160" y="477"/>
			<point x="173" y="486" type="curve"/>
			<point x="182" y="493" type="line"/>
			<point x="203" y="508"/>
			<point x="220" y="522"/>
			<point x="233" y="537" type="curve" smooth="yes"/>
			<point x="252" y="558"/>
			<point x="262" y="579"/>
			<point x="262" y="605" type="curve" smooth="yes"/>
			<point x="262" y="637"/>
			<point x="248" y="658"/>
			<point x="227" y="671" type="curve"/>
			<point x="206" y="683"/>
			<point x="179" y="688"/>
			<point x="154" y="688" type="curve" smooth="yes"/>
			<point x="75" y="688"/>
			<point x="47" y="637"/>
		</contour>
	</outline>
</glyph>
<glyph name="paragraph" format="2">
	<unicode hex="00B6"/>
	<advance width="602"/>
	<outline>
		<contour>
			<point x="498" y="-161" type="curve" smooth="yes"/>
			<point x="498" y="574" type="line" smooth="yes"/>
			<point x="498" y="604"/>
			<point x="513" y="613"/>
			<point x="553" y="616" type="curve" smooth="yes"/>
			<point x="579" y="618" type="line"/>
			<point x="583" y="618"/>
			<point x="587" y="621"/>
			<point x="587" y="626" type="curve" smooth="yes"/>
			<point x="587" y="645" type="line"/>
			<point x="585" y="647" type="line"/>
			<point x="556" y="646"/>
			<point x="521" y="645"/>
			<point x="482" y="645" type="curve" smooth="yes"/>
			<point x="459" y="645"/>
			<point x="434" y="645"/>
			<point x="408" y="645" type="curve" smooth="yes"/>
			<point x="381" y="645"/>
			<point x="322" y="647"/>
			<point x="247" y="647" type="curve" smooth="yes"/>
			<point x="115" y="647"/>
			<point x="57" y="560"/>
			<point x="57" y="481" type="curve" smooth="yes"/>
			<point x="57" y="464"/>
			<point x="58" y="449"/>
			<point x="61" y="434" type="curve" smooth="yes"/>
			<point x="79" y="332"/>
			<point x="157" y="282"/>
			<point x="285" y="282" type="curve" smooth="yes"/>
			<point x="300" y="282"/>
			<point x="308" y="283"/>
			<point x="317" y="285" type="curve"/>
			<point x="317" y="-139" type="line" smooth="yes"/>
			<point x="317" y="-146"/>
			<point x="317" y="-154"/>
			<point x="317" y="-161" type="curve" smooth="yes"/>
			<point x="317" y="-182"/>
			<point x="310" y="-193"/>
			<point x="289" y="-199" type="curve" smooth="yes"/>
			<point x="282" y="-201"/>
			<point x="274" y="-202"/>
			<point x="263" y="-203" type="curve" smooth="yes"/>
			<point name=".hr01" x="236" y="-205" type="line"/>
			<point x="232" y="-205"/>
			<point x="229" y="-208"/>
			<point x="229" y="-213" type="curve" smooth="yes"/>
			<point x="229" y="-232" type="line"/>
			<point x="231" y="-234" type="line"/>
			<point x="280" y="-232"/>
			<point x="339" y="-232"/>
			<point x="408" y="-232" type="curve" smooth="yes"/>
			<point x="477" y="-232"/>
			<point x="538" y="-232"/>
			<point x="585" y="-234" type="curve"/>
			<point x="587" y="-232" type="line"/>
			<point x="587" y="-213" type="line" smooth="yes"/>
			<point x="587" y="-208"/>
			<point x="583" y="-205"/>
			<point x="579" y="-205" type="curve"/>
			<point x="553" y="-203" type="line" smooth="yes"/>
			<point x="513" y="-200"/>
			<point x="498" y="-191"/>
		</contour>
		<contour>
			<point x="407" y="-199" type="curve" smooth="yes"/>
			<point name=".hr02" x="384" y="-199"/>
			<point x="367" y="-188"/>
			<point x="367" y="-161" type="curve" smooth="yes"/>
			<point x="367" y="533" type="line"/>
			<point x="367" y="574" type="line" smooth="yes"/>
			<point x="367" y="601"/>
			<point x="384" y="612"/>
			<point x="407" y="612" type="curve" smooth="yes"/>
			<point x="430" y="612"/>
			<point x="448" y="605"/>
			<point x="448" y="574" type="curve" smooth="yes"/>
			<point x="448" y="-161" type="line" smooth="yes"/>
			<point x="448" y="-192"/>
			<point x="430" y="-199"/>
		</contour>
	</outline>
</glyph>
<glyph name="guillemotright" format="2">
	<unicode hex="00BB"/>
	<advance width="543"/>
	<outline>
		<contour>
			<point x="207" y="215" type="curve"/>
			<point x="170" y="173"/>
			<point x="132" y="124"/>
			<point x="80" y="45" type="curve"/>
			<point x="83" y="35"/>
			<point x="94" y="27"/>
			<point x="104" y="26" type="curve"/>
			<point x="184" y="112"/>
			<point x="234" y="160"/>
			<point x="289" y="209" type="curve"/>
			<point x="289" y="210.498"/>
			<point x="289" y="218.418"/>
			<point x="289" y="221" type="curve"/>
			<point x="234" y="270"/>
			<point x="184" y="319"/>
			<point x="104" y="404" type="curve"/>
			<point x="94" y="403"/>
			<point x="83" y="395"/>
			<point x="80" y="385" type="curve"/>
			<point x="132" y="306"/>
			<point x="170" y="258"/>
		</contour>
		<contour>
			<point x="387" y="215" type="curve"/>
			<point x="350" y="173"/>
			<point x="312" y="124"/>
			<point x="260" y="45" type="curve"/>
			<point x="263" y="35"/>
			<point x="274" y="27"/>
			<point x="284" y="26" type="curve"/>
			<point x="364" y="112"/>
			<point x="414" y="160"/>
			<point x="469" y="209" type="curve"/>
			<point x="469" y="210.498"/>
			<point x="469" y="218.418"/>
			<point x="469" y="221" type="curve"/>
			<point x="414" y="270"/>
			<point x="364" y="319"/>
			<point x="284" y="404" type="curve"/>
			<point x="274" y="403"/>
			<point x="263" y="395"/>
			<point x="260" y="385" type="curve"/>
			<point x="312" y="306"/>
			<point x="350" y="258"/>
		</contour>
	</outline>
</glyph>
<glyph name="onequarter" format="2">
	<unicode hex="00BC"/>
	<advance width="660"/>
	<outline>
		<contour>
			<point x="580" y="-6" type="curve" smooth="yes"/>
			<point x="580" y="18" type="line"/>
			<point x="630" y="18" type="line"/>
			<point x="636" y="52" type="line"/>
			<point x="580" y="52" type="line"/>
			<point x="580" y="232" type="line" smooth="yes"/>
			<point x="580" y="241"/>
			<point x="568" y="242"/>
			<point x="561" y="242" type="curve" smooth="yes"/>
			<point x="558" y="242"/>
			<point x="549" y="242"/>
			<point x="548" y="241" type="curve"/>
			<point x="532" y="232"/>
			<point x="521" y="221"/>
			<point x="512" y="210" type="curve" smooth="yes"/>
			<point x="477" y="169"/>
			<point x="433" y="117"/>
			<point x="400" y="63" type="curve"/>
			<point x="396" y="58"/>
			<point x="393" y="53"/>
			<point x="390" y="46" type="curve"/>
			<point x="390" y="46" type="line"/>
			<point x="389" y="42"/>
			<point x="387" y="35"/>
			<point x="389" y="29" type="curve" smooth="yes"/>
			<point x="391" y="23"/>
			<point x="396" y="18"/>
			<point x="409" y="18" type="curve" smooth="yes"/>
			<point x="528" y="18" type="line"/>
			<point x="528" y="-6" type="line" smooth="yes"/>
			<point x="528" y="-47"/>
			<point x="515" y="-50"/>
			<point x="475" y="-52" type="curve"/>
			<point x="470" y="-60"/>
			<point x="471" y="-75"/>
			<point x="475" y="-81" type="curve"/>
			<point x="501" y="-80"/>
			<point x="514" y="-80"/>
			<point x="539" y="-80" type="curve" smooth="yes"/>
			<point x="553" y="-80" type="line" smooth="yes"/>
			<point x="583" y="-80"/>
			<point x="601" y="-80"/>
			<point x="631" y="-81" type="curve"/>
			<point x="635" y="-74"/>
			<point x="635" y="-60"/>
			<point x="631" y="-52" type="curve"/>
			<point x="597" y="-50"/>
			<point x="580" y="-47"/>
		</contour>
		<contour>
			<point x="132" y="571" type="curve" smooth="yes"/>
			<point x="144" y="571"/>
			<point x="146" y="562"/>
			<point x="146" y="530" type="curve" smooth="yes"/>
			<point x="146" y="400" type="line" smooth="yes"/>
			<point x="146" y="349"/>
			<point x="115" y="346"/>
			<point x="75" y="344" type="curve"/>
			<point x="70" y="336"/>
			<point x="71" y="321"/>
			<point x="75" y="315" type="curve"/>
			<point x="105" y="316"/>
			<point x="136" y="316"/>
			<point x="171" y="316" type="curve" smooth="yes"/>
			<point x="204" y="316"/>
			<point x="225" y="316"/>
			<point x="255" y="315" type="curve"/>
			<point x="259" y="322"/>
			<point x="259" y="336"/>
			<point x="255" y="344" type="curve"/>
			<point x="224" y="346"/>
			<point x="204" y="348"/>
			<point x="201" y="386" type="curve"/>
			<point x="200" y="390"/>
			<point x="200" y="395"/>
			<point x="200" y="400" type="curve" smooth="yes"/>
			<point x="200" y="639" type="line"/>
			<point x="195" y="644"/>
			<point x="187" y="642"/>
			<point x="182" y="639" type="curve"/>
			<point x="182" y="639"/>
			<point x="182" y="639"/>
			<point x="182" y="639" type="curve"/>
			<point x="138" y="612"/>
			<point x="112" y="600"/>
			<point x="65" y="583" type="curve"/>
			<point x="65" y="571"/>
			<point x="67" y="562"/>
			<point x="75" y="556" type="curve"/>
			<point x="100" y="565"/>
			<point x="119" y="571"/>
		</contour>
		<contour>
			<point x="557" y="601" type="line"/>
			<point x="98" y="-54" type="line"/>
			<point x="140" y="-62" type="line"/>
			<point x="598" y="593" type="line"/>
		</contour>
		<contour>
			<point x="528" y="192" type="curve"/>
			<point x="528" y="52" type="line"/>
			<point x="430" y="52" type="line"/>
			<point x="437" y="70"/>
			<point x="489" y="143"/>
		</contour>
	</outline>
</glyph>
<glyph name="onehalf" format="2">
	<unicode hex="00BD"/>
	<advance width="660"/>
	<outline>
		<contour>
			<point x="405" y="168" type="curve" smooth="yes"/>
			<point x="405" y="155"/>
			<point x="419" y="144"/>
			<point x="431" y="144" type="curve" smooth="yes"/>
			<point x="441" y="144"/>
			<point x="455" y="147"/>
			<point x="458" y="165" type="curve"/>
			<point x="459" y="168"/>
			<point x="458" y="172"/>
			<point x="458" y="176" type="curve" smooth="yes"/>
			<point x="458" y="180"/>
			<point x="458" y="184"/>
			<point x="459" y="188" type="curve"/>
			<point x="459" y="190"/>
			<point x="459" y="192"/>
			<point x="460" y="194" type="curve"/>
			<point x="461" y="197"/>
			<point x="463" y="201"/>
			<point x="466" y="203" type="curve"/>
			<point x="473" y="210"/>
			<point x="486" y="215"/>
			<point x="508" y="215" type="curve" smooth="yes"/>
			<point x="515" y="215"/>
			<point x="525" y="214"/>
			<point x="533" y="210" type="curve"/>
			<point x="546" y="203"/>
			<point x="558" y="189"/>
			<point x="558" y="161" type="curve" smooth="yes"/>
			<point x="558" y="117"/>
			<point x="542" y="94"/>
			<point x="512" y="67" type="curve" smooth="yes"/>
			<point x="505" y="61"/>
			<point x="497" y="55"/>
			<point x="489" y="48" type="curve"/>
			<point x="478" y="40"/>
			<point x="468" y="31"/>
			<point x="459" y="23" type="curve"/>
			<point x="426" y="-8"/>
			<point x="403" y="-42"/>
			<point x="403" y="-79" type="curve"/>
			<point x="609" y="-79" type="line"/>
			<point x="618" y="-52"/>
			<point x="624" y="-21"/>
			<point x="628" y="15" type="curve"/>
			<point x="623" y="19"/>
			<point x="615" y="20"/>
			<point x="604" y="20" type="curve"/>
			<point x="593" y="-8"/>
			<point x="579" y="-47"/>
			<point x="548" y="-47" type="curve" smooth="yes"/>
			<point x="465" y="-47" type="line"/>
			<point x="471" y="-24"/>
			<point x="480" y="-4"/>
			<point x="499" y="16" type="curve" smooth="yes"/>
			<point x="508" y="25"/>
			<point x="518" y="34"/>
			<point x="531" y="43" type="curve"/>
			<point x="540" y="50" type="line"/>
			<point x="561" y="65"/>
			<point x="578" y="79"/>
			<point x="591" y="94" type="curve" smooth="yes"/>
			<point x="610" y="115"/>
			<point x="620" y="136"/>
			<point x="620" y="162" type="curve" smooth="yes"/>
			<point x="620" y="194"/>
			<point x="606" y="215"/>
			<point x="585" y="228" type="curve"/>
			<point x="564" y="240"/>
			<point x="537" y="245"/>
			<point x="512" y="245" type="curve" smooth="yes"/>
			<point x="433" y="245"/>
			<point x="405" y="194"/>
		</contour>
		<contour>
			<point x="134" y="571" type="curve" smooth="yes"/>
			<point x="146" y="571"/>
			<point x="148" y="562"/>
			<point x="148" y="530" type="curve" smooth="yes"/>
			<point x="148" y="400" type="line" smooth="yes"/>
			<point x="148" y="349"/>
			<point x="117" y="346"/>
			<point x="77" y="344" type="curve"/>
			<point x="72" y="336"/>
			<point x="73" y="321"/>
			<point x="77" y="315" type="curve"/>
			<point x="107" y="316"/>
			<point x="138" y="316"/>
			<point x="173" y="316" type="curve" smooth="yes"/>
			<point x="206" y="316"/>
			<point x="227" y="316"/>
			<point x="257" y="315" type="curve"/>
			<point x="261" y="322"/>
			<point x="261" y="336"/>
			<point x="257" y="344" type="curve"/>
			<point x="226" y="346"/>
			<point x="206" y="348"/>
			<point x="203" y="386" type="curve"/>
			<point x="202" y="390"/>
			<point x="202" y="395"/>
			<point x="202" y="400" type="curve" smooth="yes"/>
			<point x="202" y="639" type="line"/>
			<point x="197" y="644"/>
			<point x="189" y="642"/>
			<point x="184" y="639" type="curve"/>
			<point x="184" y="639"/>
			<point x="184" y="639"/>
			<point x="184" y="639" type="curve"/>
			<point x="140" y="612"/>
			<point x="114" y="600"/>
			<point x="67" y="583" type="curve"/>
			<point x="67" y="571"/>
			<point x="69" y="562"/>
			<point x="77" y="556" type="curve"/>
			<point x="102" y="565"/>
			<point x="121" y="571"/>
		</contour>
		<contour>
			<point x="532" y="601" type="line"/>
			<point x="74" y="-54" type="line"/>
			<point x="115" y="-62" type="line"/>
			<point x="574" y="593" type="line"/>
		</contour>
	</outline>
</glyph>
<glyph name="questiondown" format="2">
	<unicode hex="00BF"/>
	<advance width="435"/>
	<outline>
		<contour>
			<point x="321" y="-143" type="curve" smooth="yes"/>
			<point x="321" y="-173"/>
			<point x="281" y="-197"/>
			<point x="224" y="-197" type="curve" smooth="yes"/>
			<point x="171" y="-197"/>
			<point x="135" y="-148"/>
			<point x="130" y="-89" type="curve"/>
			<point x="129" y="-84"/>
			<point x="129" y="-80"/>
			<point x="129" y="-75" type="curve" smooth="yes"/>
			<point x="129" y="-28"/>
			<point x="144" y="1"/>
			<point x="184" y="38" type="curve"/>
			<point x="189" y="42"/>
			<point x="193" y="46"/>
			<point x="197" y="51" type="curve"/>
			<point x="250" y="105"/>
			<point x="254" y="159"/>
			<point x="254" y="199" type="curve" smooth="yes"/>
			<point x="254" y="222" type="line" smooth="yes"/>
			<point x="254" y="230"/>
			<point x="254" y="237"/>
			<point x="254" y="245" type="curve" smooth="yes"/>
			<point x="254" y="252"/>
			<point x="246" y="255"/>
			<point x="238" y="255" type="curve" smooth="yes"/>
			<point x="230" y="255"/>
			<point x="221" y="252"/>
			<point x="221" y="245" type="curve" smooth="yes"/>
			<point x="221" y="238"/>
			<point x="221" y="230"/>
			<point x="221" y="223" type="curve" smooth="yes"/>
			<point x="221" y="201" type="line" smooth="yes"/>
			<point x="221" y="177"/>
			<point x="220" y="153"/>
			<point x="207" y="128" type="curve" smooth="yes"/>
			<point x="198" y="111"/>
			<point x="178" y="95"/>
			<point x="155" y="78" type="curve" smooth="yes"/>
			<point x="108" y="44"/>
			<point x="46" y="0"/>
			<point x="46" y="-79" type="curve" smooth="yes"/>
			<point x="46" y="-170"/>
			<point x="112" y="-230"/>
			<point x="214" y="-230" type="curve" smooth="yes"/>
			<point x="267" y="-230"/>
			<point name=".hr01" x="309" y="-216"/>
			<point x="338" y="-191" type="curve"/>
			<point x="368" y="-167"/>
			<point x="389" y="-139"/>
			<point x="389" y="-101" type="curve" smooth="yes"/>
			<point x="389" y="-66"/>
			<point x="364" y="-58"/>
			<point x="348" y="-58" type="curve"/>
			<point x="348" y="-58"/>
			<point x="348" y="-58"/>
			<point x="348" y="-58" type="curve"/>
			<point x="329" y="-58"/>
			<point x="309" y="-70"/>
			<point x="309" y="-93" type="curve" smooth="yes"/>
			<point x="309" y="-106"/>
			<point x="311" y="-112"/>
			<point x="315" y="-117" type="curve" smooth="yes"/>
			<point x="319" y="-122"/>
			<point name=".hr02" x="321" y="-128"/>
		</contour>
		<contour>
			<point x="291" y="386" type="curve" smooth="yes"/>
			<point x="291" y="415"/>
			<point x="267" y="439"/>
			<point x="238" y="439" type="curve" smooth="yes"/>
			<point x="209" y="439"/>
			<point x="185" y="415"/>
			<point x="185" y="386" type="curve" smooth="yes"/>
			<point x="185" y="357"/>
			<point x="209" y="333"/>
			<point x="238" y="333" type="curve" smooth="yes"/>
			<point x="267" y="333"/>
			<point x="291" y="357"/>
		</contour>
	</outline>
</glyph>
<glyph name="Thorn" format="2">
	<unicode hex="00DE"/>
	<advance width="527"/>
	<outline>
		<contour>
			<point x="183" y="122" type="curve" smooth="yes"/>
			<point x="183" y="159" type="line"/>
			<point x="198" y="154"/>
			<point x="224" y="150"/>
			<point x="259" y="150" type="curve" smooth="yes"/>
			<point x="437" y="150"/>
			<point x="493" y="268"/>
			<point x="493" y="343" type="curve" smooth="yes"/>
			<point x="493" y="414"/>
			<point x="458" y="523"/>
			<point x="273" y="523" type="curve" smooth="yes"/>
			<point x="254" y="523"/>
			<point x="219" y="521"/>
			<point x="183" y="519" type="curve"/>
			<point x="183" y="519.588"/>
			<point x="183" y="522.412"/>
			<point x="183" y="523" type="curve"/>
			<point x="183" y="606"/>
			<point x="200" y="611"/>
			<point x="270" y="614" type="curve"/>
			<point x="276" y="620"/>
			<point x="276" y="641"/>
			<point name=".hr01" x="270" y="647" type="curve"/>
			<point x="221" y="646"/>
			<point x="191" y="645"/>
			<point x="140" y="645" type="curve" smooth="yes"/>
			<point x="90" y="645"/>
			<point x="61" y="646"/>
			<point x="11" y="647" type="curve"/>
			<point x="5" y="641"/>
			<point x="5" y="620"/>
			<point x="11" y="614" type="curve"/>
			<point x="81" y="611"/>
			<point x="98" y="606"/>
			<point name=".hr02" x="98" y="523" type="curve" smooth="yes"/>
			<point x="98" y="122" type="line" smooth="yes"/>
			<point x="98" y="39"/>
			<point x="81" y="34"/>
			<point x="11" y="31" type="curve"/>
			<point x="5" y="25"/>
			<point x="5" y="4"/>
			<point x="11" y="-2" type="curve"/>
			<point x="60" y="-1"/>
			<point x="90" y="0"/>
			<point x="141" y="0" type="curve" smooth="yes"/>
			<point x="191" y="0"/>
			<point x="220" y="-1"/>
			<point x="270" y="-2" type="curve"/>
			<point x="276" y="4"/>
			<point x="276" y="25"/>
			<point x="270" y="31" type="curve"/>
			<point x="200" y="34"/>
			<point x="183" y="39"/>
		</contour>
		<contour>
			<point x="183" y="479" type="curve"/>
			<point x="204" y="485"/>
			<point x="253" y="490"/>
			<point x="272" y="490" type="curve" smooth="yes"/>
			<point x="331" y="490"/>
			<point x="400" y="463"/>
			<point x="400" y="343" type="curve" smooth="yes"/>
			<point x="400" y="214"/>
			<point x="326" y="183"/>
			<point x="254" y="183" type="curve" smooth="yes"/>
			<point x="216" y="183"/>
			<point x="192" y="185"/>
			<point x="183" y="188" type="curve"/>
			<point x="183" y="260.644"/>
			<point x="183" y="455.401"/>
		</contour>
	</outline>
	<anchor name="m.uni0302" x="281" y="850"/>
</glyph>
<glyph name="aring" format="2">
	<unicode hex="00E5"/>
	<advance width="457"/>
	<outline>
		<contour>
			<point x="293" y="48" type="line"/>
			<point name=".hr01" x="298" y="21"/>
			<point x="307" y="-3"/>
			<point x="343" y="-9" type="curve"/>
			<point x="348" y="-10"/>
			<point x="354" y="-10"/>
			<point x="360" y="-10" type="curve" smooth="yes"/>
			<point x="398" y="-10"/>
			<point x="434" y="7"/>
			<point x="455" y="27" type="curve"/>
			<point x="453" y="39"/>
			<point x="449" y="48"/>
			<point x="438" y="54" type="curve"/>
			<point x="431" y="48"/>
			<point name=".hr02" x="414" y="38"/>
			<point x="401" y="38" type="curve" smooth="yes"/>
			<point x="372" y="38"/>
			<point x="371" y="77"/>
			<point x="371" y="123" type="curve" smooth="yes"/>
			<point x="371" y="270" type="line" smooth="yes"/>
			<point x="371" y="412"/>
			<point x="293" y="439"/>
			<point x="220" y="439" type="curve" smooth="yes"/>
			<point x="138" y="439"/>
			<point x="55" y="385"/>
			<point x="55" y="328" type="curve" smooth="yes"/>
			<point x="55" y="304"/>
			<point x="67" y="292"/>
			<point x="90" y="292" type="curve"/>
			<point x="90" y="292"/>
			<point x="90" y="292"/>
			<point x="90" y="292" type="curve"/>
			<point name=".hr03" x="119" y="292"/>
			<point x="137" y="313"/>
			<point x="137" y="326" type="curve"/>
			<point x="137" y="326"/>
			<point x="137" y="326"/>
			<point x="137" y="326" type="curve"/>
			<point x="137" y="333"/>
			<point x="136" y="340"/>
			<point x="134" y="344" type="curve"/>
			<point x="133" y="347"/>
			<point name=".hr04" x="132" y="353"/>
			<point x="132" y="364" type="curve" smooth="yes"/>
			<point x="132" y="368"/>
			<point x="133" y="371"/>
			<point x="134" y="375" type="curve"/>
			<point x="140" y="391"/>
			<point x="160" y="400"/>
			<point x="183" y="404" type="curve"/>
			<point x="193" y="405"/>
			<point x="203" y="406"/>
			<point x="212" y="406" type="curve" smooth="yes"/>
			<point x="246" y="406"/>
			<point x="293" y="389"/>
			<point x="293" y="276" type="curve" smooth="yes"/>
			<point x="293" y="269"/>
			<point x="290" y="265"/>
			<point x="287" y="264" type="curve"/>
			<point x="201" y="243" type="line" smooth="yes"/>
			<point x="105" y="219"/>
			<point name=".hr05" x="36" y="166"/>
			<point x="36" y="98" type="curve" smooth="yes"/>
			<point x="36" y="22"/>
			<point x="84" y="-6"/>
			<point x="147" y="-10" type="curve"/>
			<point x="152" y="-10"/>
			<point x="157" y="-10"/>
			<point x="162" y="-10" type="curve" smooth="yes"/>
			<point x="197" y="-10"/>
			<point x="227" y="-2"/>
			<point x="271" y="32" type="curve"/>
			<point x="278" y="37"/>
			<point x="284" y="43"/>
			<point x="291" y="48" type="curve"/>
		</contour>
		<contour>
			<point x="122" y="582" type="curve" smooth="yes"/>
			<point x="122" y="536"/>
			<point x="164" y="497"/>
			<point x="210" y="497" type="curve" smooth="yes"/>
			<point name=".hr06" x="258" y="497"/>
			<point x="298" y="537"/>
			<point x="298" y="582" type="curve" smooth="yes"/>
			<point x="298" y="629"/>
			<point x="256" y="667"/>
			<point x="210" y="667" type="curve" smooth="yes"/>
			<point x="164" y="667"/>
			<point x="122" y="628"/>
		</contour>
		<contour>
			<point x="293" y="233" type="line"/>
			<point name=".hr07" x="293" y="101" type="line"/>
			<point x="293" y="101" type="line"/>
			<point x="293" y="88"/>
			<point x="287" y="81"/>
			<point x="279" y="75" type="curve"/>
			<point x="253" y="54"/>
			<point x="219" y="31"/>
			<point x="191" y="31" type="curve" smooth="yes"/>
			<point x="141" y="31"/>
			<point x="119" y="71"/>
			<point x="119" y="102" type="curve" smooth="yes"/>
			<point x="119" y="147"/>
			<point x="140" y="193"/>
			<point x="214" y="212" type="curve" smooth="yes"/>
		</contour>
		<contour>
			<point x="210" y="635" type="curve" smooth="yes"/>
			<point x="240" y="635"/>
			<point x="258" y="613"/>
			<point name=".hr08" x="258" y="582" type="curve" smooth="yes"/>
			<point x="258" y="554"/>
			<point x="241" y="529"/>
			<point x="210" y="529" type="curve" smooth="yes"/>
			<point x="179" y="529"/>
			<point x="162" y="554"/>
			<point x="162" y="582" type="curve" smooth="yes"/>
			<point x="162" y="612"/>
			<point x="179" y="635"/>
		</contour>
	</outline>
	<anchor name="m.uni0302" x="224" y="844"/>
</glyph>
<glyph name="ae" format="2">
	<unicode hex="00E6"/>
	<advance width="687"/>
	<outline>
		<contour>
			<point x="39" y="102" type="curve" smooth="yes"/>
			<point x="39" y="12"/>
			<point x="105" y="-10"/>
			<point x="182" y="-10" type="curve" smooth="yes"/>
			<point x="235" y="-10"/>
			<point x="281" y="14"/>
			<point x="331" y="68" type="curve"/>
			<point x="366" y="12"/>
			<point x="411" y="-10"/>
			<point x="491" y="-10" type="curve" smooth="yes"/>
			<point x="557" y="-10"/>
			<point x="615" y="29"/>
			<point x="644" y="83" type="curve"/>
			<point x="641" y="88"/>
			<point x="633" y="98"/>
			<point x="624" y="99" type="curve"/>
			<point x="594" y="64"/>
			<point name=".hr01" x="559" y="39"/>
			<point x="505" y="39" type="curve" smooth="yes"/>
			<point x="430" y="39"/>
			<point x="371" y="128"/>
			<point x="371" y="218" type="curve"/>
			<point x="521" y="218"/>
			<point x="575" y="227"/>
			<point x="637" y="242" type="curve"/>
			<point x="641" y="262"/>
			<point x="642" y="286"/>
			<point x="642" y="314" type="curve" smooth="yes"/>
			<point x="642" y="360"/>
			<point x="604" y="439"/>
			<point x="490" y="439" type="curve" smooth="yes"/>
			<point x="433" y="439"/>
			<point x="381" y="414"/>
			<point x="348" y="369" type="curve"/>
			<point x="311" y="436"/>
			<point x="234" y="439"/>
			<point x="210" y="439" type="curve" smooth="yes"/>
			<point x="128" y="439"/>
			<point x="50" y="395"/>
			<point x="50" y="337" type="curve" smooth="yes"/>
			<point x="50" y="317"/>
			<point x="59" y="292"/>
			<point x="90" y="292" type="curve" smooth="yes"/>
			<point x="115" y="292"/>
			<point x="129" y="309"/>
			<point x="129" y="325" type="curve" smooth="yes"/>
			<point x="129" y="340"/>
			<point x="123" y="346"/>
			<point x="123" y="363" type="curve" smooth="yes"/>
			<point x="123" y="392"/>
			<point x="161" y="406"/>
			<point x="200" y="406" type="curve" smooth="yes"/>
			<point x="293" y="406"/>
			<point x="298" y="324"/>
			<point name=".hr02" x="298" y="250" type="curve"/>
			<point x="209" y="244"/>
			<point x="39" y="226"/>
		</contour>
		<contour>
			<point x="111" y="107" type="curve" smooth="yes"/>
			<point x="111" y="187"/>
			<point x="240" y="211"/>
			<point x="298" y="215" type="curve"/>
			<point x="298" y="165"/>
			<point x="297" y="132"/>
			<point x="293" y="113" type="curve"/>
			<point x="278" y="73"/>
			<point x="226" y="32"/>
			<point x="194" y="32" type="curve" smooth="yes"/>
			<point x="138" y="32"/>
			<point x="111" y="64"/>
		</contour>
		<contour>
			<point x="372" y="253" type="curve"/>
			<point x="380" y="338"/>
			<point name=".hr03" x="421" y="406"/>
			<point x="489" y="406" type="curve" smooth="yes"/>
			<point x="537" y="406"/>
			<point x="575" y="343"/>
			<point x="575" y="270" type="curve"/>
			<point x="539" y="257"/>
			<point x="472" y="253"/>
		</contour>
	</outline>
	<anchor name="m.uni0302" x="350" y="645"/>
	<anchor name="m.uni0316_2" x="327" y="-109"/>
	<anchor name="b.uni0321_4" x="604" y="30"/>
	<anchor name="t.uni0302" x="342" y="500"/>
</glyph>
<glyph name="divide" format="2">
	<unicode hex="00F7"/>
	<advance width="550"/>
	<outline>
		<contour>
			<point x="490" y="259" type="curve" smooth="yes"/>
			<point x="490" y="267"/>
			<point x="486" y="276"/>
			<point x="476" y="276" type="curve" smooth="yes"/>
			<point x="85" y="276" type="line" smooth="yes"/>
			<point x="73" y="276"/>
			<point x="60" y="257"/>
			<point x="60" y="242" type="curve" smooth="yes"/>
			<point x="60" y="234"/>
			<point x="66" y="226"/>
			<point x="75" y="226" type="curve" smooth="yes"/>
			<point x="463" y="226" type="line" smooth="yes"/>
			<point x="476" y="226"/>
			<point x="490" y="249"/>
		</contour>
		<contour>
			<point x="226" y="119" type="curve" smooth="yes"/>
			<point x="226" y="95"/>
			<point x="246" y="75"/>
			<point x="270" y="75" type="curve" smooth="yes"/>
			<point x="295" y="75"/>
			<point x="315" y="95"/>
			<point x="315" y="119" type="curve" smooth="yes"/>
			<point x="315" y="143"/>
			<point x="295" y="163"/>
			<point x="270" y="163" type="curve" smooth="yes"/>
			<point x="246" y="163"/>
			<point x="226" y="143"/>
		</contour>
		<contour>
			<point x="226" y="387" type="curve" smooth="yes"/>
			<point x="226" y="363"/>
			<point x="246" y="343"/>
			<point x="270" y="343" type="curve" smooth="yes"/>
			<point x="295" y="343"/>
			<point x="315" y="363"/>
			<point x="315" y="387" type="curve" smooth="yes"/>
			<point x="315" y="411"/>
			<point x="295" y="431"/>
			<point x="270" y="431" type="curve" smooth="yes"/>
			<point x="246" y="431"/>
			<point x="226" y="411"/>
		</contour>
	</outline>
</glyph>
<glyph name="oslash" format="2">
	<unicode hex="00F8"/>
	<advance width="504"/>
	<outline>
		<contour>
			<point x="414" y="454" type="curve"/>
			<point x="374" y="405" type="line"/>
			<point x="343" y="426"/>
			<point x="303" y="439"/>
			<point x="253" y="439" type="curve" smooth="yes"/>
			<point x="187" y="439"/>
			<point x="133" y="412"/>
			<point x="96" y="369" type="curve" smooth="yes"/>
			<point x="60" y="326"/>
			<point x="41" y="268"/>
			<point x="41" y="205" type="curve" smooth="yes"/>
			<point x="41" y="155"/>
			<point x="57" y="103"/>
			<point x="91" y="62" type="curve"/>
			<point x="38" y="-2" type="line"/>
			<point x="40" y="-17"/>
			<point x="52" y="-28"/>
			<point x="68" y="-28" type="curve"/>
			<point x="119" y="34" type="line"/>
			<point x="152" y="7"/>
			<point name=".hr01" x="196" y="-10"/>
			<point x="251" y="-10" type="curve" smooth="yes"/>
			<point x="315" y="-10"/>
			<point x="364" y="13"/>
			<point x="398" y="46" type="curve" smooth="yes"/>
			<point x="443" y="90"/>
			<point x="463" y="153"/>
			<point x="463" y="214" type="curve" smooth="yes"/>
			<point x="463" y="272"/>
			<point x="445" y="335"/>
			<point x="403" y="380" type="curve"/>
			<point x="445" y="431" type="line"/>
			<point x="441" y="444"/>
			<point x="431" y="454"/>
		</contour>
		<contour>
			<point x="354" y="320" type="line"/>
			<point x="369" y="285"/>
			<point x="377" y="238"/>
			<point x="377" y="182" type="curve" smooth="yes"/>
			<point x="377" y="56"/>
			<point x="312" y="25"/>
			<point x="265" y="25" type="curve" smooth="yes"/>
			<point x="217" y="25"/>
			<point x="185" y="51"/>
			<point x="163" y="87" type="curve"/>
		</contour>
		<contour>
			<point x="238" y="404" type="curve" smooth="yes"/>
			<point x="277" y="404"/>
			<point x="310" y="388"/>
			<point x="333" y="356" type="curve"/>
			<point x="144" y="127" type="line"/>
			<point x="132" y="161"/>
			<point x="127" y="198"/>
			<point x="127" y="228" type="curve" smooth="yes"/>
			<point x="127" y="315"/>
			<point x="148" y="404"/>
		</contour>
	</outline>
	<anchor name="m.uni0316_2" x="243" y="-110"/>
	<anchor name="b.uni0321_4" x="372" y="44"/>
</glyph>
<glyph name="aogonek" format="2">
	<unicode hex="0105"/>
	<advance width="457"/>
	<outline>
		<contour>
			<point x="460" y="-135" type="curve"/>
			<point x="456" y="-128"/>
			<point x="450" y="-124"/>
			<point x="441" y="-124" type="curve"/>
			<point x="419" y="-146"/>
			<point x="403" y="-162"/>
			<point x="374" y="-162" type="curve" smooth="yes"/>
			<point x="342" y="-162"/>
			<point x="328" y="-147"/>
			<point x="325" y="-126" type="curve"/>
			<point x="324" y="-122"/>
			<point x="324" y="-119"/>
			<point x="324" y="-115" type="curve" smooth="yes"/>
			<point x="324" y="-75"/>
			<point x="350" y="-45"/>
			<point x="398" y="-5" type="curve"/>
			<point x="398" y="-5" type="line"/>
			<point x="421" y="2"/>
			<point x="441" y="14"/>
			<point x="455" y="27" type="curve"/>
			<point x="453" y="39"/>
			<point x="449" y="48"/>
			<point x="438" y="54" type="curve"/>
			<point x="431" y="48"/>
			<point x="414" y="38"/>
			<point x="401" y="38" type="curve" smooth="yes"/>
			<point x="372" y="38"/>
			<point name=".hr01" x="371" y="77"/>
			<point x="371" y="123" type="curve" smooth="yes"/>
			<point x="371" y="270" type="line" smooth="yes"/>
			<point x="371" y="412"/>
			<point x="293" y="439"/>
			<point x="220" y="439" type="curve" smooth="yes"/>
			<point x="142" y="439"/>
			<point x="64" y="391"/>
			<point x="56" y="337" type="curve"/>
			<point x="55" y="334"/>
			<point x="55" y="331"/>
			<point x="55" y="328" type="curve" smooth="yes"/>
			<point x="55" y="304"/>
			<point x="67" y="292"/>
			<point x="90" y="292" type="curve" smooth="yes"/>
			<point x="95" y="292"/>
			<point x="99" y="293"/>
			<point x="104" y="294" type="curve"/>
			<point x="125" y="299"/>
			<point x="137" y="315"/>
			<point x="137" y="326" type="curve" smooth="yes"/>
			<point x="137" y="333"/>
			<point x="136" y="340"/>
			<point x="134" y="344" type="curve"/>
			<point x="133" y="347"/>
			<point x="132" y="353"/>
			<point x="132" y="364" type="curve" smooth="yes"/>
			<point x="132" y="367"/>
			<point x="133" y="371"/>
			<point x="133" y="374" type="curve"/>
			<point x="139" y="391"/>
			<point x="162" y="401"/>
			<point x="187" y="404" type="curve" smooth="yes"/>
			<point x="195" y="405"/>
			<point x="204" y="406"/>
			<point x="212" y="406" type="curve" smooth="yes"/>
			<point x="246" y="406"/>
			<point x="293" y="389"/>
			<point x="293" y="276" type="curve" smooth="yes"/>
			<point x="293" y="269"/>
			<point x="290" y="265"/>
			<point x="287" y="264" type="curve"/>
			<point x="201" y="243" type="line" smooth="yes"/>
			<point x="110" y="220"/>
			<point x="43" y="171"/>
			<point x="37" y="108" type="curve"/>
			<point name=".hr02" x="36" y="105"/>
			<point x="36" y="101"/>
			<point x="36" y="98" type="curve" smooth="yes"/>
			<point x="36" y="21"/>
			<point x="85" y="-7"/>
			<point x="149" y="-10" type="curve"/>
			<point x="153" y="-10"/>
			<point x="158" y="-10"/>
			<point x="162" y="-10" type="curve" smooth="yes"/>
			<point x="197" y="-10"/>
			<point x="227" y="-2"/>
			<point x="271" y="32" type="curve"/>
			<point x="278" y="37"/>
			<point x="284" y="43"/>
			<point x="291" y="48" type="curve"/>
			<point x="293" y="48" type="line"/>
			<point x="297" y="24"/>
			<point x="306" y="2"/>
			<point x="333" y="-6" type="curve"/>
			<point x="337" y="-7"/>
			<point x="341" y="-8"/>
			<point x="346" y="-9" type="curve"/>
			<point x="296" y="-46"/>
			<point name=".hr03" x="262" y="-85"/>
			<point x="262" y="-126" type="curve" smooth="yes"/>
			<point x="262" y="-175"/>
			<point name=".hr04" x="293" y="-196"/>
			<point x="337" y="-199" type="curve"/>
			<point x="341" y="-200"/>
			<point x="345" y="-200"/>
			<point x="350" y="-200" type="curve" smooth="yes"/>
			<point x="391" y="-200"/>
			<point x="431" y="-180"/>
		</contour>
		<contour>
			<point x="293" y="233" type="line"/>
			<point x="293" y="101" type="line"/>
			<point x="293" y="101" type="line"/>
			<point x="293" y="88"/>
			<point x="287" y="81"/>
			<point x="279" y="75" type="curve"/>
			<point x="253" y="54"/>
			<point x="219" y="31"/>
			<point x="191" y="31" type="curve" smooth="yes"/>
			<point x="141" y="31"/>
			<point x="119" y="71"/>
			<point x="119" y="102" type="curve" smooth="yes"/>
			<point x="119" y="147"/>
			<point x="140" y="193"/>
			<point x="214" y="212" type="curve" smooth="yes"/>
		</contour>
	</outline>
	<anchor name="m.uni0302" x="209" y="645"/>
	<anchor name="m.uni0316_2" x="146" y="-108"/>
</glyph>
<glyph name="Dcroat" format="2">
	<unicode hex="0110"/>
	<advance width="701"/>
	<outline>
		<contour>
			<point x="149" y="0" type="curve" smooth="yes"/>
			<point x="186" y="0"/>
			<point x="228" y="-2"/>
			<point x="331" y="-2" type="curve" smooth="yes"/>
			<point x="410" y="-2"/>
			<point x="503" y="18"/>
			<point x="570" y="79" type="curve" smooth="yes"/>
			<point x="622" y="127"/>
			<point x="658" y="200"/>
			<point x="658" y="308" type="curve" smooth="yes"/>
			<point x="658" y="494"/>
			<point x="505" y="647"/>
			<point x="313" y="647" type="curve" smooth="yes"/>
			<point x="260" y="647"/>
			<point x="216" y="646"/>
			<point x="180" y="645" type="curve"/>
			<point x="169" y="645"/>
			<point x="158" y="645"/>
			<point x="148" y="645" type="curve" smooth="yes"/>
			<point x="112" y="645"/>
			<point x="59" y="646"/>
			<point x="19" y="647" type="curve"/>
			<point x="13" y="641"/>
			<point x="13" y="620"/>
			<point x="19" y="614" type="curve"/>
			<point x="89" y="611"/>
			<point x="106" y="606"/>
			<point x="106" y="523" type="curve" smooth="yes"/>
			<point x="106" y="327" type="line"/>
			<point x="83" y="327"/>
			<point x="59" y="327"/>
			<point x="36" y="327" type="curve"/>
			<point x="24" y="325"/>
			<point x="15" y="310"/>
			<point x="15" y="300" type="curve" smooth="yes"/>
			<point x="15" y="295"/>
			<point x="18" y="289"/>
			<point x="27" y="287" type="curve"/>
			<point x="53" y="287"/>
			<point x="80" y="287"/>
			<point x="106" y="287" type="curve"/>
			<point x="106" y="122" type="line" smooth="yes"/>
			<point x="106" y="39"/>
			<point x="89" y="34"/>
			<point x="19" y="31" type="curve"/>
			<point x="13" y="25"/>
			<point x="13" y="4"/>
			<point x="19" y="-2" type="curve"/>
			<point x="58" y="-1"/>
			<point x="111" y="0"/>
		</contour>
		<contour>
			<point x="191" y="84" type="curve" smooth="yes"/>
			<point x="191" y="287" type="line"/>
			<point x="228" y="287"/>
			<point x="266" y="287"/>
			<point x="303" y="287" type="curve"/>
			<point x="315" y="289"/>
			<point x="326" y="305"/>
			<point x="326" y="314" type="curve" smooth="yes"/>
			<point x="326" y="319"/>
			<point x="322" y="326"/>
			<point x="313" y="327" type="curve"/>
			<point x="272" y="327"/>
			<point x="232" y="327"/>
			<point x="191" y="327" type="curve"/>
			<point x="191" y="534" type="line" smooth="yes"/>
			<point x="191" y="544"/>
			<point x="191" y="554"/>
			<point x="191" y="564" type="curve" smooth="yes"/>
			<point x="191" y="599"/>
			<point x="226" y="613"/>
			<point x="275" y="613" type="curve" smooth="yes"/>
			<point x="491" y="613"/>
			<point x="562" y="438"/>
			<point x="562" y="284" type="curve" smooth="yes"/>
			<point x="562" y="82"/>
			<point x="441" y="32"/>
			<point x="300" y="32" type="curve" smooth="yes"/>
			<point x="202" y="32"/>
			<point x="191" y="52"/>
		</contour>
	</outline>
</glyph>
<glyph name="uni0122" format="2">
	<unicode hex="0122"/>
	<advance width="685"/>
	<outline>
		<contour>
			<point x="377" y="658" type="curve" smooth="yes"/>
			<point x="294" y="658"/>
			<point x="209" y="625"/>
			<point x="144" y="565" type="curve" smooth="yes"/>
			<point x="80" y="505"/>
			<point x="37" y="417"/>
			<point x="37" y="307" type="curve" smooth="yes"/>
			<point x="37" y="210"/>
			<point x="73" y="125"/>
			<point x="137" y="67" type="curve" smooth="yes"/>
			<point x="191" y="19"/>
			<point x="264" y="-10"/>
			<point x="352" y="-10" type="curve" smooth="yes"/>
			<point x="360" y="-10"/>
			<point x="368" y="-10"/>
			<point x="375" y="-10" type="curve"/>
			<point x="482" y="-7"/>
			<point x="568" y="19"/>
			<point x="631" y="73" type="curve"/>
			<point x="620" y="82"/>
			<point x="615" y="90"/>
			<point x="615" y="101" type="curve" smooth="yes"/>
			<point x="615" y="217" type="line" smooth="yes"/>
			<point x="615" y="252"/>
			<point x="632" y="262"/>
			<point x="661" y="265" type="curve"/>
			<point x="667" y="271"/>
			<point x="667" y="295"/>
			<point x="661" y="301" type="curve"/>
			<point x="637" y="300"/>
			<point x="612" y="299"/>
			<point x="572" y="299" type="curve" smooth="yes"/>
			<point x="567" y="299"/>
			<point x="561" y="299"/>
			<point x="554" y="299" type="curve" smooth="yes"/>
			<point x="523" y="299"/>
			<point x="485" y="300"/>
			<point x="448" y="301" type="curve"/>
			<point x="442" y="295"/>
			<point x="442" y="271"/>
			<point x="448" y="265" type="curve"/>
			<point x="503" y="261"/>
			<point x="530" y="257"/>
			<point x="530" y="217" type="curve" smooth="yes"/>
			<point x="530" y="64" type="line"/>
			<point x="500" y="36"/>
			<point x="445" y="28"/>
			<point x="396" y="26" type="curve"/>
			<point x="389" y="26"/>
			<point x="382" y="26"/>
			<point x="375" y="26" type="curve" smooth="yes"/>
			<point x="217" y="26"/>
			<point x="133" y="195"/>
			<point x="133" y="327" type="curve" smooth="yes"/>
			<point x="133" y="423"/>
			<point x="167" y="503"/>
			<point x="218" y="555" type="curve" smooth="yes"/>
			<point x="259" y="598"/>
			<point x="311" y="622"/>
			<point x="363" y="622" type="curve" smooth="yes"/>
			<point x="508" y="622"/>
			<point x="549" y="539"/>
			<point x="575" y="453" type="curve"/>
			<point x="586" y="452"/>
			<point x="597" y="454"/>
			<point x="608" y="459" type="curve"/>
			<point x="606" y="501"/>
			<point x="601" y="541"/>
			<point x="585" y="613" type="curve"/>
			<point x="525" y="623"/>
			<point x="488" y="658"/>
		</contour>
		<contour>
			<point x="375" y="-41" type="curve" smooth="yes"/>
			<point x="349" y="-41"/>
			<point x="330" y="-56"/>
			<point x="326" y="-76" type="curve"/>
			<point x="325" y="-79"/>
			<point x="325" y="-81"/>
			<point x="325" y="-84" type="curve" smooth="yes"/>
			<point x="325" y="-107"/>
			<point x="343" y="-117"/>
			<point x="359" y="-121" type="curve"/>
			<point x="362" y="-122"/>
			<point x="365" y="-123"/>
			<point x="367" y="-123" type="curve"/>
			<point x="382" y="-125"/>
			<point x="394" y="-128"/>
			<point x="397" y="-140" type="curve"/>
			<point x="398" y="-143"/>
			<point x="398" y="-146"/>
			<point x="398" y="-149" type="curve" smooth="yes"/>
			<point x="398" y="-167"/>
			<point x="372" y="-191"/>
			<point x="323" y="-202" type="curve"/>
			<point x="323" y="-211"/>
			<point x="325" y="-220"/>
			<point x="331" y="-226" type="curve"/>
			<point x="388" y="-217"/>
			<point x="437" y="-187"/>
			<point x="437" y="-127" type="curve" smooth="yes"/>
			<point x="437" y="-123"/>
			<point x="437" y="-120"/>
			<point x="437" y="-116" type="curve"/>
			<point x="434" y="-70"/>
			<point x="410" y="-41"/>
		</contour>
	</outline>
</glyph>
<glyph name="hbar" format="2">
	<unicode hex="0127"/>
	<advance width="538"/>
	<outline>
		<contour>
			<point x="456" y="122" type="curve" smooth="yes"/>
			<point x="456" y="271" type="line" smooth="yes"/>
			<point x="456" y="277"/>
			<point x="456" y="283"/>
			<point x="456" y="289" type="curve"/>
			<point x="455" y="337"/>
			<point x="449" y="378"/>
			<point x="429" y="405" type="curve" smooth="yes"/>
			<point x="412" y="427"/>
			<point x="381" y="439"/>
			<point x="346" y="439" type="curve" smooth="yes"/>
			<point x="297" y="439"/>
			<point x="237" y="426"/>
			<point x="176" y="358" type="curve"/>
			<point x="176" y="357"/>
			<point x="175" y="357"/>
			<point x="174" y="356" type="curve"/>
			<point x="173" y="354"/>
			<point x="171" y="352"/>
			<point x="169" y="351" type="curve"/>
			<point x="167" y="351"/>
			<point x="166" y="352"/>
			<point x="166" y="358" type="curve"/>
			<point x="167" y="530" type="line"/>
			<point x="225" y="530"/>
			<point x="283" y="530"/>
			<point x="341" y="530" type="curve"/>
			<point x="341" y="569" type="line"/>
			<point x="283" y="569"/>
			<point x="225" y="569"/>
			<point x="167" y="569" type="curve"/>
			<point x="167" y="583" type="line" smooth="yes"/>
			<point x="167" y="648"/>
			<point x="171" y="688"/>
			<point x="171" y="688" type="curve"/>
			<point x="171" y="695"/>
			<point x="167" y="698"/>
			<point x="158" y="698" type="curve"/>
			<point x="133" y="688"/>
			<point x="58" y="674"/>
			<point x="18" y="671" type="curve"/>
			<point x="16" y="663"/>
			<point x="18" y="647"/>
			<point x="24" y="641" type="curve"/>
			<point x="27" y="641"/>
			<point x="30" y="641"/>
			<point x="33" y="641" type="curve"/>
			<point x="75" y="638"/>
			<point x="87" y="638"/>
			<point x="88" y="569" type="curve"/>
			<point x="67" y="569"/>
			<point x="47" y="569"/>
			<point x="26" y="569" type="curve"/>
			<point x="26" y="530" type="line"/>
			<point x="47" y="530"/>
			<point x="67" y="530"/>
			<point x="88" y="530" type="curve"/>
			<point x="88" y="122" type="line" smooth="yes"/>
			<point x="88" y="39"/>
			<point x="76" y="35"/>
			<point x="18" y="31" type="curve"/>
			<point x="12" y="25"/>
			<point x="12" y="4"/>
			<point x="18" y="-2" type="curve"/>
			<point x="51" y="-1"/>
			<point x="88" y="0"/>
			<point x="128" y="0" type="curve" smooth="yes"/>
			<point x="133" y="0"/>
			<point x="139" y="0"/>
			<point x="144" y="0" type="curve" smooth="yes"/>
			<point x="175" y="0"/>
			<point x="203" y="-1"/>
			<point x="227" y="-2" type="curve"/>
			<point x="233" y="4"/>
			<point x="233" y="25"/>
			<point x="227" y="31" type="curve"/>
			<point x="176" y="35"/>
			<point x="167" y="39"/>
			<point x="167" y="122" type="curve" smooth="yes"/>
			<point x="167" y="286" type="line" smooth="yes"/>
			<point x="167" y="307"/>
			<point x="176" y="319"/>
			<point x="184" y="328" type="curve"/>
			<point x="214" y="358"/>
			<point x="253" y="378"/>
			<point x="287" y="384" type="curve"/>
			<point x="296" y="386"/>
			<point x="304" y="387"/>
			<point x="312" y="387" type="curve" smooth="yes"/>
			<point x="332" y="387"/>
			<point x="353" y="374"/>
			<point x="365" y="351" type="curve" smooth="yes"/>
			<point x="371" y="339"/>
			<point x="374" y="324"/>
			<point x="376" y="308" type="curve" smooth="yes"/>
			<point x="377" y="298"/>
			<point x="377" y="286"/>
			<point x="377" y="274" type="curve" smooth="yes"/>
			<point x="377" y="122" type="line" smooth="yes"/>
			<point x="377" y="40"/>
			<point x="367" y="36"/>
			<point x="315" y="31" type="curve"/>
			<point x="310" y="25"/>
			<point x="310" y="4"/>
			<point x="315" y="-2" type="curve"/>
			<point x="339" y="-1"/>
			<point x="367" y="0"/>
			<point x="400" y="0" type="curve" smooth="yes"/>
			<point x="406" y="0"/>
			<point x="411" y="0"/>
			<point x="417" y="0" type="curve" smooth="yes"/>
			<point x="457" y="0"/>
			<point x="490" y="-1"/>
			<point x="523" y="-2" type="curve"/>
			<point x="528" y="4"/>
			<point x="528" y="25"/>
			<point x="523" y="31" type="curve"/>
			<point x="467" y="36"/>
			<point x="456" y="40"/>
		</contour>
	</outline>
</glyph>
<glyph name="Idotaccent" format="2">
	<unicode hex="0130"/>
	<advance width="297"/>
	<outline>
		<contour>
			<point x="191" y="122" type="curve" smooth="yes"/>
			<point x="191" y="523" type="line" smooth="yes"/>
			<point x="191" y="606"/>
			<point x="208" y="611"/>
			<point x="278" y="614" type="curve"/>
			<point x="284" y="620"/>
			<point x="284" y="641"/>
			<point x="278" y="647" type="curve"/>
			<point x="234" y="646"/>
			<point x="187" y="645"/>
			<point x="148" y="645" type="curve" smooth="yes"/>
			<point x="115" y="645"/>
			<point x="66" y="646"/>
			<point x="19" y="647" type="curve"/>
			<point x="13" y="641"/>
			<point x="13" y="620"/>
			<point x="19" y="614" type="curve"/>
			<point x="89" y="611"/>
			<point x="106" y="606"/>
			<point x="106" y="523" type="curve" smooth="yes"/>
			<point x="106" y="122" type="line" smooth="yes"/>
			<point x="106" y="39"/>
			<point x="89" y="34"/>
			<point x="19" y="31" type="curve"/>
			<point x="13" y="25"/>
			<point x="13" y="4"/>
			<point x="19" y="-2" type="curve"/>
			<point x="64" y="-1"/>
			<point x="113" y="0"/>
			<point x="149" y="0" type="curve" smooth="yes"/>
			<point x="185" y="0"/>
			<point x="233" y="-1"/>
			<point x="278" y="-2" type="curve"/>
			<point x="284" y="4"/>
			<point x="284" y="25"/>
			<point x="278" y="31" type="curve"/>
			<point x="208" y="34"/>
			<point x="191" y="39"/>
		</contour>
		<contour>
			<point x="97" y="753" type="curve" smooth="yes"/>
			<point name=".hr01" x="97" y="725"/>
			<point x="121" y="701"/>
			<point x="149" y="701" type="curve" smooth="yes"/>
			<point x="177" y="701"/>
			<point x="201" y="725"/>
			<point x="201" y="753" type="curve" smooth="yes"/>
			<point x="201" y="781"/>
			<point x="177" y="805"/>
			<point x="149" y="805" type="curve" smooth="yes"/>
			<point x="121" y="805"/>
			<point x="97" y="781"/>
		</contour>
	</outline>
</glyph>
<glyph name="dotlessi" format="2">
	<unicode hex="0131"/>
	<advance width="271"/>
	<outline>
		<contour>
			<point x="181" y="123" type="curve" smooth="yes"/>
			<point x="181" y="321" type="line" smooth="yes"/>
			<point x="181" y="371"/>
			<point x="182" y="401"/>
			<point x="185" y="435" type="curve"/>
			<point x="185" y="439"/>
			<point x="180" y="442"/>
			<point x="172" y="442" type="curve"/>
			<point x="144" y="431"/>
			<point x="86" y="417"/>
			<point x="35" y="413" type="curve"/>
			<point x="33" y="406"/>
			<point x="35" y="391"/>
			<point x="37" y="385" type="curve"/>
			<point x="92" y="380"/>
			<point x="102" y="374"/>
			<point x="102" y="317" type="curve" smooth="yes"/>
			<point x="102" y="123" type="line" smooth="yes"/>
			<point x="102" y="41"/>
			<point x="91" y="36"/>
			<point x="30" y="31" type="curve"/>
			<point x="24" y="25"/>
			<point x="24" y="4"/>
			<point x="30" y="-2" type="curve"/>
			<point x="63" y="-1"/>
			<point x="102" y="0"/>
			<point x="142" y="0" type="curve" smooth="yes"/>
			<point x="182" y="0"/>
			<point x="220" y="-1"/>
			<point x="253" y="-2" type="curve"/>
			<point x="259" y="4"/>
			<point x="259" y="25"/>
			<point x="253" y="31" type="curve"/>
			<point x="192" y="35"/>
			<point x="181" y="41"/>
		</contour>
	</outline>
	<anchor name="t.uni0302" x="124" y="500"/>
	<anchor name="m.uni0316_2" x="139" y="-108"/>
</glyph>
<glyph name="uni0136" format="2">
	<unicode hex="0136"/>
	<advance width="637"/>
	<outline>
		<contour>
			<point x="191" y="122" type="curve" smooth="yes"/>
			<point x="191" y="309" type="line"/>
			<point x="225" y="308"/>
			<point x="254" y="297"/>
			<point x="274" y="271" type="curve" smooth="yes"/>
			<point x="297.082" y="241.891"/>
			<point x="407.918" y="102.109"/>
			<point x="431" y="73" type="curve" smooth="yes"/>
			<point x="451" y="47"/>
			<point x="465" y="20"/>
			<point x="467" y="4" type="curve"/>
			<point x="467" y="1"/>
			<point x="468" y="-2"/>
			<point x="472" y="-2" type="curve"/>
			<point x="492" y="-1"/>
			<point x="505" y="0"/>
			<point x="526" y="0" type="curve" smooth="yes"/>
			<point x="560" y="0"/>
			<point x="594" y="-1"/>
			<point x="627" y="-2" type="curve"/>
			<point x="633" y="4"/>
			<point x="633" y="25"/>
			<point x="627" y="31" type="curve"/>
			<point x="598" y="34"/>
			<point x="570" y="37"/>
			<point x="539" y="73" type="curve" smooth="yes"/>
			<point x="320" y="333" type="line"/>
			<point x="312" y="342"/>
			<point x="307" y="350"/>
			<point x="307" y="358" type="curve" smooth="yes"/>
			<point x="307" y="365"/>
			<point x="308" y="372"/>
			<point x="342" y="407" type="curve" smooth="yes"/>
			<point x="356.286" y="421.675"/>
			<point x="467.598" y="536.015"/>
			<point x="489" y="558" type="curve" smooth="yes"/>
			<point x="535" y="607"/>
			<point x="575" y="611"/>
			<point x="615" y="614" type="curve"/>
			<point x="621" y="620"/>
			<point x="621" y="641"/>
			<point x="615" y="647" type="curve"/>
			<point x="584" y="646"/>
			<point x="552" y="645"/>
			<point x="520" y="645" type="curve" smooth="yes"/>
			<point x="483" y="645"/>
			<point x="444" y="646"/>
			<point x="407" y="647" type="curve"/>
			<point x="401" y="641"/>
			<point x="401" y="620"/>
			<point x="407" y="614" type="curve"/>
			<point x="443" y="611"/>
			<point x="477" y="607"/>
			<point x="435" y="562" type="curve" smooth="yes"/>
			<point x="270" y="386" type="line" smooth="yes"/>
			<point x="249" y="363"/>
			<point x="226" y="350"/>
			<point x="191" y="347" type="curve"/>
			<point x="191" y="367.466"/>
			<point x="191" y="502.534"/>
			<point x="191" y="523" type="curve" smooth="yes"/>
			<point x="191" y="606"/>
			<point x="208" y="611"/>
			<point x="278" y="614" type="curve"/>
			<point x="284" y="620"/>
			<point x="284" y="641"/>
			<point x="278" y="647" type="curve"/>
			<point x="232" y="646"/>
			<point x="185" y="645"/>
			<point x="148" y="645" type="curve" smooth="yes"/>
			<point x="110" y="645"/>
			<point x="64" y="646"/>
			<point x="19" y="647" type="curve"/>
			<point x="13" y="641"/>
			<point x="13" y="620"/>
			<point x="19" y="614" type="curve"/>
			<point x="89" y="611"/>
			<point x="106" y="606"/>
			<point x="106" y="523" type="curve" smooth="yes"/>
			<point x="106" y="122" type="line" smooth="yes"/>
			<point x="106" y="39"/>
			<point x="89" y="34"/>
			<point x="19" y="31" type="curve"/>
			<point x="13" y="25"/>
			<point x="13" y="4"/>
			<point x="19" y="-2" type="curve"/>
			<point x="64" y="-1"/>
			<point x="110" y="0"/>
			<point x="149" y="0" type="curve" smooth="yes"/>
			<point x="187" y="0"/>
			<point x="233" y="-1"/>
			<point x="278" y="-2" type="curve"/>
			<point x="284" y="4"/>
			<point x="284" y="25"/>
			<point x="278" y="31" type="curve"/>
			<point x="208" y="34"/>
			<point x="191" y="39"/>
		</contour>
		<contour>
			<point x="352" y="-41" type="curve" smooth="yes"/>
			<point x="323" y="-41"/>
			<point x="302" y="-60"/>
			<point x="302" y="-84" type="curve" smooth="yes"/>
			<point x="302" y="-111"/>
			<point x="327" y="-120"/>
			<point x="344" y="-123" type="curve"/>
			<point x="362" y="-125"/>
			<point x="375" y="-129"/>
			<point x="375" y="-149" type="curve" smooth="yes"/>
			<point x="375" y="-167"/>
			<point x="349" y="-191"/>
			<point x="300" y="-202" type="curve"/>
			<point x="300" y="-211"/>
			<point x="302" y="-220"/>
			<point x="308" y="-226" type="curve"/>
			<point x="365" y="-217"/>
			<point x="414" y="-187"/>
			<point x="414" y="-127" type="curve" smooth="yes"/>
			<point x="414" y="-75"/>
			<point x="390" y="-41"/>
		</contour>
	</outline>
</glyph>
<glyph name="lacute" format="2">
	<unicode hex="013A"/>
	<advance width="264"/>
	<outline>
		<contour>
			<point x="95" y="122" type="line" smooth="yes"/>
			<point x="95" y="39"/>
			<point x="84" y="34"/>
			<point x="23" y="31" type="curve"/>
			<point x="17" y="25"/>
			<point x="17" y="4"/>
			<point x="23" y="-2" type="curve"/>
			<point x="58" y="-1"/>
			<point x="95" y="0"/>
			<point x="135" y="0" type="curve" smooth="yes"/>
			<point x="175" y="0"/>
			<point x="213" y="-1"/>
			<point x="246" y="-2" type="curve"/>
			<point x="252" y="4"/>
			<point x="252" y="25"/>
			<point x="246" y="31" type="curve"/>
			<point x="185" y="34"/>
			<point x="174" y="39"/>
			<point x="174" y="122" type="curve" smooth="yes"/>
			<point x="174" y="583" type="line" smooth="yes"/>
			<point x="174" y="648"/>
			<point x="178" y="688"/>
			<point x="178" y="688" type="curve"/>
			<point x="178" y="695"/>
			<point x="174" y="698"/>
			<point x="165" y="698" type="curve"/>
			<point x="140" y="688"/>
			<point x="65" y="674"/>
			<point x="25" y="671" type="curve"/>
			<point x="23" y="663"/>
			<point x="25" y="647"/>
			<point x="31" y="641" type="curve"/>
			<point x="89" y="637"/>
			<point x="95" y="634"/>
			<point x="95" y="559" type="curve" smooth="yes"/>
		</contour>
		<contour>
			<point x="203" y="847" type="curve"/>
			<point x="162" y="818"/>
			<point x="120" y="790"/>
			<point x="79" y="761" type="curve"/>
			<point x="76" y="759"/>
			<point x="73" y="757"/>
			<point x="71" y="755" type="curve" smooth="yes"/>
			<point x="65" y="749"/>
			<point x="64" y="745"/>
			<point x="64" y="740" type="curve" smooth="yes"/>
			<point x="64" y="732"/>
			<point x="70" y="725"/>
			<point x="79" y="725" type="curve" smooth="yes"/>
			<point x="88" y="725"/>
			<point x="100" y="728"/>
			<point x="121" y="737" type="curve" smooth="yes"/>
			<point x="249" y="789" type="line"/>
			<point x="265" y="795" type="line"/>
			<point x="252" y="816"/>
			<point x="232" y="834"/>
		</contour>
	</outline>
</glyph>
<glyph name="uni013C" format="2">
	<unicode hex="013C"/>
	<advance width="264"/>
	<outline>
		<contour>
			<point x="95" y="122" type="line" smooth="yes"/>
			<point x="95" y="39"/>
			<point x="84" y="34"/>
			<point x="23" y="31" type="curve"/>
			<point x="17" y="25"/>
			<point x="17" y="4"/>
			<point x="23" y="-2" type="curve"/>
			<point x="58" y="-1"/>
			<point x="95" y="0"/>
			<point x="135" y="0" type="curve" smooth="yes"/>
			<point x="175" y="0"/>
			<point x="213" y="-1"/>
			<point x="246" y="-2" type="curve"/>
			<point x="252" y="4"/>
			<point x="252" y="25"/>
			<point x="246" y="31" type="curve"/>
			<point x="185" y="34"/>
			<point x="174" y="39"/>
			<point x="174" y="122" type="curve" smooth="yes"/>
			<point x="174" y="583" type="line" smooth="yes"/>
			<point x="174" y="648"/>
			<point x="178" y="688"/>
			<point x="178" y="688" type="curve"/>
			<point x="178" y="695"/>
			<point x="174" y="698"/>
			<point x="165" y="698" type="curve"/>
			<point x="140" y="688"/>
			<point x="65" y="674"/>
			<point x="25" y="671" type="curve"/>
			<point x="23" y="663"/>
			<point x="25" y="647"/>
			<point x="31" y="641" type="curve"/>
			<point x="89" y="637"/>
			<point x="95" y="634"/>
			<point x="95" y="559" type="curve" smooth="yes"/>
		</contour>
		<contour>
			<point x="132" y="-41" type="curve" smooth="yes"/>
			<point x="103" y="-41"/>
			<point x="82" y="-60"/>
			<point x="82" y="-84" type="curve" smooth="yes"/>
			<point x="82" y="-111"/>
			<point x="107" y="-120"/>
			<point x="124" y="-123" type="curve"/>
			<point x="142" y="-125"/>
			<point name=".hr01" x="155" y="-129"/>
			<point x="155" y="-149" type="curve" smooth="yes"/>
			<point x="155" y="-167"/>
			<point x="129" y="-191"/>
			<point x="80" y="-202" type="curve"/>
			<point x="80" y="-211"/>
			<point x="82" y="-220"/>
			<point x="88" y="-226" type="curve"/>
			<point x="145" y="-217"/>
			<point x="194" y="-187"/>
			<point x="194" y="-127" type="curve" smooth="yes"/>
			<point x="194" y="-75"/>
			<point x="170" y="-41"/>
		</contour>
	</outline>
</glyph>
<glyph name="lcaron" format="2">
	<unicode hex="013E"/>
	<advance width="290"/>
	<outline>
		<contour>
			<point x="95" y="122" type="line" smooth="yes"/>
			<point x="95" y="39"/>
			<point x="84" y="34"/>
			<point x="23" y="31" type="curve"/>
			<point x="17" y="25"/>
			<point x="17" y="4"/>
			<point x="23" y="-2" type="curve"/>
			<point x="58" y="-1"/>
			<point x="95" y="0"/>
			<point x="135" y="0" type="curve" smooth="yes"/>
			<point x="175" y="0"/>
			<point x="213" y="-1"/>
			<point x="246" y="-2" type="curve"/>
			<point x="252" y="4"/>
			<point x="252" y="25"/>
			<point x="246" y="31" type="curve"/>
			<point x="185" y="34"/>
			<point x="174" y="39"/>
			<point x="174" y="122" type="curve" smooth="yes"/>
			<point x="174" y="583" type="line" smooth="yes"/>
			<point x="174" y="648"/>
			<point x="178" y="688"/>
			<point x="178" y="688" type="curve"/>
			<point x="178" y="695"/>
			<point x="174" y="698"/>
			<point x="165" y="698" type="curve"/>
			<point x="140" y="688"/>
			<point x="65" y="674"/>
			<point x="25" y="671" type="curve"/>
			<point x="23" y="663"/>
			<point x="25" y="647"/>
			<point x="31" y="641" type="curve"/>
			<point x="89" y="637"/>
			<point x="95" y="634"/>
			<point x="95" y="559" type="curve" smooth="yes"/>
		</contour>
		<contour>
			<point x="265" y="698" type="curve" smooth="yes"/>
			<point x="235" y="698"/>
			<point x="221" y="680"/>
			<point x="221" y="664" type="curve" smooth="yes"/>
			<point x="221" y="648"/>
			<point name=".hr01" x="226" y="626"/>
			<point x="267" y="626" type="curve" smooth="yes"/>
			<point x="275" y="626"/>
			<point x="281" y="618"/>
			<point x="281" y="605" type="curve" smooth="yes"/>
			<point x="281" y="582"/>
			<point x="260" y="545"/>
			<point x="218" y="536" type="curve"/>
			<point x="223" y="519" type="line"/>
			<point x="293" y="527"/>
			<point x="325" y="589"/>
			<point x="325" y="625" type="curve" smooth="yes"/>
			<point x="325" y="661"/>
			<point x="303" y="698"/>
		</contour>
	</outline>
</glyph>
<glyph name="Ldot" format="2">
	<unicode hex="013F"/>
	<advance width="528"/>
	<outline>
		<contour>
			<point x="149" y="0" type="curve" smooth="yes"/>
			<point x="362" y="0" type="line" smooth="yes"/>
			<point x="389" y="0"/>
			<point x="481" y="-2"/>
			<point x="481" y="-2" type="curve"/>
			<point x="491" y="48"/>
			<point x="501" y="113"/>
			<point x="507" y="165" type="curve"/>
			<point x="497" y="170"/>
			<point x="486" y="172"/>
			<point x="474" y="170" type="curve"/>
			<point x="454" y="98"/>
			<point x="417" y="39"/>
			<point x="311" y="39" type="curve" smooth="yes"/>
			<point x="294.007" y="39"/>
			<point x="256.288" y="39"/>
			<point x="248" y="39" type="curve" smooth="yes"/>
			<point x="209" y="39"/>
			<point x="191" y="58"/>
			<point x="191" y="109" type="curve" smooth="yes"/>
			<point x="191" y="169.865"/>
			<point x="191" y="462.135"/>
			<point x="191" y="523" type="curve" smooth="yes"/>
			<point x="191" y="606"/>
			<point x="208" y="611"/>
			<point x="278" y="614" type="curve"/>
			<point x="284" y="620"/>
			<point x="284" y="641"/>
			<point x="278" y="647" type="curve"/>
			<point x="233" y="646"/>
			<point x="186" y="645"/>
			<point x="148" y="645" type="curve" smooth="yes"/>
			<point x="112" y="645"/>
			<point x="65" y="646"/>
			<point x="19" y="647" type="curve"/>
			<point x="13" y="641"/>
			<point x="13" y="620"/>
			<point x="19" y="614" type="curve"/>
			<point x="89" y="611"/>
			<point x="106" y="606"/>
			<point x="106" y="523" type="curve" smooth="yes"/>
			<point x="106" y="474.554"/>
			<point x="106" y="122"/>
			<point x="106" y="122" type="curve"/>
			<point x="106" y="39"/>
			<point x="89" y="34"/>
			<point x="19" y="31" type="curve"/>
			<point x="13" y="25"/>
			<point x="13" y="4"/>
			<point x="19" y="-2" type="curve"/>
			<point x="58" y="-1"/>
			<point x="115" y="0"/>
		</contour>
		<contour>
			<point x="289" y="335" type="curve" smooth="yes"/>
			<point x="289" y="307"/>
			<point x="313" y="283"/>
			<point x="341" y="283" type="curve" smooth="yes"/>
			<point x="369" y="283"/>
			<point x="393" y="307"/>
			<point x="393" y="335" type="curve" smooth="yes"/>
			<point x="393" y="363"/>
			<point x="369" y="387"/>
			<point x="341" y="387" type="curve" smooth="yes"/>
			<point x="313" y="387"/>
			<point x="289" y="363"/>
		</contour>
	</outline>
</glyph>
<glyph name="ldot" format="2">
	<unicode hex="0140"/>
	<advance width="264"/>
	<outline>
		<contour>
			<point x="95" y="122" type="line" smooth="yes"/>
			<point x="95" y="39"/>
			<point x="84" y="34"/>
			<point x="23" y="31" type="curve"/>
			<point x="17" y="25"/>
			<point x="17" y="4"/>
			<point x="23" y="-2" type="curve"/>
			<point x="58" y="-1"/>
			<point x="95" y="0"/>
			<point x="135" y="0" type="curve" smooth="yes"/>
			<point x="175" y="0"/>
			<point x="213" y="-1"/>
			<point x="246" y="-2" type="curve"/>
			<point x="252" y="4"/>
			<point x="252" y="25"/>
			<point x="246" y="31" type="curve"/>
			<point x="185" y="34"/>
			<point x="174" y="39"/>
			<point x="174" y="122" type="curve" smooth="yes"/>
			<point x="174" y="583" type="line" smooth="yes"/>
			<point x="174" y="648"/>
			<point x="178" y="688"/>
			<point x="178" y="688" type="curve"/>
			<point x="178" y="695"/>
			<point x="174" y="698"/>
			<point x="165" y="698" type="curve"/>
			<point x="140" y="688"/>
			<point x="65" y="674"/>
			<point x="25" y="671" type="curve"/>
			<point x="23" y="663"/>
			<point x="25" y="647"/>
			<point x="31" y="641" type="curve"/>
			<point x="89" y="637"/>
			<point x="95" y="634"/>
			<point x="95" y="559" type="curve" smooth="yes"/>
		</contour>
		<contour>
			<point x="213" y="360" type="curve" smooth="yes"/>
			<point x="213" y="336"/>
			<point x="231" y="313"/>
			<point x="261" y="313" type="curve" smooth="yes"/>
			<point x="288" y="313"/>
			<point x="308" y="335"/>
			<point x="308" y="360" type="curve" smooth="yes"/>
			<point x="308" y="387"/>
			<point x="284" y="409"/>
			<point x="261" y="409" type="curve" smooth="yes"/>
			<point x="234" y="409"/>
			<point x="213" y="385"/>
		</contour>
	</outline>
</glyph>
<glyph name="ohungarumlaut" format="2">
	<unicode hex="0151"/>
	<advance width="504"/>
	<outline>
		<contour>
			<point x="41" y="205" type="curve" smooth="yes"/>
			<point x="41" y="103"/>
			<point x="109" y="-10"/>
			<point x="251" y="-10" type="curve" smooth="yes"/>
			<point x="315" y="-10"/>
			<point x="364" y="13"/>
			<point x="398" y="46" type="curve" smooth="yes"/>
			<point x="443" y="90"/>
			<point x="463" y="153"/>
			<point x="463" y="214" type="curve" smooth="yes"/>
			<point x="463" y="318"/>
			<point x="406" y="439"/>
			<point x="253" y="439" type="curve" smooth="yes"/>
			<point x="187" y="439"/>
			<point x="133" y="412"/>
			<point x="96" y="369" type="curve" smooth="yes"/>
			<point x="60" y="326"/>
			<point x="41" y="268"/>
		</contour>
		<contour>
			<point x="238" y="404" type="curve" smooth="yes"/>
			<point x="324" y="404"/>
			<point x="377" y="326"/>
			<point x="377" y="182" type="curve" smooth="yes"/>
			<point x="377" y="56"/>
			<point x="312" y="25"/>
			<point x="265" y="25" type="curve" smooth="yes"/>
			<point x="161" y="25"/>
			<point x="127" y="151"/>
			<point x="127" y="228" type="curve" smooth="yes"/>
			<point x="127" y="315"/>
			<point x="148" y="404"/>
		</contour>
		<contour>
			<point x="397" y="611" type="curve" smooth="yes"/>
			<point x="397" y="630"/>
			<point x="380" y="648"/>
			<point x="359" y="648" type="curve" smooth="yes"/>
			<point x="347" y="648"/>
			<point x="340" y="645"/>
			<point x="335" y="636" type="curve" smooth="yes"/>
			<point x="257" y="497" type="line"/>
			<point x="256" y="496"/>
			<point x="256" y="494"/>
			<point x="256" y="493" type="curve"/>
			<point x="256" y="485"/>
			<point x="265" y="480"/>
			<point x="270" y="480" type="curve" smooth="yes"/>
			<point x="272" y="480"/>
			<point x="274" y="480"/>
			<point x="276" y="482" type="curve" smooth="yes"/>
			<point x="390" y="592" type="line" smooth="yes"/>
			<point x="396" y="598"/>
			<point x="397" y="605"/>
		</contour>
		<contour>
			<point x="265" y="617" type="curve" smooth="yes"/>
			<point x="265" y="638"/>
			<point x="248" y="653"/>
			<point x="227" y="653" type="curve" smooth="yes"/>
			<point x="223" y="653"/>
			<point x="207" y="652"/>
			<point x="201" y="639" type="curve" smooth="yes"/>
			<point x="137" y="493" type="line"/>
			<point x="136" y="492"/>
			<point x="136" y="491"/>
			<point x="136" y="490" type="curve"/>
			<point x="136" y="482"/>
			<point x="144" y="477"/>
			<point x="150" y="477" type="curve" smooth="yes"/>
			<point x="153" y="477"/>
			<point x="156" y="478"/>
			<point x="158" y="480" type="curve"/>
			<point x="260" y="601" type="line" smooth="yes"/>
			<point x="264" y="606"/>
			<point x="265" y="612"/>
		</contour>
	</outline>
	<anchor name="m.uni0316_2" x="243" y="-110"/>
	<anchor name="b.uni0321_4" x="372" y="44"/>
</glyph>
<glyph name="OE" format="2">
	<unicode hex="0152"/>
	<advance width="869"/>
	<outline>
		<contour>
			<point x="606" y="366" type="curve" smooth="yes"/>
			<point x="503" y="366" type="line"/>
			<point x="503" y="535" type="line" smooth="yes"/>
			<point x="503" y="548"/>
			<point x="503" y="560"/>
			<point x="503" y="573" type="curve" smooth="yes"/>
			<point x="503" y="597"/>
			<point x="515" y="605"/>
			<point x="539" y="605" type="curve" smooth="yes"/>
			<point x="652" y="605" type="line" smooth="yes"/>
			<point x="665" y="605"/>
			<point x="677" y="605"/>
			<point x="690" y="605" type="curve" smooth="yes"/>
			<point x="742" y="605"/>
			<point x="776" y="546"/>
			<point x="783" y="503" type="curve"/>
			<point x="792" y="504"/>
			<point x="801" y="505"/>
			<point x="810" y="506" type="curve"/>
			<point x="805" y="552"/>
			<point x="801" y="599"/>
			<point x="796" y="645" type="curve"/>
			<point x="789" y="645"/>
			<point x="783" y="645"/>
			<point x="776" y="645" type="curve" smooth="yes"/>
			<point x="763" y="645"/>
			<point x="750" y="645"/>
			<point x="737" y="645" type="curve" smooth="yes"/>
			<point x="461" y="645" type="line" smooth="yes"/>
			<point x="424" y="645"/>
			<point x="370" y="646"/>
			<point x="352" y="646" type="curve" smooth="yes"/>
			<point x="347" y="646" type="line" smooth="yes"/>
			<point x="161" y="646"/>
			<point x="42" y="498"/>
			<point x="42" y="318" type="curve" smooth="yes"/>
			<point x="42" y="138"/>
			<point x="170" y="-1"/>
			<point x="358" y="-2" type="curve"/>
			<point x="358" y="-2"/>
			<point name=".hr01" x="420" y="0"/>
			<point x="460" y="0" type="curve" smooth="yes"/>
			<point x="670" y="0" type="line" smooth="yes"/>
			<point x="715" y="0"/>
			<point x="759" y="0"/>
			<point x="804" y="0" type="curve"/>
			<point x="813" y="53"/>
			<point x="821" y="107"/>
			<point x="830" y="160" type="curve"/>
			<point x="821" y="162"/>
			<point x="812" y="163"/>
			<point x="803" y="165" type="curve"/>
			<point x="788" y="92"/>
			<point x="759" y="39"/>
			<point x="694" y="39" type="curve" smooth="yes"/>
			<point x="681" y="39"/>
			<point x="668" y="39"/>
			<point x="655" y="39" type="curve" smooth="yes"/>
			<point x="558" y="39" type="line"/>
			<point x="539" y="39" type="line" smooth="yes"/>
			<point x="517" y="39"/>
			<point x="503" y="45"/>
			<point x="503" y="72" type="curve" smooth="yes"/>
			<point x="503" y="79"/>
			<point x="503" y="85"/>
			<point x="503" y="92" type="curve" smooth="yes"/>
			<point x="503" y="332" type="line"/>
			<point x="606" y="332" type="line" smooth="yes"/>
			<point x="640" y="332"/>
			<point x="651" y="316"/>
			<point x="657" y="288" type="curve" smooth="yes"/>
			<point x="659" y="278"/>
			<point x="661" y="267"/>
			<point x="663" y="257" type="curve"/>
			<point x="663" y="255"/>
			<point x="664" y="253"/>
			<point x="665" y="252" type="curve"/>
			<point x="667" y="251"/>
			<point x="669" y="250"/>
			<point x="671" y="250" type="curve" smooth="yes"/>
			<point x="679" y="250"/>
			<point x="686" y="250"/>
			<point x="694" y="250" type="curve"/>
			<point x="696" y="253" type="line"/>
			<point x="693" y="285"/>
			<point x="688" y="314"/>
			<point x="688" y="349" type="curve" smooth="yes"/>
			<point x="688" y="382"/>
			<point x="694" y="412"/>
			<point x="696" y="444" type="curve"/>
			<point x="696" y="446"/>
			<point x="695" y="448"/>
			<point x="693" y="448" type="curve" smooth="yes"/>
			<point x="686" y="448"/>
			<point x="678" y="448"/>
			<point x="671" y="448" type="curve" smooth="yes"/>
			<point x="669" y="448"/>
			<point x="667" y="447"/>
			<point x="666" y="446" type="curve"/>
			<point x="665" y="444"/>
			<point x="664" y="442"/>
			<point x="664" y="440" type="curve"/>
			<point x="662" y="430"/>
			<point x="659" y="420"/>
			<point x="657" y="410" type="curve"/>
			<point x="650" y="382"/>
			<point x="642" y="366"/>
		</contour>
		<contour>
			<point x="356" y="32" type="line" smooth="yes"/>
			<point name=".hr02" x="253" y="32"/>
			<point x="136" y="120"/>
			<point x="136" y="327" type="curve" smooth="yes"/>
			<point x="136" y="541"/>
			<point x="237" y="611"/>
			<point x="334" y="611" type="curve" smooth="yes"/>
			<point x="369" y="611" type="line" smooth="yes"/>
			<point x="407" y="611"/>
			<point x="418" y="605"/>
			<point name=".hr03" x="418" y="574" type="curve" smooth="yes"/>
			<point x="418" y="564"/>
			<point x="418" y="553"/>
			<point x="418" y="543" type="curve" smooth="yes"/>
			<point x="418" y="103" type="line" smooth="yes"/>
			<point x="418" y="93"/>
			<point x="418" y="82"/>
			<point x="418" y="72" type="curve" smooth="yes"/>
			<point x="418" y="44"/>
			<point x="409" y="32"/>
			<point x="369" y="32" type="curve" smooth="yes"/>
		</contour>
	</outline>
	<anchor name="m.uni0302" x="460" y="850"/>
</glyph>
<glyph name="uni0157" format="2">
	<unicode hex="0157"/>
	<advance width="372"/>
	<outline>
		<contour>
			<point x="179" y="261" type="line" smooth="yes"/>
			<point x="179" y="287"/>
			<point x="191" y="310"/>
			<point x="203" y="328" type="curve" smooth="yes"/>
			<point x="214" y="344"/>
			<point x="237" y="377"/>
			<point x="249" y="377" type="curve" smooth="yes"/>
			<point x="258" y="377"/>
			<point x="267" y="375"/>
			<point x="275" y="364" type="curve" smooth="yes"/>
			<point x="282" y="354"/>
			<point name=".hr01" x="294" y="341"/>
			<point x="311" y="341" type="curve" smooth="yes"/>
			<point x="335" y="341"/>
			<point x="358" y="366"/>
			<point x="358" y="391" type="curve" smooth="yes"/>
			<point x="358" y="410"/>
			<point x="340" y="439"/>
			<point x="298" y="439" type="curve" smooth="yes"/>
			<point x="251" y="439"/>
			<point x="210" y="395"/>
			<point x="187" y="356" type="curve"/>
			<point x="181" y="345"/>
			<point x="176" y="353"/>
			<point x="176" y="358" type="curve"/>
			<point x="174" y="398"/>
			<point x="173" y="424"/>
			<point x="168" y="434" type="curve"/>
			<point x="166" y="439"/>
			<point x="164" y="442"/>
			<point x="156" y="442" type="curve"/>
			<point x="128" y="431"/>
			<point x="102" y="422"/>
			<point x="33" y="413" type="curve"/>
			<point x="31" y="407"/>
			<point x="33" y="391"/>
			<point x="35" y="385" type="curve"/>
			<point x="89" y="380"/>
			<point x="100" y="375"/>
			<point x="100" y="317" type="curve" smooth="yes"/>
			<point x="100" y="122" type="line" smooth="yes"/>
			<point x="100" y="39"/>
			<point x="88" y="35"/>
			<point x="26" y="31" type="curve"/>
			<point x="20" y="25"/>
			<point x="20" y="4"/>
			<point x="26" y="-2" type="curve"/>
			<point x="61" y="-1"/>
			<point x="100" y="0"/>
			<point x="140" y="0" type="curve" smooth="yes"/>
			<point x="180" y="0"/>
			<point x="226" y="-1"/>
			<point x="261" y="-2" type="curve"/>
			<point x="267" y="4"/>
			<point x="267" y="25"/>
			<point x="261" y="31" type="curve"/>
			<point x="191" y="36"/>
			<point name=".hr02" x="179" y="39"/>
			<point x="179" y="122" type="curve" smooth="yes"/>
		</contour>
		<contour>
			<point x="137" y="-41" type="curve" smooth="yes"/>
			<point x="108" y="-41"/>
			<point x="87" y="-60"/>
			<point x="87" y="-84" type="curve" smooth="yes"/>
			<point x="87" y="-111"/>
			<point x="112" y="-120"/>
			<point x="129" y="-123" type="curve"/>
			<point x="147" y="-125"/>
			<point name=".hr03" x="160" y="-129"/>
			<point x="160" y="-149" type="curve" smooth="yes"/>
			<point x="160" y="-167"/>
			<point x="134" y="-191"/>
			<point x="85" y="-202" type="curve"/>
			<point x="85" y="-211"/>
			<point x="87" y="-220"/>
			<point x="93" y="-226" type="curve"/>
			<point x="150" y="-217"/>
			<point x="199" y="-187"/>
			<point x="199" y="-127" type="curve" smooth="yes"/>
			<point x="199" y="-75"/>
			<point x="175" y="-41"/>
		</contour>
	</outline>
</glyph>
<glyph name="tcaron" format="2">
	<unicode hex="0165"/>
	<advance width="374"/>
	<outline>
		<contour>
			<point x="43" y="429" type="line" smooth="yes"/>
			<point x="29" y="429"/>
			<point x="25" y="417"/>
			<point x="25" y="409" type="curve" smooth="yes"/>
			<point x="25" y="396" type="line" smooth="yes"/>
			<point x="25" y="391"/>
			<point x="26" y="390"/>
			<point x="30" y="390" type="curve" smooth="yes"/>
			<point x="89" y="390" type="line"/>
			<point x="89" y="335.511"/>
			<point x="89" y="115.969"/>
			<point x="89" y="89" type="curve" smooth="yes"/>
			<point x="89" y="18"/>
			<point x="120" y="-10"/>
			<point x="166" y="-10" type="curve" smooth="yes"/>
			<point x="212" y="-10"/>
			<point x="262" y="12"/>
			<point x="301" y="56" type="curve"/>
			<point x="299" y="66"/>
			<point x="293" y="72"/>
			<point x="283" y="73" type="curve"/>
			<point x="257" y="53"/>
			<point x="227" y="45"/>
			<point x="201" y="45" type="curve" smooth="yes"/>
			<point x="174" y="45"/>
			<point x="168" y="75"/>
			<point x="168" y="137" type="curve" smooth="yes"/>
			<point x="168" y="167.929"/>
			<point x="168" y="319.706"/>
			<point x="168" y="390" type="curve"/>
			<point x="178.117" y="390"/>
			<point x="251.767" y="390"/>
			<point x="272" y="390" type="curve" smooth="yes"/>
			<point x="282" y="390"/>
			<point x="296" y="394"/>
			<point x="296" y="403" type="curve" smooth="yes"/>
			<point x="296" y="406.287"/>
			<point x="296" y="420.042"/>
			<point x="296" y="423" type="curve" smooth="yes"/>
			<point x="296" y="427"/>
			<point x="293" y="429"/>
			<point x="288" y="429" type="curve" smooth="yes"/>
			<point x="266.766" y="429"/>
			<point x="194.542" y="429"/>
			<point x="168" y="429" type="curve"/>
			<point x="168" y="468" type="line" smooth="yes"/>
			<point x="168" y="533"/>
			<point x="172" y="573"/>
			<point x="172" y="573" type="curve"/>
			<point x="172" y="579"/>
			<point x="169" y="582"/>
			<point x="164" y="582" type="curve" smooth="yes"/>
			<point x="160" y="582"/>
			<point x="151" y="578"/>
			<point x="142" y="573" type="curve" smooth="yes"/>
			<point x="131" y="567"/>
			<point x="121" y="562"/>
			<point x="108" y="559" type="curve"/>
			<point x="96" y="555"/>
			<point x="86" y="552"/>
			<point x="86" y="545" type="curve" smooth="yes"/>
			<point x="86" y="533"/>
			<point x="89" y="540"/>
			<point x="89" y="429" type="curve"/>
		</contour>
		<contour>
			<point x="266" y="698" type="curve" smooth="yes"/>
			<point x="236" y="698"/>
			<point x="222" y="680"/>
			<point x="222" y="664" type="curve" smooth="yes"/>
			<point x="222" y="648"/>
			<point x="227" y="626"/>
			<point x="268" y="626" type="curve" smooth="yes"/>
			<point x="276" y="626"/>
			<point x="282" y="618"/>
			<point x="282" y="605" type="curve" smooth="yes"/>
			<point x="282" y="582"/>
			<point x="261" y="545"/>
			<point x="219" y="536" type="curve"/>
			<point x="224" y="519" type="line"/>
			<point x="294" y="527"/>
			<point x="326" y="589"/>
			<point x="326" y="625" type="curve" smooth="yes"/>
			<point x="326" y="661"/>
			<point x="304" y="698"/>
		</contour>
	</outline>
</glyph>
<glyph name="uhungarumlaut" format="2">
	<unicode hex="0171"/>
	<advance width="531"/>
	<outline>
		<contour>
			<point x="442" y="130" type="curve" smooth="yes"/>
			<point x="442" y="298" type="line" smooth="yes"/>
			<point x="442" y="306"/>
			<point x="442" y="314"/>
			<point x="442" y="322" type="curve" smooth="yes"/>
			<point x="442" y="345"/>
			<point x="444" y="395"/>
			<point x="445" y="415" type="curve"/>
			<point x="446" y="421"/>
			<point x="446" y="425"/>
			<point x="446" y="425" type="curve"/>
			<point x="446" y="427"/>
			<point x="445" y="428"/>
			<point x="444" y="429" type="curve" smooth="yes"/>
			<point x="443" y="430"/>
			<point x="441" y="431"/>
			<point x="438" y="431" type="curve"/>
			<point x="433" y="430"/>
			<point x="418" y="429"/>
			<point x="403" y="429" type="curve" smooth="yes"/>
			<point x="371" y="429"/>
			<point x="335" y="430"/>
			<point x="301" y="431" type="curve"/>
			<point x="295" y="425"/>
			<point x="295" y="404"/>
			<point x="301" y="398" type="curve"/>
			<point x="350" y="395"/>
			<point x="363" y="383"/>
			<point x="363" y="317" type="curve" smooth="yes"/>
			<point x="363" y="124" type="line" smooth="yes"/>
			<point x="363" y="105"/>
			<point x="361" y="97"/>
			<point x="347" y="85" type="curve" smooth="yes"/>
			<point x="314" y="56"/>
			<point x="280" y="40"/>
			<point x="255" y="37" type="curve"/>
			<point x="252" y="37"/>
			<point x="250" y="37"/>
			<point x="247" y="37" type="curve" smooth="yes"/>
			<point x="217" y="37"/>
			<point x="167" y="51"/>
			<point x="167" y="140" type="curve" smooth="yes"/>
			<point x="167" y="299" type="line" smooth="yes"/>
			<point x="167" y="307"/>
			<point x="167" y="314"/>
			<point x="167" y="322" type="curve" smooth="yes"/>
			<point x="167" y="345"/>
			<point x="169" y="395"/>
			<point x="170" y="415" type="curve"/>
			<point x="171" y="421"/>
			<point x="171" y="425"/>
			<point x="171" y="425" type="curve"/>
			<point x="171" y="427"/>
			<point x="170" y="428"/>
			<point x="169" y="429" type="curve" smooth="yes"/>
			<point x="168" y="430"/>
			<point x="166" y="431"/>
			<point x="163" y="431" type="curve"/>
			<point x="160" y="430"/>
			<point x="152" y="430"/>
			<point x="143" y="429" type="curve"/>
			<point x="138" y="429"/>
			<point x="133" y="429"/>
			<point x="128" y="429" type="curve" smooth="yes"/>
			<point x="96" y="429"/>
			<point x="60" y="430"/>
			<point x="26" y="431" type="curve"/>
			<point x="20" y="425"/>
			<point x="20" y="404"/>
			<point x="26" y="398" type="curve"/>
			<point x="74" y="394"/>
			<point x="88" y="383"/>
			<point x="88" y="318" type="curve" smooth="yes"/>
			<point x="88" y="314"/>
			<point x="88" y="310"/>
			<point x="88" y="306" type="curve" smooth="yes"/>
			<point x="88" y="150" type="line" smooth="yes"/>
			<point x="88" y="142"/>
			<point x="88" y="134"/>
			<point x="88" y="126" type="curve" smooth="yes"/>
			<point x="88" y="61"/>
			<point x="115" y="-3"/>
			<point x="201" y="-9" type="curve"/>
			<point x="206" y="-10"/>
			<point x="212" y="-10"/>
			<point x="217" y="-10" type="curve" smooth="yes"/>
			<point x="256" y="-10"/>
			<point x="303" y="10"/>
			<point x="352" y="50" type="curve" smooth="yes"/>
			<point x="357" y="54"/>
			<point x="366" y="56"/>
			<point x="367" y="49" type="curve" smooth="yes"/>
			<point x="370" y="24"/>
			<point x="378" y="-10"/>
			<point x="378" y="-10" type="curve"/>
			<point x="386" y="-13"/>
			<point x="391" y="-12"/>
			<point x="397" y="-10" type="curve"/>
			<point x="419" y="8"/>
			<point x="454" y="23"/>
			<point name=".hr01" x="515" y="30" type="curve"/>
			<point x="521" y="36"/>
			<point x="521" y="51"/>
			<point x="515" y="57" type="curve"/>
			<point x="451" y="62"/>
			<point x="442" y="81"/>
		</contour>
		<contour>
			<point x="291" y="617" type="curve" smooth="yes"/>
			<point x="291" y="638"/>
			<point x="274" y="653"/>
			<point x="253" y="653" type="curve" smooth="yes"/>
			<point x="249" y="653"/>
			<point x="233" y="652"/>
			<point x="227" y="639" type="curve"/>
			<point x="227" y="639"/>
			<point x="227" y="639"/>
			<point x="227" y="639" type="curve"/>
			<point x="166" y="500" type="line"/>
			<point x="165" y="498"/>
			<point x="164" y="495"/>
			<point x="163" y="493" type="curve"/>
			<point x="162" y="492"/>
			<point x="162" y="491"/>
			<point x="162" y="490" type="curve"/>
			<point x="162" y="482"/>
			<point x="170" y="477"/>
			<point x="176" y="477" type="curve" smooth="yes"/>
			<point x="179" y="477"/>
			<point x="182" y="478"/>
			<point x="184" y="480" type="curve"/>
			<point x="187" y="484"/>
			<point x="191" y="488"/>
			<point x="194" y="492" type="curve"/>
			<point x="286" y="601" type="line"/>
			<point x="290" y="606"/>
			<point x="291" y="612"/>
		</contour>
		<contour>
			<point x="423" y="611" type="curve" smooth="yes"/>
			<point x="423" y="630"/>
			<point x="406" y="648"/>
			<point x="385" y="648" type="curve" smooth="yes"/>
			<point x="373" y="648"/>
			<point x="366" y="645"/>
			<point x="361" y="636" type="curve"/>
			<point x="360" y="634"/>
			<point x="358" y="631"/>
			<point x="357" y="629" type="curve"/>
			<point x="287" y="504" type="line"/>
			<point x="286" y="502"/>
			<point x="284" y="499"/>
			<point x="283" y="497" type="curve"/>
			<point x="283" y="497"/>
			<point x="283" y="497"/>
			<point x="283" y="497" type="curve"/>
			<point x="282" y="496"/>
			<point x="282" y="494"/>
			<point x="282" y="493" type="curve"/>
			<point x="282" y="485"/>
			<point x="291" y="480"/>
			<point x="296" y="480" type="curve" smooth="yes"/>
			<point x="298" y="480"/>
			<point x="300" y="480"/>
			<point x="302" y="482" type="curve" smooth="yes"/>
			<point x="306" y="486"/>
			<point x="310" y="489"/>
			<point x="313" y="493" type="curve"/>
			<point x="410" y="587" type="line"/>
			<point x="412" y="588"/>
			<point x="414" y="590"/>
			<point x="416" y="592" type="curve" smooth="yes"/>
			<point x="422" y="598"/>
			<point x="423" y="605"/>
		</contour>
	</outline>
</glyph>
<glyph name="Uogonek" format="2">
	<unicode hex="0172"/>
	<advance width="661"/>
	<outline>
		<contour>
			<point x="498" y="-135" type="curve"/>
			<point x="494" y="-128"/>
			<point x="488" y="-124"/>
			<point x="479" y="-124" type="curve"/>
			<point x="461" y="-142"/>
			<point x="448" y="-155"/>
			<point x="428" y="-160" type="curve"/>
			<point x="423" y="-161"/>
			<point x="418" y="-162"/>
			<point x="412" y="-162" type="curve" smooth="yes"/>
			<point x="382" y="-162"/>
			<point x="368" y="-149"/>
			<point x="364" y="-130" type="curve" smooth="yes"/>
			<point x="363" y="-125"/>
			<point x="362" y="-120"/>
			<point x="362" y="-115" type="curve" smooth="yes"/>
			<point x="362" y="-67"/>
			<point x="397" y="-36"/>
			<point x="473" y="26" type="curve"/>
			<point x="478" y="29"/>
			<point x="482" y="32"/>
			<point x="486" y="35" type="curve" smooth="yes"/>
			<point x="555" y="88"/>
			<point x="575" y="181"/>
			<point x="575" y="295" type="curve" smooth="yes"/>
			<point x="575" y="523" type="line" smooth="yes"/>
			<point x="575" y="603"/>
			<point x="592" y="607"/>
			<point x="652" y="614" type="curve"/>
			<point x="658" y="620"/>
			<point x="658" y="641"/>
			<point x="652" y="647" type="curve"/>
			<point x="614" y="646"/>
			<point x="573" y="645"/>
			<point x="550" y="645" type="curve" smooth="yes"/>
			<point x="529" y="645"/>
			<point x="480" y="646"/>
			<point x="434" y="647" type="curve"/>
			<point x="428" y="641"/>
			<point x="428" y="620"/>
			<point x="434" y="614" type="curve"/>
			<point x="509" y="607"/>
			<point x="526" y="604"/>
			<point x="526" y="523" type="curve" smooth="yes"/>
			<point x="526" y="277" type="line" smooth="yes"/>
			<point x="526" y="171"/>
			<point x="512" y="44"/>
			<point x="366" y="32" type="curve"/>
			<point x="359" y="31"/>
			<point x="350" y="31"/>
			<point x="342" y="31" type="curve" smooth="yes"/>
			<point x="300" y="31"/>
			<point x="263" y="45"/>
			<point x="235" y="68" type="curve"/>
			<point x="231" y="71"/>
			<point x="227" y="74"/>
			<point x="223" y="78" type="curve" smooth="yes"/>
			<point x="174" y="125"/>
			<point x="172" y="201"/>
			<point x="172" y="266" type="curve" smooth="yes"/>
			<point x="172" y="523" type="line" smooth="yes"/>
			<point x="172" y="606"/>
			<point x="187" y="611"/>
			<point x="264" y="614" type="curve"/>
			<point x="270" y="620"/>
			<point x="270" y="641"/>
			<point x="264" y="647" type="curve"/>
			<point x="223" y="646"/>
			<point x="180" y="645"/>
			<point x="144" y="645" type="curve" smooth="yes"/>
			<point x="129" y="645" type="line" smooth="yes"/>
			<point x="90" y="645"/>
			<point x="49" y="646"/>
			<point x="10" y="647" type="curve"/>
			<point x="4" y="641"/>
			<point x="4" y="620"/>
			<point x="10" y="614" type="curve"/>
			<point x="70" y="611"/>
			<point x="87" y="606"/>
			<point x="87" y="523" type="curve" smooth="yes"/>
			<point x="87" y="250" type="line" smooth="yes"/>
			<point x="87" y="244"/>
			<point x="87" y="239"/>
			<point x="87" y="233" type="curve" smooth="yes"/>
			<point x="87" y="131"/>
			<point x="120" y="70"/>
			<point x="166" y="35" type="curve" smooth="yes"/>
			<point x="212" y="0"/>
			<point x="270" y="-10"/>
			<point x="321" y="-10" type="curve" smooth="yes"/>
			<point x="328" y="-10"/>
			<point x="334" y="-10"/>
			<point x="340" y="-10" type="curve"/>
			<point x="358" y="-9"/>
			<point x="375" y="-7"/>
			<point x="391" y="-4" type="curve"/>
			<point x="337" y="-43"/>
			<point x="300" y="-83"/>
			<point x="300" y="-126" type="curve" smooth="yes"/>
			<point x="300" y="-180"/>
			<point x="338" y="-200"/>
			<point x="388" y="-200" type="curve" smooth="yes"/>
			<point x="393" y="-200"/>
			<point x="398" y="-200"/>
			<point x="403" y="-199" type="curve"/>
			<point x="439" y="-195"/>
			<point x="473" y="-174"/>
		</contour>
	</outline>
	<anchor name="m.uni0302" x="346" y="850"/>
	<anchor name="m.uni0316_2" x="188" y="-110"/>
</glyph>
<glyph name="uogonek" format="2">
	<unicode hex="0173"/>
	<advance width="531"/>
	<outline>
		<contour>
			<point x="501" y="-135" type="curve"/>
			<point x="497" y="-128"/>
			<point x="491" y="-124"/>
			<point x="482" y="-124" type="curve"/>
			<point x="460" y="-146"/>
			<point x="444" y="-162"/>
			<point x="415" y="-162" type="curve" smooth="yes"/>
			<point x="404" y="-162"/>
			<point x="396" y="-160"/>
			<point x="389" y="-157" type="curve" smooth="yes"/>
			<point x="372" y="-150"/>
			<point x="365" y="-134"/>
			<point x="365" y="-115" type="curve" smooth="yes"/>
			<point x="365" y="-76"/>
			<point x="382" y="-17"/>
			<point x="432" y="11" type="curve"/>
			<point x="453" y="19"/>
			<point x="479" y="26"/>
			<point x="515" y="30" type="curve"/>
			<point x="521" y="36"/>
			<point x="521" y="51"/>
			<point x="515" y="57" type="curve"/>
			<point x="451" y="62"/>
			<point name=".hr01" x="442" y="81"/>
			<point x="442" y="130" type="curve" smooth="yes"/>
			<point x="442" y="310" type="line" smooth="yes"/>
			<point x="442" y="314"/>
			<point x="442" y="318"/>
			<point x="442" y="322" type="curve" smooth="yes"/>
			<point x="442" y="342"/>
			<point x="444" y="381"/>
			<point x="445" y="405" type="curve"/>
			<point x="446" y="417"/>
			<point x="446" y="425"/>
			<point x="446" y="425" type="curve"/>
			<point x="446" y="427"/>
			<point x="445" y="428"/>
			<point x="444" y="429" type="curve" smooth="yes"/>
			<point x="443" y="430"/>
			<point x="441" y="431"/>
			<point x="438" y="431" type="curve"/>
			<point x="433" y="430"/>
			<point x="418" y="429"/>
			<point x="403" y="429" type="curve" smooth="yes"/>
			<point x="371" y="429"/>
			<point x="335" y="430"/>
			<point x="301" y="431" type="curve"/>
			<point x="295" y="425"/>
			<point x="295" y="404"/>
			<point x="301" y="398" type="curve"/>
			<point x="350" y="395"/>
			<point x="363" y="383"/>
			<point x="363" y="317" type="curve" smooth="yes"/>
			<point x="363" y="124" type="line" smooth="yes"/>
			<point x="363" y="105"/>
			<point x="361" y="97"/>
			<point x="347" y="85" type="curve" smooth="yes"/>
			<point x="314" y="56"/>
			<point x="280" y="40"/>
			<point x="255" y="37" type="curve"/>
			<point x="252" y="37"/>
			<point x="250" y="37"/>
			<point x="247" y="37" type="curve" smooth="yes"/>
			<point x="217" y="37"/>
			<point x="167" y="51"/>
			<point x="167" y="140" type="curve" smooth="yes"/>
			<point x="167" y="299" type="line" smooth="yes"/>
			<point x="167" y="307"/>
			<point x="167" y="314"/>
			<point x="167" y="322" type="curve" smooth="yes"/>
			<point x="167" y="342"/>
			<point x="169" y="381"/>
			<point x="170" y="405" type="curve"/>
			<point x="171" y="417"/>
			<point x="171" y="425"/>
			<point x="171" y="425" type="curve"/>
			<point x="171" y="427"/>
			<point x="170" y="428"/>
			<point x="169" y="429" type="curve" smooth="yes"/>
			<point x="168" y="430"/>
			<point x="166" y="431"/>
			<point x="163" y="431" type="curve"/>
			<point x="160" y="430"/>
			<point x="152" y="430"/>
			<point x="143" y="429" type="curve"/>
			<point x="138" y="429"/>
			<point x="133" y="429"/>
			<point x="128" y="429" type="curve" smooth="yes"/>
			<point x="96" y="429"/>
			<point x="60" y="430"/>
			<point x="26" y="431" type="curve"/>
			<point x="20" y="425"/>
			<point x="20" y="404"/>
			<point x="26" y="398" type="curve"/>
			<point x="74" y="394"/>
			<point x="88" y="383"/>
			<point x="88" y="318" type="curve" smooth="yes"/>
			<point x="88" y="314"/>
			<point x="88" y="310"/>
			<point x="88" y="306" type="curve" smooth="yes"/>
			<point x="88" y="162" type="line" smooth="yes"/>
			<point x="88" y="150"/>
			<point x="88" y="138"/>
			<point x="88" y="126" type="curve" smooth="yes"/>
			<point x="88" y="61"/>
			<point x="115" y="-3"/>
			<point x="201" y="-9" type="curve"/>
			<point x="206" y="-10"/>
			<point x="212" y="-10"/>
			<point x="217" y="-10" type="curve" smooth="yes"/>
			<point x="256" y="-10"/>
			<point name=".hr02" x="303" y="10"/>
			<point x="352" y="50" type="curve" smooth="yes"/>
			<point x="357" y="54"/>
			<point x="366" y="56"/>
			<point x="367" y="49" type="curve" smooth="yes"/>
			<point x="368" y="42"/>
			<point x="369" y="35"/>
			<point x="370" y="27" type="curve" smooth="yes"/>
			<point x="371" y="20"/>
			<point x="373" y="13"/>
			<point x="374" y="7" type="curve"/>
			<point x="323" y="-30"/>
			<point x="303" y="-86"/>
			<point x="303" y="-126" type="curve" smooth="yes"/>
			<point x="303" y="-146"/>
			<point x="308" y="-161"/>
			<point x="317" y="-172" type="curve" smooth="yes"/>
			<point x="326" y="-183"/>
			<point x="338" y="-191"/>
			<point x="353" y="-195" type="curve"/>
			<point x="365" y="-199"/>
			<point x="377" y="-200"/>
			<point x="391" y="-200" type="curve" smooth="yes"/>
			<point x="432" y="-200"/>
			<point x="472" y="-180"/>
		</contour>
	</outline>
</glyph>
<glyph name="longs" format="2">
	<unicode hex="017F"/>
	<advance width="291"/>
	<outline>
		<contour>
			<point x="172" y="122" type="curve" smooth="yes"/>
			<point x="172" y="474" type="line" smooth="yes"/>
			<point x="172" y="594"/>
			<point x="188" y="664"/>
			<point x="241" y="664" type="curve" smooth="yes"/>
			<point x="265" y="664"/>
			<point x="272" y="645"/>
			<point x="276" y="625" type="curve" smooth="yes"/>
			<point x="281" y="598"/>
			<point x="295" y="584"/>
			<point x="322" y="584" type="curve" smooth="yes"/>
			<point x="348" y="584"/>
			<point x="357" y="605"/>
			<point x="357" y="622" type="curve" smooth="yes"/>
			<point x="357" y="639"/>
			<point x="346" y="655"/>
			<point x="331" y="668" type="curve" smooth="yes"/>
			<point x="311" y="686"/>
			<point x="289" y="698"/>
			<point x="248" y="698" type="curve" smooth="yes"/>
			<point x="181" y="698"/>
			<point x="93" y="635"/>
			<point x="93" y="477" type="curve" smooth="yes"/>
			<point x="93" y="450"/>
			<point x="83" y="429"/>
			<point x="52" y="429" type="curve" smooth="yes"/>
			<point x="34" y="429"/>
			<point x="29" y="417"/>
			<point x="29" y="409" type="curve" smooth="yes"/>
			<point x="29" y="400" type="line" smooth="yes"/>
			<point x="29" y="396"/>
			<point x="30" y="395"/>
			<point x="34" y="395" type="curve" smooth="yes"/>
			<point x="78" y="395" type="line" smooth="yes"/>
			<point x="92" y="395"/>
			<point x="93" y="391"/>
			<point x="93" y="379" type="curve" smooth="yes"/>
			<point x="93" y="122" type="line" smooth="yes"/>
			<point x="93" y="39"/>
			<point x="82" y="34"/>
			<point x="28" y="31" type="curve"/>
			<point x="22" y="25"/>
			<point x="22" y="4"/>
			<point x="28" y="-2" type="curve"/>
			<point x="70" y="-1"/>
			<point x="92" y="0"/>
			<point x="133" y="0" type="curve" smooth="yes"/>
			<point x="179" y="0"/>
			<point x="208" y="-1"/>
			<point x="251" y="-2" type="curve"/>
			<point x="257" y="4"/>
			<point x="257" y="25"/>
			<point x="251" y="31" type="curve"/>
			<point x="183" y="34"/>
			<point x="172" y="39"/>
		</contour>
	</outline>
</glyph>
<glyph name="uni0180" format="2">
	<unicode hex="0180"/>
	<advance width="493"/>
	<outline>
		<contour>
			<point x="157" y="399" type="curve" smooth="yes"/>
			<point x="157" y="515" type="line"/>
			<point x="187" y="515"/>
			<point x="216" y="515"/>
			<point x="246" y="515" type="curve" smooth="yes"/>
			<point x="258" y="515"/>
			<point x="267" y="530"/>
			<point x="267" y="541" type="curve" smooth="yes"/>
			<point x="267" y="546"/>
			<point x="264" y="554"/>
			<point x="255" y="554" type="curve" smooth="yes"/>
			<point x="222" y="554"/>
			<point x="190" y="554"/>
			<point x="157" y="554" type="curve"/>
			<point x="157" y="583" type="line" smooth="yes"/>
			<point x="157" y="591"/>
			<point x="157" y="599"/>
			<point x="157" y="606" type="curve"/>
			<point x="158" y="657"/>
			<point x="161" y="688"/>
			<point x="161" y="688" type="curve"/>
			<point x="161" y="695"/>
			<point x="157" y="698"/>
			<point x="148" y="698" type="curve"/>
			<point x="123" y="688"/>
			<point x="48" y="674"/>
			<point x="8" y="671" type="curve"/>
			<point x="6" y="663"/>
			<point x="8" y="647"/>
			<point x="14" y="641" type="curve"/>
			<point x="17" y="641"/>
			<point x="20" y="641"/>
			<point x="23" y="641" type="curve"/>
			<point x="67" y="638"/>
			<point x="78" y="638"/>
			<point x="78" y="559" type="curve" smooth="yes"/>
			<point x="78" y="554" type="line"/>
			<point x="60" y="554"/>
			<point x="43" y="554"/>
			<point x="25" y="554" type="curve" smooth="yes"/>
			<point x="16" y="554"/>
			<point x="6" y="539"/>
			<point x="6" y="529" type="curve" smooth="yes"/>
			<point x="6" y="523"/>
			<point x="9" y="515"/>
			<point x="17" y="515" type="curve" smooth="yes"/>
			<point x="37" y="515"/>
			<point x="58" y="515"/>
			<point x="78" y="515" type="curve"/>
			<point x="78" y="130" type="line" smooth="yes"/>
			<point x="78" y="110"/>
			<point x="78" y="91"/>
			<point x="78" y="71" type="curve" smooth="yes"/>
			<point x="78" y="32"/>
			<point x="77" y="14"/>
			<point x="74" y="0" type="curve"/>
			<point x="79" y="-8"/>
			<point x="84" y="-12"/>
			<point x="96" y="-12" type="curve"/>
			<point x="102" y="-6"/>
			<point x="112" y="3"/>
			<point x="120" y="12" type="curve"/>
			<point x="123" y="16"/>
			<point x="126" y="19"/>
			<point x="129" y="20" type="curve"/>
			<point x="135" y="23"/>
			<point x="140" y="21"/>
			<point x="147" y="15" type="curve" smooth="yes"/>
			<point x="170" y="-4"/>
			<point name=".hr01" x="200" y="-10"/>
			<point x="235" y="-10" type="curve" smooth="yes"/>
			<point x="243" y="-10"/>
			<point x="251" y="-9"/>
			<point x="260" y="-8" type="curve" smooth="yes"/>
			<point x="355" y="5"/>
			<point x="456" y="96"/>
			<point x="456" y="242" type="curve" smooth="yes"/>
			<point x="456" y="303"/>
			<point x="434" y="352"/>
			<point x="400" y="386" type="curve" smooth="yes"/>
			<point x="370" y="417"/>
			<point x="331" y="435"/>
			<point x="292" y="438" type="curve"/>
			<point x="288" y="439"/>
			<point x="283" y="439"/>
			<point x="279" y="439" type="curve" smooth="yes"/>
			<point x="236" y="439"/>
			<point x="198" y="422"/>
			<point x="167" y="394" type="curve"/>
			<point x="161" y="388"/>
			<point x="157" y="390"/>
		</contour>
		<contour>
			<point x="174" y="363" type="curve" smooth="yes"/>
			<point x="200" y="386"/>
			<point x="230" y="395"/>
			<point x="259" y="395" type="curve" smooth="yes"/>
			<point x="320" y="395"/>
			<point x="370" y="321"/>
			<point x="370" y="224" type="curve" smooth="yes"/>
			<point x="370" y="120"/>
			<point x="331" y="39"/>
			<point x="252" y="26" type="curve"/>
			<point x="244" y="25"/>
			<point x="237" y="24"/>
			<point x="229" y="24" type="curve" smooth="yes"/>
			<point x="198" y="24"/>
			<point x="177" y="46"/>
			<point x="157" y="71" type="curve"/>
			<point x="157" y="321" type="line" smooth="yes"/>
			<point x="157" y="342"/>
			<point x="161" y="352"/>
		</contour>
	</outline>
</glyph>
<glyph name="uni0181" format="2">
	<unicode hex="0181"/>
	<advance width="642"/>
	<outline>
		<contour>
			<point x="206" y="645" type="curve" smooth="yes"/>
			<point x="167" y="645"/>
			<point x="173" y="647"/>
			<point x="156" y="647" type="curve"/>
			<point x="156" y="647"/>
			<point x="156" y="647"/>
			<point x="156" y="647" type="curve"/>
			<point x="58" y="647"/>
			<point x="5" y="566"/>
			<point x="5" y="510" type="curve" smooth="yes"/>
			<point x="5" y="490"/>
			<point x="20" y="473"/>
			<point x="41" y="473" type="curve"/>
			<point x="41" y="473"/>
			<point x="41" y="473"/>
			<point x="41" y="473" type="curve"/>
			<point x="57" y="473"/>
			<point x="76" y="483"/>
			<point x="76" y="509" type="curve"/>
			<point x="76" y="509"/>
			<point x="76" y="509"/>
			<point x="76" y="509" type="curve"/>
			<point x="76" y="526"/>
			<point x="69" y="538"/>
			<point x="69" y="554" type="curve" smooth="yes"/>
			<point x="69" y="583"/>
			<point name=".hr01" x="92" y="615"/>
			<point x="124" y="615" type="curve" smooth="yes"/>
			<point x="147" y="615"/>
			<point x="166" y="605"/>
			<point x="166" y="574" type="curve" smooth="yes"/>
			<point x="166" y="556"/>
			<point x="166" y="538"/>
			<point x="166" y="520" type="curve" smooth="yes"/>
			<point x="166" y="125" type="line" smooth="yes"/>
			<point x="166" y="107"/>
			<point x="166" y="89"/>
			<point x="166" y="71" type="curve" smooth="yes"/>
			<point x="166" y="36"/>
			<point x="156" y="32"/>
			<point x="114" y="29" type="curve" smooth="yes"/>
			<point name=".hr02" x="84" y="27" type="line"/>
			<point x="82" y="27"/>
			<point x="80" y="26"/>
			<point x="79" y="25" type="curve" smooth="yes"/>
			<point x="78" y="24"/>
			<point x="77" y="22"/>
			<point x="77" y="19" type="curve" smooth="yes"/>
			<point x="77" y="13"/>
			<point x="77" y="6"/>
			<point x="77" y="0" type="curve"/>
			<point x="78" y="-1"/>
			<point x="78" y="-1"/>
			<point x="79" y="-2" type="curve"/>
			<point x="126" y="-1"/>
			<point x="167" y="0"/>
			<point x="206" y="0" type="curve" smooth="yes"/>
			<point x="216" y="0"/>
			<point x="224" y="0"/>
			<point x="233" y="0" type="curve"/>
			<point x="258" y="-1"/>
			<point x="282" y="-2"/>
			<point x="349" y="-2" type="curve" smooth="yes"/>
			<point x="359" y="-2"/>
			<point x="369" y="-2"/>
			<point x="378" y="-1" type="curve"/>
			<point x="553" y="8"/>
			<point x="601" y="102"/>
			<point x="601" y="184" type="curve" smooth="yes"/>
			<point x="601" y="280"/>
			<point x="536" y="335"/>
			<point x="449" y="360" type="curve"/>
			<point x="449" y="362" type="line"/>
			<point x="499" y="387"/>
			<point name=".hr03" x="542" y="439"/>
			<point x="542" y="493" type="curve" smooth="yes"/>
			<point x="542" y="556"/>
			<point x="516" y="637"/>
			<point x="358" y="646" type="curve"/>
			<point x="348" y="647"/>
			<point x="338" y="647"/>
			<point x="327" y="647" type="curve" smooth="yes"/>
			<point x="292" y="647"/>
			<point x="246" y="645"/>
		</contour>
		<contour>
			<point x="247" y="332" type="line"/>
			<point x="316" y="332" type="line" smooth="yes"/>
			<point x="439" y="332"/>
			<point x="499" y="270"/>
			<point x="510" y="192" type="curve"/>
			<point x="511" y="183"/>
			<point x="512" y="174"/>
			<point name=".hr04" x="512" y="165" type="curve" smooth="yes"/>
			<point x="512" y="92"/>
			<point x="482" y="32"/>
			<point x="330" y="32" type="curve" smooth="yes"/>
			<point x="260" y="32"/>
			<point x="247" y="45"/>
			<point x="247" y="78" type="curve" smooth="yes"/>
		</contour>
		<contour>
			<point x="247" y="570" type="line" smooth="yes"/>
			<point x="247" y="603"/>
			<point x="247" y="613"/>
			<point x="334" y="613" type="curve" smooth="yes"/>
			<point x="390" y="613"/>
			<point x="465" y="583"/>
			<point name=".hr05" x="465" y="481" type="curve" smooth="yes"/>
			<point x="465" y="396"/>
			<point x="404" y="366"/>
			<point x="321" y="366" type="curve" smooth="yes"/>
			<point x="247" y="366" type="line"/>
		</contour>
	</outline>
	<anchor name="m.uni0302" x="327" y="805"/>
	<anchor name="m.uni0316_2" x="328" y="-108"/>
</glyph>
<glyph name="uni0183" format="2">
	<unicode hex="0183"/>
	<advance width="491"/>
	<outline>
		<contour>
			<point x="74" y="71" type="line" smooth="yes"/>
			<point x="74" y="32"/>
			<point x="74" y="16"/>
			<point x="71" y="-7" type="curve"/>
			<point x="78" y="-9"/>
			<point name=".hr01" x="85" y="-10"/>
			<point x="92" y="-12" type="curve"/>
			<point x="101" y="-2"/>
			<point x="118" y="12"/>
			<point x="127" y="25" type="curve"/>
			<point x="156" y="0"/>
			<point x="188" y="-10"/>
			<point x="231" y="-10" type="curve" smooth="yes"/>
			<point x="235" y="-10"/>
			<point x="240" y="-10"/>
			<point x="244" y="-10" type="curve"/>
			<point x="343" y="-2"/>
			<point x="450" y="84"/>
			<point x="450" y="236" type="curve" smooth="yes"/>
			<point x="450" y="294"/>
			<point x="430" y="342"/>
			<point x="400" y="378" type="curve" smooth="yes"/>
			<point x="370" y="413"/>
			<point x="330" y="434"/>
			<point x="289" y="438" type="curve"/>
			<point x="284" y="439"/>
			<point x="280" y="439"/>
			<point x="275" y="439" type="curve" smooth="yes"/>
			<point x="227" y="439"/>
			<point x="187" y="421"/>
			<point x="153" y="384" type="curve"/>
			<point x="153" y="575" type="line"/>
			<point x="153" y="654" type="line"/>
			<point x="173" y="654"/>
			<point x="193" y="654"/>
			<point x="213" y="654" type="curve" smooth="yes"/>
			<point x="273" y="654" type="line" smooth="yes"/>
			<point x="278" y="654"/>
			<point x="283" y="654"/>
			<point x="288" y="654" type="curve" smooth="yes"/>
			<point x="341" y="654"/>
			<point x="366" y="591"/>
			<point x="378" y="545" type="curve"/>
			<point x="388" y="546"/>
			<point x="399" y="547"/>
			<point x="409" y="548" type="curve"/>
			<point x="404" y="595"/>
			<point x="400" y="641"/>
			<point x="395" y="688" type="curve"/>
			<point x="390" y="688"/>
			<point x="385" y="688"/>
			<point x="380" y="688" type="curve" smooth="yes"/>
			<point x="369" y="688"/>
			<point x="359" y="688"/>
			<point x="349" y="688" type="curve" smooth="yes"/>
			<point x="240" y="688" type="line" smooth="yes"/>
			<point x="225" y="688"/>
			<point x="209" y="688"/>
			<point x="194" y="688" type="curve" smooth="yes"/>
			<point x="113" y="688"/>
			<point x="53" y="680"/>
			<point x="5" y="672" type="curve"/>
			<point x="6" y="664"/>
			<point x="6" y="657"/>
			<point x="7" y="649" type="curve"/>
			<point x="7" y="647"/>
			<point x="8" y="646"/>
			<point x="8" y="645" type="curve"/>
			<point x="9" y="644"/>
			<point x="11" y="644"/>
			<point x="12" y="644" type="curve"/>
			<point x="23" y="643"/>
			<point x="33" y="643"/>
			<point x="44" y="642" type="curve"/>
			<point x="64" y="641"/>
			<point x="74" y="635"/>
			<point x="74" y="578" type="curve" smooth="yes"/>
			<point x="74" y="573"/>
			<point x="74" y="567"/>
			<point x="74" y="562" type="curve" smooth="yes"/>
		</contour>
		<contour>
			<point x="153" y="353" type="line"/>
			<point x="184" y="385"/>
			<point x="224" y="393"/>
			<point x="244" y="394" type="curve"/>
			<point x="249" y="395"/>
			<point x="253" y="395"/>
			<point x="255" y="395" type="curve" smooth="yes"/>
			<point x="309" y="395"/>
			<point x="356" y="340"/>
			<point x="366" y="256" type="curve"/>
			<point x="367" y="245"/>
			<point x="368" y="234"/>
			<point x="368" y="223" type="curve" smooth="yes"/>
			<point x="368" y="119"/>
			<point x="328" y="40"/>
			<point x="250" y="26" type="curve"/>
			<point x="242" y="25"/>
			<point x="234" y="24"/>
			<point x="225" y="24" type="curve" smooth="yes"/>
			<point x="194" y="24"/>
			<point x="173" y="29"/>
			<point x="153" y="54" type="curve"/>
		</contour>
	</outline>
	<anchor name="m.uni0316_2" x="234" y="-109"/>
</glyph>
<glyph name="uni0184" format="2">
	<unicode hex="0184"/>
	<advance width="572"/>
	<outline>
		<contour>
			<point x="170" y="658" type="curve"/>
			<point x="117" y="622"/>
			<point x="88" y="610"/>
			<point x="36" y="599" type="curve"/>
			<point x="25" y="588"/>
			<point x="25" y="576"/>
			<point x="36" y="565" type="curve"/>
			<point x="84" y="551"/>
			<point x="106" y="533"/>
			<point x="106" y="471" type="curve" smooth="yes"/>
			<point x="106" y="464"/>
			<point x="106" y="457"/>
			<point x="106" y="450" type="curve" smooth="yes"/>
			<point x="106" y="119" type="line" smooth="yes"/>
			<point x="106" y="106"/>
			<point x="106" y="92"/>
			<point x="106" y="78" type="curve" smooth="yes"/>
			<point x="106" y="50"/>
			<point x="93" y="36"/>
			<point x="52" y="33" type="curve"/>
			<point x="43" y="32"/>
			<point x="34" y="32"/>
			<point x="25" y="31" type="curve"/>
			<point x="21" y="31"/>
			<point x="18" y="28"/>
			<point x="18" y="23" type="curve" smooth="yes"/>
			<point x="18" y="15"/>
			<point x="18" y="8"/>
			<point x="18" y="0" type="curve"/>
			<point x="19" y="-1"/>
			<point x="19" y="-1"/>
			<point x="20" y="-2" type="curve"/>
			<point x="20" y="-2"/>
			<point x="113" y="0"/>
			<point x="148" y="0" type="curve" smooth="yes"/>
			<point x="153" y="0"/>
			<point x="158" y="0"/>
			<point x="163" y="0" type="curve"/>
			<point x="189" y="-1"/>
			<point x="217" y="-2"/>
			<point x="254" y="-2" type="curve" smooth="yes"/>
			<point x="269" y="-2"/>
			<point x="283" y="-2"/>
			<point x="297" y="-1" type="curve"/>
			<point x="359" y="1"/>
			<point x="411" y="10"/>
			<point x="458" y="41" type="curve" smooth="yes"/>
			<point x="500" y="69"/>
			<point x="537" y="123"/>
			<point x="537" y="188" type="curve" smooth="yes"/>
			<point x="537" y="192"/>
			<point x="537" y="197"/>
			<point x="537" y="202" type="curve"/>
			<point x="532" y="276"/>
			<point x="488" y="373"/>
			<point x="296" y="373" type="curve" smooth="yes"/>
			<point x="187" y="373" type="line"/>
			<point x="187" y="543" type="line" smooth="yes"/>
			<point x="187" y="608"/>
			<point x="190" y="648"/>
			<point x="190" y="648" type="curve"/>
			<point x="190" y="655"/>
			<point x="179" y="658"/>
		</contour>
		<contour>
			<point x="187" y="333" type="line"/>
			<point x="260" y="333" type="line" smooth="yes"/>
			<point x="268" y="333"/>
			<point x="276" y="333"/>
			<point x="284" y="333" type="curve" smooth="yes"/>
			<point x="404" y="333"/>
			<point x="439" y="256"/>
			<point x="446" y="198" type="curve" smooth="yes"/>
			<point x="447" y="191"/>
			<point x="447" y="184"/>
			<point x="447" y="178" type="curve" smooth="yes"/>
			<point x="447" y="116"/>
			<point x="416" y="31"/>
			<point x="259" y="31" type="curve" smooth="yes"/>
			<point x="200" y="31"/>
			<point x="187" y="45"/>
			<point x="187" y="81" type="curve" smooth="yes"/>
		</contour>
	</outline>
	<anchor name="m.uni0302" x="267" y="805"/>
	<anchor name="m.uni0316_2" x="268" y="-108"/>
</glyph>
<glyph name="uni0185" format="2">
	<unicode hex="0185"/>
	<advance width="485"/>
	<outline>
		<contour>
			<point x="82" y="511" type="curve" smooth="yes"/>
			<point x="82" y="124" type="line" smooth="yes"/>
			<point x="82" y="107"/>
			<point x="82" y="90"/>
			<point x="82" y="73" type="curve" smooth="yes"/>
			<point x="82" y="34"/>
			<point x="81" y="18"/>
			<point x="79" y="-6" type="curve"/>
			<point name=".hr01" x="86" y="-10"/>
			<point x="92" y="-11"/>
			<point x="99" y="-11" type="curve"/>
			<point x="108" y="-1"/>
			<point x="122" y="14"/>
			<point x="130" y="26" type="curve"/>
			<point x="160" y="1"/>
			<point x="191" y="-10"/>
			<point x="234" y="-10" type="curve" smooth="yes"/>
			<point x="243" y="-10"/>
			<point x="253" y="-9"/>
			<point x="262" y="-8" type="curve"/>
			<point x="356" y="7"/>
			<point x="449" y="93"/>
			<point x="449" y="238" type="curve" smooth="yes"/>
			<point x="449" y="299"/>
			<point x="428" y="349"/>
			<point x="397" y="384" type="curve" smooth="yes"/>
			<point x="369" y="415"/>
			<point x="332" y="434"/>
			<point x="293" y="438" type="curve"/>
			<point x="289" y="439"/>
			<point x="284" y="439"/>
			<point x="279" y="439" type="curve" smooth="yes"/>
			<point x="230" y="439"/>
			<point x="190" y="422"/>
			<point x="156" y="385" type="curve"/>
			<point x="156" y="567" type="line"/>
			<point x="156" y="583" type="line" smooth="yes"/>
			<point x="156" y="648"/>
			<point x="159" y="688"/>
			<point x="159" y="688" type="curve"/>
			<point x="159" y="695"/>
			<point x="155" y="698"/>
			<point x="146" y="698" type="curve"/>
			<point x="93" y="662"/>
			<point x="64" y="650"/>
			<point x="12" y="639" type="curve"/>
			<point x="1" y="628"/>
			<point x="1" y="616"/>
			<point x="12" y="605" type="curve"/>
			<point x="60" y="591"/>
			<point x="82" y="573"/>
		</contour>
		<contour>
			<point x="156" y="354" type="line"/>
			<point x="188" y="387"/>
			<point x="228" y="394"/>
			<point x="247" y="396" type="curve"/>
			<point x="252" y="396"/>
			<point x="256" y="396"/>
			<point x="258" y="396" type="curve" smooth="yes"/>
			<point x="314" y="396"/>
			<point x="362" y="340"/>
			<point x="370" y="255" type="curve" smooth="yes"/>
			<point x="371" y="245"/>
			<point x="372" y="235"/>
			<point x="372" y="225" type="curve" smooth="yes"/>
			<point x="372" y="121"/>
			<point x="331" y="39"/>
			<point x="252" y="26" type="curve"/>
			<point x="244" y="25"/>
			<point x="237" y="24"/>
			<point x="229" y="24" type="curve" smooth="yes"/>
			<point x="198" y="24"/>
			<point x="176" y="41"/>
			<point x="156" y="65" type="curve"/>
		</contour>
	</outline>
	<anchor name="m.uni0316_2" x="238" y="-108"/>
</glyph>
<glyph name="uni0187" format="2">
	<unicode hex="0187"/>
	<advance width="646"/>
	<outline>
		<contour>
			<point x="665" y="743" type="curve" smooth="yes"/>
			<point x="628" y="743"/>
			<point x="559" y="704"/>
			<point x="550" y="619" type="curve"/>
			<point x="513" y="630"/>
			<point x="470" y="652"/>
			<point x="390" y="657" type="curve"/>
			<point x="380" y="658"/>
			<point x="369" y="658"/>
			<point x="358" y="658" type="curve" smooth="yes"/>
			<point x="273" y="658"/>
			<point x="202" y="627"/>
			<point x="143" y="573" type="curve" smooth="yes"/>
			<point x="77" y="512"/>
			<point x="37" y="414"/>
			<point x="37" y="310" type="curve" smooth="yes"/>
			<point x="37" y="204"/>
			<point x="76" y="109"/>
			<point x="155" y="50" type="curve" smooth="yes"/>
			<point x="206" y="12"/>
			<point x="273" y="-10"/>
			<point x="357" y="-10" type="curve" smooth="yes"/>
			<point x="372" y="-10"/>
			<point x="387" y="-9"/>
			<point x="401" y="-7" type="curve" smooth="yes"/>
			<point x="481" y="5"/>
			<point x="553" y="50"/>
			<point x="611" y="125" type="curve"/>
			<point x="606" y="134"/>
			<point x="599" y="140"/>
			<point x="588" y="140" type="curve"/>
			<point x="529" y="75"/>
			<point x="472" y="43"/>
			<point x="401" y="34" type="curve" smooth="yes"/>
			<point x="386" y="32"/>
			<point x="372" y="31"/>
			<point x="356" y="31" type="curve" smooth="yes"/>
			<point x="221" y="31"/>
			<point x="128" y="183"/>
			<point x="128" y="329" type="curve" smooth="yes"/>
			<point x="128" y="415"/>
			<point x="151" y="487"/>
			<point x="187" y="532" type="curve" smooth="yes"/>
			<point x="237" y="593"/>
			<point x="295" y="621"/>
			<point x="347" y="621" type="curve" smooth="yes"/>
			<point x="367" y="621"/>
			<point x="385" y="619"/>
			<point x="401" y="616" type="curve" smooth="yes"/>
			<point x="500" y="597"/>
			<point x="544" y="527"/>
			<point x="566" y="453" type="curve"/>
			<point x="578" y="449"/>
			<point x="588" y="452"/>
			<point x="599" y="458" type="curve"/>
			<point x="594" y="510"/>
			<point x="587" y="558"/>
			<point x="577" y="613" type="curve"/>
			<point x="577" y="613"/>
			<point x="577" y="613"/>
			<point x="577" y="613" type="curve"/>
			<point x="583" y="613"/>
			<point x="621" y="672"/>
			<point x="651" y="672" type="curve" smooth="yes"/>
			<point x="674" y="672"/>
			<point x="701" y="676"/>
			<point x="701" y="707" type="curve" smooth="yes"/>
			<point x="701" y="719"/>
			<point x="693" y="743"/>
		</contour>
	</outline>
</glyph>
<glyph name="uni0189" format="2">
	<unicode hex="0189"/>
	<advance width="701"/>
	<outline>
		<contour>
			<point x="149" y="0" type="curve" smooth="yes"/>
			<point x="186" y="0"/>
			<point x="228" y="-2"/>
			<point x="331" y="-2" type="curve" smooth="yes"/>
			<point x="410" y="-2"/>
			<point x="503" y="18"/>
			<point x="570" y="79" type="curve" smooth="yes"/>
			<point x="622" y="127"/>
			<point x="658" y="200"/>
			<point x="658" y="308" type="curve" smooth="yes"/>
			<point x="658" y="494"/>
			<point x="505" y="647"/>
			<point x="313" y="647" type="curve" smooth="yes"/>
			<point x="251" y="647"/>
			<point x="201" y="645"/>
			<point x="163" y="645" type="curve" smooth="yes"/>
			<point x="158" y="645"/>
			<point x="153" y="645"/>
			<point x="148" y="645" type="curve" smooth="yes"/>
			<point x="112" y="645"/>
			<point x="59" y="646"/>
			<point x="19" y="647" type="curve"/>
			<point x="13" y="641"/>
			<point x="13" y="620"/>
			<point x="19" y="614" type="curve"/>
			<point x="89" y="611"/>
			<point x="106" y="606"/>
			<point x="106" y="523" type="curve" smooth="yes"/>
			<point x="106" y="326" type="line"/>
			<point x="80" y="326"/>
			<point x="53" y="326"/>
			<point x="27" y="326" type="curve" smooth="yes"/>
			<point x="18" y="326"/>
			<point x="8" y="311"/>
			<point x="8" y="301" type="curve" smooth="yes"/>
			<point x="8" y="295"/>
			<point x="11" y="287"/>
			<point x="19" y="287" type="curve" smooth="yes"/>
			<point x="48" y="287"/>
			<point x="77" y="287"/>
			<point x="106" y="287" type="curve"/>
			<point x="106" y="122" type="line" smooth="yes"/>
			<point x="106" y="39"/>
			<point x="89" y="34"/>
			<point x="19" y="31" type="curve"/>
			<point x="13" y="25"/>
			<point x="13" y="4"/>
			<point x="19" y="-2" type="curve"/>
			<point x="58" y="-1"/>
			<point x="111" y="0"/>
		</contour>
		<contour>
			<point x="191" y="84" type="curve" smooth="yes"/>
			<point x="191" y="287" type="line"/>
			<point x="220" y="287"/>
			<point x="250" y="287"/>
			<point x="279" y="287" type="curve" smooth="yes"/>
			<point x="291" y="287"/>
			<point x="300" y="302"/>
			<point x="300" y="313" type="curve" smooth="yes"/>
			<point x="300" y="318"/>
			<point x="297" y="326"/>
			<point x="288" y="326" type="curve" smooth="yes"/>
			<point x="256" y="326"/>
			<point x="223" y="326"/>
			<point x="191" y="326" type="curve"/>
			<point x="191" y="538" type="line" smooth="yes"/>
			<point x="191" y="546"/>
			<point x="191" y="555"/>
			<point x="191" y="564" type="curve" smooth="yes"/>
			<point x="191" y="599"/>
			<point x="226" y="613"/>
			<point x="275" y="613" type="curve" smooth="yes"/>
			<point x="491" y="613"/>
			<point x="562" y="438"/>
			<point x="562" y="284" type="curve" smooth="yes"/>
			<point x="562" y="95"/>
			<point x="457" y="39"/>
			<point x="328" y="33" type="curve"/>
			<point x="319" y="32"/>
			<point x="309" y="32"/>
			<point x="300" y="32" type="curve" smooth="yes"/>
			<point x="202" y="32"/>
			<point x="191" y="52"/>
		</contour>
	</outline>
</glyph>
